{
.appVersion = "3109";
.formatVersion = 3;
DisplayStrings = (
"̣ḷ",
"Bellota/A.ss01",
"A/_corner.right_curved/a.ss01",
C,
"/C.ss01",
"C/C.swsh",
"CO/C.ss01/C.swsh",
"A/A.ss01/A.swsh",
"B/B.ss01/B.swsh",
"D/D.ss01/D.swsh",
"/_corner.caps_left D",
"E/E.ss01/D.swsh/E.swsh",
"F/F.ss01/F.swsh",
G,
"C/C.ss01/C.swsh G/G.ss01/G.swsh"
);
axes = (
{
name = Weight;
tag = wght;
}
);
classes = (
{
automatic = 1;

glyphs = (
{
glyphname = A;
kernLeft = A;
kernRight = A;
layers = (
{
anchors = (
{
name = bottom;
pos = (414,0);
},
{
name = ogonek;
pos = (715,0);
},
{
name = top;
pos = (414,684);
}
);
layerId = "873CAA12-270D-4223-A88E-AE8E101FDBE8";
shapes = (
{
closed = 1;
nodes = (
(148,-13,o),
(182,6,o),
(196,41,cs),
(281,252,l),
(244,227,l),
(583,227,l),
(546,252,l),
(651,0,l),
(715,0,l),
(424,693,l),
(404,693,l),
(148,78,ls),
(138,54,o),
(130,43,o),
(113,43,cs),
(95,43,o),
(82,58,o),
(76,73,c),
(30,48,l),
(39,13,o),
(71,-13,o),
(114,-13,cs)
);
},
{
closed = 1;
nodes = (
(403,552,l),
(413,592,l),
(424,552,l),
(542,258,l),
(559,283,l),
(268,283,l),
(285,258,l)
);
}
);
width = 748;
},
{
anchors = (
{
name = bottom;
pos = (415,11);
},
{
name = ogonek;
pos = (724,-1);
},
{
name = top;
pos = (413,684);
}
);
layerId = "0CAF3BED-C4AC-4024-B3E1-4C69D1EF7EC0";
shapes = (
{
closed = 1;
nodes = (
(158,-9,o),
(199,13,o),
(214,50,cs),
(299,253,l),
(249,220,l),
(581,220,l),
(531,253,l),
(637,-1,l),
(724,-1,l),
(431,688,l),
(397,688,l),
(147,94,ls),
(140,77,o),
(131,65,o),
(117,65,cs),
(104,65,o),
(93,76,o),
(89,93,c),
(30,61,l),
(39,22,o),
(69,-9,o),
(124,-9,cs)
);
},
{
closed = 1;
nodes = (
(411,548,l),
(414,569,l),
(417,548,l),
(523,260,l),
(547,294,l),
(279,294,l),
(302,260,l)
);
}
);
width = 754;
},
{
anchors = (
{
name = bottom;
pos = (421,-8);
},
{
name = ogonek;
pos = (714,1);
},
{
name = top;
pos = (421,684);
}
);
layerId = "49C16FD3-6177-408B-A733-AEB3898BB77C";
shapes = (
{
closed = 1;
nodes = (
(148,-9,o),
(176,8,o),
(190,42,cs),
(275,251,l),
(250,234,l),
(590,234,l),
(565,251,l),
(669,1,l),
(714,1,l),
(425,692,l),
(417,692,l),
(152,58,ls),
(147,46,o),
(132,31,o),
(115,31,cs),
(96,31,o),
(80,45,o),
(75,59,c),
(36,53,l),
(47,15,o),
(76,-9,o),
(114,-9,cs)
);
},
{
closed = 1;
nodes = (
(401,560,l),
(420,625,l),
(439,562,l),
(561,257,l),
(572,274,l),
(267,274,l),
(278,257,l)
);
}
);
width = 752;
}
);
unicode = 65;
userData = {
position = 666;
width = 20;
};
},
{
glyphname = A.ss01;
kernLeft = Atext;
kernRight = A;
layers = (
{
anchors = (
{
name = bottom;
pos = (336,0);
},
{
name = ogonek;
pos = (638,0);
},
{
name = top;
pos = (335,684);
}
);
layerId = "873CAA12-270D-4223-A88E-AE8E101FDBE8";
shapes = (
{
closed = 1;
nodes = (
(97,0,l),
(202,252,l),
(165,227,l),
(504,227,l),
(466,252,l),
(574,0,l),
(638,0,l),
(344,703,l),
(325,703,l),
(33,0,l)
);
},
{
closed = 1;
nodes = (
(310,517,ls),
(320,542,o),
(326,565,o),
(334,595,c),
(339,574,o),
(349,542,o),
(359,517,cs),
(463,258,l),
(480,283,l),
(189,283,l),
(206,258,l)
);
}
);
width = 671;
},
{
anchors = (
{
name = bottom;
pos = (341,0);
},
{
name = ogonek;
pos = (651,-1);
},
{
name = top;
pos = (340,684);
}
);
layerId = "0CAF3BED-C4AC-4024-B3E1-4C69D1EF7EC0";
shapes = (
{
closed = 1;
nodes = (
(117,-1,l),
(223,253,l),
(173,220,l),
(506,220,l),
(456,253,l),
(564,-1,l),
(651,-1,l),
(356,705,l),
(323,705,l),
(30,-1,l)
);
},
{
closed = 1;
nodes = (
(324,508,ls),
(328,519,o),
(335,545,o),
(339,557,c),
(343,545,o),
(349,519,o),
(353,508,cs),
(451,261,l),
(474,294,l),
(204,294,l),
(227,260,l)
);
}
);
width = 681;
},
{
anchors = (
{
name = bottom;
pos = (340,0);
},
{
name = ogonek;
pos = (642,1);
},
{
name = top;
pos = (339,684);
}
);
layerId = "49C16FD3-6177-408B-A733-AEB3898BB77C";
shapes = (
{
closed = 1;
nodes = (
(84,1,l),
(189,251,l),
(164,234,l),
(514,234,l),
(489,251,l),
(595,1,l),
(642,1,l),
(343,704,l),
(335,704,l),
(38,1,l)
);
},
{
closed = 1;
nodes = (
(305,526,ls),
(320,562,o),
(333,614,o),
(338,629,c),
(343,615,o),
(359,563,o),
(375,526,cs),
(487,257,l),
(498,274,l),
(180,274,l),
(191,257,l)
);
}
);
width = 680;
}
);
userData = {
position = 10;
width = 615;
};
},
{
glyphname = A.swsh;
kernLeft = A;
kernRight = A;
layers = (
{
anchors = (
{
name = bottom;
pos = (428,0);
},
{
name = ogonek;
pos = (729,0);
},
{
name = top;
pos = (428,684);
}
);
layerId = "873CAA12-270D-4223-A88E-AE8E101FDBE8";
shapes = (
{
closed = 1;
nodes = (
(175,-11,o),
(197,9,o),
(222,70,cs),
(295,252,l),
(258,227,l),
(597,227,l),
(560,252,l),
(665,0,l),
(729,0,l),
(437,693,l),
(418,693,l),
(167,92,ls),
(152,56,o),
(148,43,o),
(120,43,cs),
(109,43,o),
(92,55,o),
(92,71,cs),
(92,75,o),
(92,79,o),
(94,83,c),
(47,113,l),
(39,101,o),
(36,83,o),
(36,71,cs),
(36,25,o),
(76,-13,o),
(127,-12,cs)
);
},
{
closed = 1;
nodes = (
(417,552,l),
(427,592,l),
(438,552,l),
(556,258,l),
(573,283,l),
(282,283,l),
(299,258,l)
);
}
);
width = 762;
},
{
anchors = (
{
name = bottom;
pos = (434,11);
},
{
name = ogonek;
pos = (748,-1);
},
{
name = top;
pos = (432,684);
}
);
layerId = "0CAF3BED-C4AC-4024-B3E1-4C69D1EF7EC0";
shapes = (
{
closed = 1;
nodes = (
(185,-14,o),
(214,19,o),
(233,65,cs),
(312,253,l),
(262,220,l),
(605,220,l),
(555,253,l),
(661,0,l),
(748,0,l),
(450,688,l),
(416,688,l),
(166,108,ls),
(155,82,o),
(149,58,o),
(129,58,cs),
(119,58,o),
(106,63,o),
(104,78,cs),
(104,81,o),
(103,85,o),
(106,92,c),
(45,131,l),
(36,112,o),
(32,96,o),
(32,80,cs),
(32,25,o),
(81,-14,o),
(129,-14,cs)
);
},
{
closed = 1;
nodes = (
(420,518,l),
(433,564,l),
(446,518,l),
(548,261,l),
(571,294,l),
(292,294,l),
(314,261,l)
);
}
);
width = 778;
},
{
anchors = (
{
name = bottom;
pos = (424,-6);
},
{
name = ogonek;
pos = (720,0);
},
{
name = top;
pos = (424,684);
}
);
layerId = "49C16FD3-6177-408B-A733-AEB3898BB77C";
shapes = (
{
closed = 1;
nodes = (
(162,-11,o),
(188,10,o),
(204,49,cs),
(285,250,l),
(260,233,l),
(587,233,l),
(562,250,l),
(666,0,l),
(715,0,l),
(429,692,l),
(419,692,l),
(164,70,ls),
(152,41,o),
(141,30,o),
(121,30,cs),
(101,30,o),
(84,48,o),
(84,67,cs),
(84,72,o),
(85,77,o),
(87,82,c),
(52,106,l),
(44,94,o),
(40,76,o),
(40,66,cs),
(40,21,o),
(81,-11,o),
(123,-11,cs)
);
},
{
closed = 1;
nodes = (
(410,569,l),
(424,619,l),
(437,569,l),
(556,260,l),
(568,277,l),
(279,277,l),
(291,260,l)
);
}
);
width = 753;
}
);
userData = {
position = 666;
width = 20;
};
},
{
glyphname = AE;
kernLeft = AE;
kernRight = E;
layers = (
{
anchors = (
{
name = bottom;
pos = (545,0);
},
{
name = top;
pos = (555,682);
}
);
layerId = "873CAA12-270D-4223-A88E-AE8E101FDBE8";
shapes = (
{
closed = 1;
nodes = (
(126,-14,o),
(158,1,o),
(173,31,cs),
(272,227,l),
(494,227,l),
(494,0,l),
(922,0,l),
(922,56,l),
(555,56,l),
(555,334,l),
(802,334,l),
(802,390,l),
(555,390,l),
(555,628,l),
(902,628,l),
(902,684,l),
(465,684,l),
(124,62,ls),
(119,53,o),
(109,43,o),
(95,43,cs),
(81,43,o),
(71,45,o),
(58,64,c),
(18,24,l),
(38,0,o),
(64,-14,o),
(91,-14,cs)
);
},
{
closed = 1;
nodes = (
(477,592,l),
(495,630,l),
(494,283,l),
(307,283,l)
);
}
);
width = 963;
},
{
anchors = (
{
name = bottom;
pos = (543,0);
},
{
name = top;
pos = (554,673);
}
);
layerId = "0CAF3BED-C4AC-4024-B3E1-4C69D1EF7EC0";
shapes = (
{
closed = 1;
nodes = (
(142,-12,o),
(179,8,o),
(197,44,cs),
(286,220,l),
(483,220,l),
(483,-1,l),
(920,-1,l),
(920,75,l),
(565,75,l),
(565,325,l),
(802,325,l),
(802,401,l),
(565,401,l),
(565,610,l),
(900,610,l),
(900,686,l),
(456,686,l),
(133,93,ls),
(123,75,o),
(114,67,o),
(99,67,cs),
(88,67,o),
(76,72,o),
(66,86,c),
(18,30,l),
(35,5,o),
(66,-12,o),
(107,-12,cs)
);
},
{
closed = 1;
nodes = (
(462,537,l),
(483,586,l),
(483,296,l),
(330,296,l)
);
}
);
width = 962;
},
{
anchors = (
{
name = bottom;
pos = (553,0);
},
{
name = top;
pos = (561,692);
}
);
layerId = "49C16FD3-6177-408B-A733-AEB3898BB77C";
shapes = (
{
closed = 1;
nodes = (
(144,-2,o),
(156,26,o),
(187,71,c),
(279,235,l),
(507,235,l),
(507,1,l),
(926,1,l),
(926,41,l),
(549,41,l),
(549,344,l),
(803,344,l),
(803,384,l),
(549,384,l),
(549,645,l),
(906,645,l),
(906,685,l),
(479,685,l),
(145,78,l),
(131,57,o),
(122,38,o),
(98,38,cs),
(84,38,o),
(67,47,o),
(59,56,c),
(22,38,l),
(39,12,o),
(66,-2,o),
(97,-2,cs)
);
},
{
closed = 1;
nodes = (
(475,596,l),
(506,656,l),
(507,275,l),
(300,275,l)
);
}
);
width = 971;
}
);
metricLeft = "=A*.6";
unicode = 198;
userData = {
position = 422;
width = 61;
};
},
{
glyphname = AE.ss01;
kernLeft = AE;
kernRight = E;
layers = (
{
anchors = (
{
name = bottom;
pos = (478,0);
},
{
name = top;
pos = (488,682);
}
);
layerId = "873CAA12-270D-4223-A88E-AE8E101FDBE8";
shapes = (
{
closed = 1;
nodes = (
(83,0,l),
(208,227,l),
(427,227,l),
(427,0,l),
(844,0,l),
(844,56,l),
(487,56,l),
(487,334,l),
(724,334,l),
(724,390,l),
(487,390,l),
(487,628,l),
(824,628,l),
(824,684,l),
(404,684,l),
(15,0,l)
);
},
{
closed = 1;
nodes = (
(408,587,l),
(427,631,l),
(427,283,l),
(236,283,l)
);
}
);
width = 885;
},
{
anchors = (
{
name = bottom;
pos = (484,0);
},
{
name = top;
pos = (495,673);
}
);
layerId = "0CAF3BED-C4AC-4024-B3E1-4C69D1EF7EC0";
shapes = (
{
closed = 1;
nodes = (
(106,0,l),
(227,220,l),
(424,220,l),
(424,-1,l),
(851,-1,l),
(851,75,l),
(506,75,l),
(506,325,l),
(733,325,l),
(733,401,l),
(506,401,l),
(506,610,l),
(831,610,l),
(831,686,l),
(407,686,l),
(15,-1,l)
);
},
{
closed = 1;
nodes = (
(410,561,l),
(424,593,l),
(424,296,l),
(265,296,l)
);
}
);
width = 894;
},
{
anchors = (
{
name = bottom;
pos = (468,0);
},
{
name = top;
pos = (475,692);
}
);
layerId = "49C16FD3-6177-408B-A733-AEB3898BB77C";
shapes = (
{
closed = 1;
nodes = (
(70,1,l),
(195,234,l),
(422,234,l),
(422,1,l),
(842,1,l),
(842,41,l),
(464,41,l),
(464,344,l),
(720,344,l),
(720,384,l),
(464,384,l),
(464,645,l),
(822,645,l),
(822,685,l),
(395,685,l),
(18,1,l)
);
},
{
closed = 1;
nodes = (
(392,598,l),
(422,645,l),
(422,274,l),
(213,274,l)
);
}
);
width = 886;
}
);
metricLeft = "=A*.5";
userData = {
position = 422;
width = 61;
};
},
{
glyphname = B;
kernLeft = E;
kernRight = B;
layers = (
{
anchors = (
{
name = bottom;
pos = (316,0);
},
{
name = top;
pos = (316,684);
}
);
hints = (
{
name = _corner.caps_left;
origin = (0,22);
type = Corner;
}
);
layerId = "873CAA12-270D-4223-A88E-AE8E101FDBE8";
shapes = (
{
closed = 1;
nodes = (
(203,-5,ls),
(222,-7,o),
(278,-10,o),
(327,-10,cs),
(499,-10,o),
(605,47,o),
(605,181,cs),
(605,263,o),
(565,328,o),
(499,358,cs),
(486,364,o),
(481,364,o),
(467,368,c),
(493,376,o),
(494,378,o),
(497,379,cs),
(545,395,o),
(573,449,o),
(573,514,cs),
(573,625,o),
(484,695,o),
(371,695,cs),
(150,695,l),
(150,1,l)
);
},
{
closed = 1;
nodes = (
(324,45,o),
(264,45,o),
(210,50,c),
(210,639,l),
(385,639,l),
(460,635,o),
(513,595,o),
(513,515,cs),
(513,476,o),
(500,445,o),
(474,423,cs),
(449,402,o),
(412,390,o),
(370,390,cs),
(282,390,l),
(282,335,l),
(377,335,ls),
(469,335,o),
(545,281,o),
(545,183,cs),
(545,81,o),
(464,45,o),
(344,45,cs)
);
}
);
width = 662;
},
{
anchors = (
{
name = bottom;
pos = (329,0);
},
{
name = top;
pos = (329,684);
}
);
hints = (
{
name = _corner.caps_left;
origin = (0,22);
type = Corner;
}
);
layerId = "0CAF3BED-C4AC-4024-B3E1-4C69D1EF7EC0";
shapes = (
{
closed = 1;
nodes = (
(218,-5,ls),
(278,-12,o),
(333,-10,o),
(352,-10,cs),
(505,-10,o),
(619,50,o),
(619,188,cs),
(619,269,o),
(589,318,o),
(552,338,cs),
(521,355,o),
(490,364,o),
(474,364,c),
(488,367,o),
(499,370,o),
(509,375,cs),
(558,399,o),
(589,446,o),
(589,511,cs),
(589,620,o),
(499,697,o),
(382,697,cs),
(156,697,l),
(156,2,l)
);
},
{
closed = 1;
nodes = (
(338,66,o),
(307,66,o),
(238,71,c),
(238,621,l),
(395,621,ls),
(462,621,o),
(508,580,o),
(508,511,cs),
(508,475,o),
(497,450,o),
(474,430,cs),
(452,411,o),
(420,400,o),
(381,400,cs),
(295,399,l),
(294,325,l),
(388,325,ls),
(471,325,o),
(539,276,o),
(539,189,cs),
(539,99,o),
(468,66,o),
(356,66,cs)
);
}
);
width = 674;
},
{
anchors = (
{
name = bottom;
pos = (307,0);
},
{
name = top;
pos = (307,684);
}
);
hints = (
{
name = _corner.caps_left;
origin = (0,22);
type = Corner;
}
);
layerId = "49C16FD3-6177-408B-A733-AEB3898BB77C";
shapes = (
{
closed = 1;
nodes = (
(186,-4,ls),
(211,-7,o),
(266,-9,o),
(325,-9,cs),
(482,-9,o),
(586,46,o),
(586,180,cs),
(586,261,o),
(548,312,o),
(485,347,cs),
(468,356,o),
(449,362,o),
(424,366,c),
(451,369,o),
(469,375,o),
(483,385,cs),
(522,412,o),
(555,458,o),
(555,520,cs),
(555,626,o),
(471,696,o),
(357,696,cs),
(142,696,l),
(142,1,l)
);
},
{
closed = 1;
nodes = (
(306,30,o),
(303,31,o),
(184,35,c),
(184,657,l),
(371,657,l),
(447,653,o),
(511,609,o),
(511,520,cs),
(511,479,o),
(496,444,o),
(467,419,cs),
(441,397,o),
(400,384,o),
(356,384,cs),
(274,384,l),
(274,345,l),
(363,345,ls),
(460,345,o),
(543,284,o),
(543,181,cs),
(543,70,o),
(453,30,o),
(329,30,cs)
);
}
);
width = 647;
}
);
unicode = 66;
userData = {
position = 514;
width = 59;
};
},
{
glyphname = B.ss01;
kernLeft = L;
kernRight = B;
layers = (
{
anchors = (
{
name = bottom;
pos = (295,0);
},
{
name = top;
pos = (295,684);
}
);
layerId = "873CAA12-270D-4223-A88E-AE8E101FDBE8";
shapes = (
{
closed = 1;
nodes = (
(353,-10,o),
(388,-6,o),
(419,4,cs),
(509,33,o),
(553,106,o),
(553,185,cs),
(553,261,o),
(511,320,o),
(448,358,cs),
(443,361,o),
(437,363,o),
(416,368,c),
(439,375,o),
(444,378,o),
(446,379,cs),
(500,406,o),
(522,456,o),
(522,514,cs),
(522,629,o),
(431,695,o),
(320,695,cs),
(100,695,l),
(100,639,l),
(334,639,l),
(415,633,o),
(462,592,o),
(462,518,cs),
(462,433,o),
(401,390,o),
(319,390,cs),
(141,390,l),
(141,335,l),
(326,335,ls),
(435,335,o),
(493,270,o),
(493,185,cs),
(493,92,o),
(423,45,o),
(312,45,cs),
(299,45,o),
(267,46,o),
(160,50,c),
(160,652,l),
(100,652,l),
(100,1,l),
(152,-5,ls),
(196,-10,o),
(275,-10,o),
(302,-10,cs)
);
}
);
width = 609;
},
{
anchors = (
{
name = bottom;
pos = (298,0);
},
{
name = top;
pos = (298,684);
}
);
layerId = "0CAF3BED-C4AC-4024-B3E1-4C69D1EF7EC0";
shapes = (
{
closed = 1;
nodes = (
(356,-10,o),
(392,-6,o),
(423,4,cs),
(514,33,o),
(561,111,o),
(561,191,cs),
(561,268,o),
(526,320,o),
(465,357,cs),
(455,363,o),
(437,369,o),
(429,369,c),
(441,373,o),
(446,375,o),
(450,377,cs),
(506,405,o),
(531,451,o),
(531,510,cs),
(531,623,o),
(444,697,o),
(323,697,cs),
(97,697,l),
(97,619,l),
(336,619,l),
(409,614,o),
(449,578,o),
(449,514,cs),
(449,439,o),
(396,401,o),
(322,401,cs),
(137,401,l),
(137,324,l),
(329,324,ls),
(428,324,o),
(480,267,o),
(480,191,cs),
(480,109,o),
(418,66,o),
(316,66,cs),
(302,66,o),
(269,67,o),
(179,71,c),
(179,655,l),
(97,655,l),
(97,2,l),
(158,-5,ls),
(192,-9,o),
(277,-10,o),
(306,-10,cs)
);
}
);
width = 615;
},
{
anchors = (
{
name = bottom;
pos = (294,0);
},
{
name = top;
pos = (294,684);
}
);
layerId = "49C16FD3-6177-408B-A733-AEB3898BB77C";
shapes = (
{
closed = 1;
nodes = (
(351,-9,o),
(389,-5,o),
(420,5,cs),
(509,34,o),
(552,104,o),
(552,182,cs),
(552,256,o),
(513,319,o),
(447,352,c),
(440,357,o),
(429,358,o),
(386,369,c),
(433,381,o),
(443,386,o),
(447,389,cs),
(491,422,o),
(519,460,o),
(519,519,cs),
(519,635,o),
(429,696,o),
(321,696,cs),
(104,696,l),
(104,656,l),
(336,656,l),
(426,650,o),
(476,600,o),
(476,523,cs),
(476,432,o),
(407,384,o),
(320,384,cs),
(147,384,l),
(147,345,l),
(327,345,ls),
(444,345,o),
(509,272,o),
(509,182,cs),
(509,82,o),
(429,30,o),
(313,30,cs),
(298,30,o),
(271,31,o),
(149,34,c),
(149,664,l),
(104,664,l),
(105,3,l),
(151,-4,ls),
(188,-10,o),
(277,-9,o),
(303,-9,cs)
);
}
);
width = 612;
}
);
userData = {
position = 494;
width = 59;
};
},
{
glyphname = B.swsh;
kernLeft = E.swsh;
kernRight = B;
layers = (
{
hints = (
{
name = _corner.caps_swash;
origin = (0,18);
type = Corner;
}
);
layerId = "873CAA12-270D-4223-A88E-AE8E101FDBE8";
shapes = (
{
closed = 1;
nodes = (
(515,-14,o),
(608,48,o),
(608,181,cs),
(608,267,o),
(575,326,o),
(503,358,cs),
(500,359,o),
(494,362,o),
(471,368,c),
(492,374,o),
(495,376,o),
(501,379,cs),
(549,408,o),
(577,450,o),
(577,511,cs),
(577,632,o),
(481,687,o),
(375,687,cs),
(143,687,l),
(143,631,l),
(389,631,l),
(468,626,o),
(517,585,o),
(517,514,cs),
(517,429,o),
(456,390,o),
(374,390,cs),
(286,390,l),
(286,335,l),
(381,335,ls),
(471,335,o),
(549,284,o),
(549,185,cs),
(549,89,o),
(477,45,o),
(351,45,cs),
(336,45,o),
(283,49,o),
(224,50,c),
(224,582,l),
(164,582,l),
(164,1,l),
(217,-4,ls),
(246,-7,o),
(285,-9,o),
(331,-10,cs)
);
}
);
width = 664;
},
{
hints = (
{
name = _corner.caps_swash;
origin = (0,18);
type = Corner;
}
);
layerId = "0CAF3BED-C4AC-4024-B3E1-4C69D1EF7EC0";
shapes = (
{
closed = 1;
nodes = (
(543,-10,o),
(622,76,o),
(622,187,cs),
(622,254,o),
(594,306,o),
(555,335,cs),
(532,352,o),
(493,363,o),
(470,363,c),
(490,367,o),
(516,368,o),
(543,393,cs),
(574,421,o),
(591,458,o),
(591,506,cs),
(591,621,o),
(502,685,o),
(383,685,cs),
(147,685,l),
(147,609,l),
(396,609,ls),
(466,609,o),
(509,571,o),
(509,509,cs),
(509,434,o),
(456,401,o),
(382,401,cs),
(295,401,l),
(295,324,l),
(389,324,ls),
(470,324,o),
(540,278,o),
(540,191,cs),
(540,97,o),
(476,66,o),
(360,66,cs),
(341,66,o),
(330,67,o),
(248,71,c),
(248,561,l),
(166,561,l),
(166,2,l),
(229,-5,ls),
(253,-8,o),
(307,-10,o),
(354,-10,cs)
);
}
);
width = 676;
},
{
hints = (
{
name = _corner.caps_swash;
origin = (0,18);
type = Corner;
}
);
layerId = "49C16FD3-6177-408B-A733-AEB3898BB77C";
shapes = (
{
closed = 1;
nodes = (
(517,-9,o),
(611,47,o),
(611,178,cs),
(611,266,o),
(569,319,o),
(505,351,cs),
(497,355,o),
(466,362,o),
(451,365,c),
(482,370,o),
(500,380,o),
(502,381,cs),
(552,406,o),
(580,452,o),
(580,514,cs),
(580,620,o),
(489,685,o),
(382,685,cs),
(144,685,l),
(144,645,l),
(396,645,l),
(480,640,o),
(537,593,o),
(537,517,cs),
(537,425,o),
(467,383,o),
(381,383,cs),
(299,383,l),
(299,345,l),
(388,345,ls),
(483,345,o),
(569,289,o),
(569,182,cs),
(569,78,o),
(489,29,o),
(356,29,cs),
(338,29,o),
(293,31,o),
(217,34,c),
(217,591,l),
(175,591,l),
(175,1,l),
(221,-3,ls),
(279,-8,o),
(307,-9,o),
(336,-9,cs)
);
}
);
width = 672;
}
);
userData = {
position = 514;
width = 59;
};
},
{
glyphname = C;
kernLeft = O;
kernRight = C;
layers = (
{
anchors = (
{
name = bottom;
pos = (377,-8);
},
{
name = top;
pos = (377,700);
}
);
layerId = "873CAA12-270D-4223-A88E-AE8E101FDBE8";
shapes = (
{
attr = {
strokeHeight = 54;
strokeWidth = 60;
};
closed = 0;
nodes = (
(515,482,l),
(525,477,o),
(534,475,o),
(545,475,cs),
(583,474,o),
(608,513,o),
(608,553,cs),
(608,626,o),
(519,685,o),
(399,679,cs),
(222,670,o),
(87,529,o),
(87,330,cs),
(87,139,o),
(220,5,o),
(407,5,cs),
(504,5,o),
(597,56,o),
(643,133,c)
);
}
);
width = 714;
},
{
anchors = (
{
name = bottom;
pos = (390,-9);
},
{
name = top;
pos = (390,703);
}
);
layerId = "0CAF3BED-C4AC-4024-B3E1-4C69D1EF7EC0";
shapes = (
{
attr = {
strokeHeight = 74;
strokeWidth = 80;
};
closed = 0;
nodes = (
(515,476,l),
(525,471,o),
(534,469,o),
(544,469,cs),
(582,468,o),
(606,505,o),
(606,544,cs),
(606,613,o),
(519,670,o),
(401,664,cs),
(228,655,o),
(96,521,o),
(96,331,cs),
(96,148,o),
(226,20,o),
(409,20,cs),
(504,20,o),
(595,69,o),
(640,142,c)
);
}
);
width = 723;
},
{
anchors = (
{
name = bottom;
pos = (390,-29);
},
{
name = top;
pos = (390,723);
}
);
background = {
shapes = (
{
closed = 1;
nodes = (
(510,-22,o),
(613,20,o),
(682,118,c),
(653,140,l),
(599,65,o),
(506,18,o),
(407,18,cs),
(232,18,o),
(108,167,o),
(108,335,cs),
(108,508,o),
(241,665,o),
(411,665,cs),
(494,665,o),
(601,637,o),
(601,558,cs),
(601,531,o),
(588,510,o),
(565,510,cs),
(557,510,o),
(542,515,o),
(535,522,c),
(510,490,l),
(521,480,o),
(546,472,o),
(562,472,cs),
(609,472,o),
(641,510,o),
(641,562,cs),
(641,661,o),
(523,706,o),
(419,706,cs),
(217,706,o),
(66,535,o),
(66,335,cs),
(66,140,o),
(210,-22,o),
(408,-22,cs)
);
}
);
};
layerId = "49C16FD3-6177-408B-A733-AEB3898BB77C";
shapes = (
{
attr = {
strokeHeight = 38;
strokeWidth = 42;
};
closed = 0;
nodes = (
(518,484,l),
(528,479,o),
(538,477,o),
(549,477,cs),
(587,476,o),
(613,516,o),
(613,556,cs),
(613,630,o),
(519,690,o),
(395,684,cs),
(218,675,o),
(84,532,o),
(84,330,cs),
(84,136,o),
(219,0,o),
(409,0,cs),
(507,0,o),
(602,52,o),
(648,130,c)
);
}
);
width = 726;
},
{
anchors = (
{
name = bottom;
pos = (384,-29);
},
{
name = top;
pos = (384,723);
}
);
associatedMasterId = "49C16FD3-6177-408B-A733-AEB3898BB77C";
layerId = "9A6A7639-79A9-4EC5-AE88-1E69E535A513";
name = "3 Jan 22, 15:02";
shapes = (
{
closed = 1;
nodes = (
(504,-22,o),
(607,20,o),
(676,118,c),
(647,140,l),
(593,65,o),
(500,18,o),
(401,18,cs),
(226,18,o),
(102,167,o),
(102,335,cs),
(102,508,o),
(235,665,o),
(405,665,cs),
(488,665,o),
(595,637,o),
(595,558,cs),
(595,531,o),
(582,510,o),
(559,510,cs),
(551,510,o),
(536,515,o),
(529,522,c),
(504,490,l),
(515,480,o),
(540,472,o),
(556,472,cs),
(603,472,o),
(635,510,o),
(635,562,cs),
(635,661,o),
(517,706,o),
(413,706,cs),
(211,706,o),
(60,535,o),
(60,335,cs),
(60,140,o),
(204,-22,o),
(402,-22,cs)
);
}
);
width = 720;
},
{
anchors = (
{
name = bottom;
pos = (378,-21);
},
{
name = top;
pos = (378,713);
}
);
associatedMasterId = "873CAA12-270D-4223-A88E-AE8E101FDBE8";
layerId = "15FC93EE-0B6A-4FF9-9488-60D43486AADB";
name = "3 Jan 22, 15:14";
shapes = (
{
closed = 1;
nodes = (
(503,-23,o),
(608,25,o),
(675,124,c),
(632,156,l),
(581,81,o),
(493,34,o),
(396,34,cs),
(228,34,o),
(116,169,o),
(116,332,cs),
(116,502,o),
(236,650,o),
(402,650,cs),
(473,650,o),
(577,618,o),
(577,557,cs),
(577,534,o),
(563,518,o),
(546,518,cs),
(538,518,o),
(531,521,o),
(523,526,c),
(488,482,l),
(504,470,o),
(524,462,o),
(545,462,cs),
(595,462,o),
(638,504,o),
(638,556,cs),
(638,657,o),
(514,707,o),
(401,707,cs),
(208,707,o),
(56,535,o),
(56,332,cs),
(56,138,o),
(198,-23,o),
(395,-23,cs)
);
}
);
width = 715;
},
{
anchors = (
{
name = bottom;
pos = (387,-9);
},
{
name = top;
pos = (387,703);
}
);
associatedMasterId = "0CAF3BED-C4AC-4024-B3E1-4C69D1EF7EC0";
layerId = "354B442F-650F-4F84-82F8-D7A6B1A052DE";
name = "3 Jan 22, 15:22";
shapes = (
{
closed = 1;
nodes = (
(533,-19,o),
(637,45,o),
(684,146,c),
(621,178,l),
(587,103,o),
(498,52,o),
(401,52,cs),
(250,52,o),
(135,178,o),
(135,340,cs),
(135,509,o),
(259,632,o),
(399,632,cs),
(458,632,o),
(562,610,o),
(562,547,cs),
(562,530,o),
(554,517,o),
(538,517,cs),
(526,517,o),
(513,525,o),
(506,534,c),
(465,482,l),
(482,459,o),
(508,445,o),
(538,445,cs),
(591,445,o),
(637,490,o),
(637,551,cs),
(637,642,o),
(532,706,o),
(404,706,cs),
(197,706,o),
(53,539,o),
(53,341,cs),
(53,147,o),
(190,-26,o),
(404,-22,cs)
);
}
);
width = 720;
}
);
metricLeft = O;
unicode = 67;
userData = {
position = 570;
width = 54;
};
},
{
glyphname = C.ss01;
kernLeft = O;
kernRight = C;
layers = (
{
anchors = (
{
name = bottom;
pos = (377,-18);
},
{
name = top;
pos = (377,711);
}
);
layerId = "873CAA12-270D-4223-A88E-AE8E101FDBE8";
shapes = (
{
attr = {
strokeHeight = 54;
strokeWidth = 60;
};
closed = 0;
nodes = (
(619,534,ls),
(614,622,o),
(520,686,o),
(400,680,cs),
(223,671,o),
(88,529,o),
(88,330,cs),
(88,139,o),
(221,5,o),
(408,5,cs),
(505,5,o),
(598,56,o),
(644,133,c)
);
}
);
width = 712;
},
{
anchors = (
{
name = bottom;
pos = (376,-7);
},
{
name = top;
pos = (376,701);
}
);
layerId = "0CAF3BED-C4AC-4024-B3E1-4C69D1EF7EC0";
shapes = (
{
attr = {
strokeHeight = 74;
strokeWidth = 80;
};
closed = 0;
nodes = (
(614,525,ls),
(609,610,o),
(516,671,o),
(399,665,cs),
(226,656,o),
(94,521,o),
(94,331,cs),
(94,148,o),
(224,20,o),
(407,20,cs),
(502,20,o),
(593,68,o),
(638,142,c)
);
}
);
width = 716;
},
{
anchors = (
{
name = bottom;
pos = (387,-27);
},
{
name = top;
pos = (387,721);
}
);
layerId = "49C16FD3-6177-408B-A733-AEB3898BB77C";
shapes = (
{
attr = {
strokeHeight = 38;
strokeWidth = 42;
};
closed = 0;
nodes = (
(623,537,l),
(618,626,o),
(520,691,o),
(396,685,cs),
(219,676,o),
(84,532,o),
(84,330,cs),
(84,136,o),
(219,0,o),
(409,0,cs),
(507,0,o),
(602,52,o),
(648,130,c)
);
}
);
width = 712;
},
{
anchors = (
{
name = bottom;
pos = (381,-27);
},
{
name = top;
pos = (381,721);
}
);
associatedMasterId = "49C16FD3-6177-408B-A733-AEB3898BB77C";
layerId = "5C147D22-45CB-49AC-8F59-80A6CB628E42";
name = "3 Jan 22, 15:09";
shapes = (
{
closed = 1;
nodes = (
(508,-20,o),
(606,31,o),
(666,119,c),
(632,142,l),
(580,65,o),
(492,20,o),
(396,20,cs),
(225,20,o),
(103,159,o),
(103,331,cs),
(103,497,o),
(224,669,o),
(406,669,cs),
(505,669,o),
(586,618,o),
(592,552,c),
(633,552,l),
(626,645,o),
(535,709,o),
(411,709,cs),
(207,709,o),
(61,535,o),
(61,334,cs),
(61,132,o),
(201,-20,o),
(397,-20,cs)
);
}
);
width = 706;
},
{
anchors = (
{
name = bottom;
pos = (377,-18);
},
{
name = top;
pos = (377,711);
}
);
associatedMasterId = "873CAA12-270D-4223-A88E-AE8E101FDBE8";
layerId = "9213DAB1-C864-45AE-B348-221432866101";
name = "3 Jan 22, 15:15";
shapes = (
{
closed = 1;
nodes = (
(505,-17,o),
(607,39,o),
(667,132,c),
(618,166,l),
(571,90,o),
(486,44,o),
(394,44,cs),
(230,44,o),
(115,168,o),
(115,323,cs),
(115,492,o),
(237,645,o),
(392,645,cs),
(496,645,o),
(569,599,o),
(572,531,c),
(632,531,l),
(628,635,o),
(534,705,o),
(397,705,cs),
(208,705,o),
(55,533,o),
(55,326,cs),
(55,133,o),
(197,-17,o),
(393,-17,cs)
);
}
);
width = 712;
},
{
anchors = (
{
name = bottom;
pos = (376,-7);
},
{
name = top;
pos = (376,701);
}
);
associatedMasterId = "0CAF3BED-C4AC-4024-B3E1-4C69D1EF7EC0";
layerId = "F3AD09C8-78E5-4679-83B5-5B942013D0D4";
name = "3 Jan 22, 15:21";
shapes = (
{
closed = 1;
nodes = (
(512,-17,o),
(616,40,o),
(678,139,c),
(615,182,l),
(568,104,o),
(488,59,o),
(393,59,cs),
(240,59,o),
(133,176,o),
(133,324,cs),
(133,494,o),
(248,631,o),
(391,631,cs),
(491,631,o),
(569,582,o),
(566,520,c),
(645,520,l),
(647,628,o),
(542,707,o),
(396,707,cs),
(207,707,o),
(53,538,o),
(53,327,cs),
(53,132,o),
(197,-17,o),
(392,-17,cs)
);
}
);
width = 716;
}
);
metricLeft = O;
userData = {
position = 570;
width = 54;
};
},
{
glyphname = C.swsh;
kernLeft = O;
kernRight = C;
layers = (
{
anchors = (
{
name = bottom;
pos = (401,0);
},
{
name = top;
pos = (392,684);
}
);
layerId = "873CAA12-270D-4223-A88E-AE8E101FDBE8";
shapes = (
{
attr = {
strokeHeight = 54;
strokeWidth = 60;
};
closed = 0;
nodes = (
(481,524,l),
(487,496,o),
(512,476,o),
(545,475,cs),
(583,474,o),
(608,513,o),
(608,553,cs),
(608,626,o),
(519,685,o),
(399,679,cs),
(222,670,o),
(87,529,o),
(87,330,cs),
(87,139,o),
(220,5,o),
(407,5,cs),
(504,5,o),
(597,56,o),
(643,133,c)
);
}
);
width = 720;
},
{
anchors = (
{
name = bottom;
pos = (377,31);
},
{
name = top;
pos = (377,662);
}
);
layerId = "0CAF3BED-C4AC-4024-B3E1-4C69D1EF7EC0";
shapes = (
{
attr = {
strokeHeight = 74;
strokeWidth = 80;
};
closed = 0;
nodes = (
(482,519,l),
(487,492,o),
(511,472,o),
(540,471,cs),
(583,470,o),
(608,508,o),
(608,546,cs),
(608,617,o),
(519,674,o),
(398,669,cs),
(224,660,o),
(90,523,o),
(90,334,cs),
(90,145,o),
(222,15,o),
(396,15,cs),
(501,15,o),
(596,63,o),
(642,140,c)
);
}
);
width = 720;
},
{
anchors = (
{
name = bottom;
pos = (377,0);
},
{
name = top;
pos = (389,684);
}
);
layerId = "49C16FD3-6177-408B-A733-AEB3898BB77C";
shapes = (
{
attr = {
strokeHeight = 38;
strokeWidth = 42;
};
closed = 0;
nodes = (
(484,527,l),
(490,498,o),
(515,478,o),
(549,477,cs),
(587,476,o),
(613,516,o),
(613,556,cs),
(613,630,o),
(520,690,o),
(396,684,cs),
(219,675,o),
(84,532,o),
(84,330,cs),
(84,136,o),
(219,0,o),
(409,0,cs),
(507,0,o),
(602,52,o),
(648,130,c)
);
}
);
width = 724;
},
{
anchors = (
{
name = bottom;
pos = (371,0);
},
{
name = top;
pos = (383,684);
}
);
associatedMasterId = "49C16FD3-6177-408B-A733-AEB3898BB77C";
layerId = "3D02E95B-60B1-4244-8F26-D84725EF13C9";
name = "3 Jan 22, 15:07";
shapes = (
{
closed = 1;
nodes = (
(507,-21,o),
(630,33,o),
(680,140,c),
(641,157,l),
(608,85,o),
(527,18,o),
(390,19,cs),
(248,20,o),
(102,149,o),
(102,343,cs),
(102,508,o),
(234,657,o),
(394,657,cs),
(475,657,o),
(572,621,o),
(572,548,cs),
(572,521,o),
(556,500,o),
(532,500,cs),
(519,500,o),
(502,510,o),
(495,523,c),
(459,501,l),
(477,471,o),
(504,458,o),
(531,458,cs),
(573,458,o),
(614,492,o),
(614,546,cs),
(614,639,o),
(506,697,o),
(395,697,cs),
(211,697,o),
(60,536,o),
(60,344,cs),
(60,159,o),
(191,-21,o),
(391,-21,cs)
);
}
);
width = 718;
},
{
anchors = (
{
name = bottom;
pos = (402,0);
},
{
name = top;
pos = (393,684);
}
);
associatedMasterId = "873CAA12-270D-4223-A88E-AE8E101FDBE8";
layerId = "4600BD47-3F69-4DB6-A8A0-B943C0F8AB97";
name = "3 Jan 22, 15:16";
shapes = (
{
closed = 1;
nodes = (
(514,-22,o),
(637,36,o),
(688,145,c),
(637,168,l),
(600,85,o),
(503,32,o),
(401,32,cs),
(234,32,o),
(116,172,o),
(116,347,cs),
(116,504,o),
(238,652,o),
(392,652,cs),
(467,652,o),
(568,619,o),
(568,551,cs),
(568,527,o),
(553,508,o),
(534,508,cs),
(521,508,o),
(514,514,o),
(502,527,c),
(455,499,l),
(470,474,o),
(500,453,o),
(535,453,cs),
(584,453,o),
(622,496,o),
(622,550,cs),
(622,648,o),
(511,705,o),
(400,707,cs),
(206,710,o),
(56,534,o),
(56,348,cs),
(56,144,o),
(195,-22,o),
(402,-22,cs)
);
},
{
attr = {
strokeHeight = 38;
strokeWidth = 42;
};
closed = 0;
nodes = (
(484,527,l),
(490,498,o),
(515,478,o),
(549,477,cs),
(587,476,o),
(613,516,o),
(613,556,cs),
(613,630,o),
(522,690,o),
(401,684,cs),
(221,675,o),
(84,532,o),
(84,330,cs),
(84,136,o),
(219,0,o),
(409,0,cs),
(507,0,o),
(602,52,o),
(648,130,c)
);
}
);
width = 721;
},
{
anchors = (
{
name = bottom;
pos = (378,-9);
},
{
name = top;
pos = (378,703);
}
);
associatedMasterId = "0CAF3BED-C4AC-4024-B3E1-4C69D1EF7EC0";
layerId = "430F94E4-6E0B-477D-BEA9-4D1159DC2E2A";
name = "3 Jan 22, 15:17";
shapes = (
{
closed = 1;
nodes = (
(505,-16,o),
(621,32,o),
(687,139,c),
(620,184,l),
(574,106,o),
(489,60,o),
(395,60,cs),
(243,60,o),
(133,184,o),
(133,337,cs),
(133,493,o),
(251,630,o),
(401,630,cs),
(464,630,o),
(558,604,o),
(558,552,cs),
(558,539,o),
(548,528,o),
(537,528,cs),
(530,528,o),
(520,532,o),
(515,539,c),
(467,478,l),
(485,460,o),
(513,447,o),
(543,447,cs),
(594,447,o),
(638,494,o),
(638,551,cs),
(638,661,o),
(511,706,o),
(400,706,cs),
(207,706,o),
(53,536,o),
(53,337,cs),
(53,141,o),
(200,-16,o),
(394,-16,cs)
);
}
);
width = 720;
}
);
metricLeft = O;
userData = {
position = 570;
width = 54;
};
},
{
glyphname = D;
kernLeft = E;
kernRight = O;
layers = (
{
anchors = (
{
name = bottom;
pos = (396,0);
},
{
name = center;
pos = (213,367);
},
{
name = top;
pos = (414,684);
}
);
hints = (
{
name = _corner.caps_left;
origin = (0,6);
type = Corner;
}
);
layerId = "873CAA12-270D-4223-A88E-AE8E101FDBE8";
shapes = (
{
closed = 1;
nodes = (
(595,-8,o),
(730,109,o),
(730,339,cs),
(730,540,o),
(599,685,o),
(413,689,c),
(150,690,l),
(150,0,l),
(197,-5,ls),
(216,-6,o),
(296,-8,o),
(330,-8,cs)
);
},
{
closed = 1;
nodes = (
(297,48,o),
(235,52,o),
(210,53,c),
(210,633,l),
(403,633,l),
(563,633,o),
(670,515,o),
(670,338,cs),
(670,149,o),
(552,48,o),
(332,48,cs)
);
}
);
width = 787;
},
{
anchors = (
{
name = bottom;
pos = (406,0);
},
{
name = center;
pos = (239,367);
},
{
name = top;
pos = (424,675);
}
);
hints = (
{
name = _corner.caps_left;
origin = (0,6);
type = Corner;
}
);
layerId = "0CAF3BED-C4AC-4024-B3E1-4C69D1EF7EC0";
shapes = (
{
closed = 1;
nodes = (
(614,-9,o),
(742,106,o),
(742,342,cs),
(742,544,o),
(614,684,o),
(423,691,c),
(156,692,l),
(156,1,l),
(213,-5,ls),
(232,-6,o),
(328,-9,o),
(352,-9,cs)
);
},
{
closed = 1;
nodes = (
(331,66,o),
(266,69,o),
(238,71,c),
(238,615,l),
(412,615,l),
(564,615,o),
(660,509,o),
(660,342,cs),
(660,159,o),
(560,66,o),
(365,66,cs)
);
}
);
width = 797;
},
{
anchors = (
{
name = bottom;
pos = (390,0);
},
{
name = center;
pos = (186,367);
},
{
name = top;
pos = (403,694);
}
);
hints = (
{
name = _corner.caps_left;
origin = (0,6);
type = Corner;
}
);
layerId = "49C16FD3-6177-408B-A733-AEB3898BB77C";
shapes = (
{
closed = 1;
nodes = (
(577,-8,o),
(717,100,o),
(717,331,cs),
(717,535,o),
(586,684,o),
(402,690,c),
(142,691,l),
(142,0,l),
(181,-4,ls),
(211,-6,o),
(250,-8,o),
(277,-8,cs)
);
},
{
closed = 1;
nodes = (
(251,32,o),
(227,33,o),
(184,36,c),
(184,650,l),
(392,650,l),
(569,638,o),
(675,520,o),
(675,333,cs),
(675,132,o),
(549,32,o),
(295,32,cs)
);
}
);
width = 779;
}
);
unicode = 68;
userData = {
position = 674;
width = 60;
};
},
{
glyphname = D.ss01;
kernLeft = L;
kernRight = O;
layers = (
{
anchors = (
{
name = bottom;
pos = (376,0);
},
{
name = center;
pos = (155,341);
},
{
name = top;
pos = (378,689);
}
);
layerId = "873CAA12-270D-4223-A88E-AE8E101FDBE8";
shapes = (
{
closed = 1;
nodes = (
(338,-10,ls),
(541,-10,o),
(680,132,o),
(680,341,cs),
(680,538,o),
(553,677,o),
(363,689,c),
(100,690,l),
(100,633,l),
(353,633,l),
(520,624,o),
(620,514,o),
(620,338,cs),
(620,150,o),
(506,45,o),
(300,45,cs),
(260,45,o),
(190,49,o),
(160,50,c),
(160,655,l),
(100,655,l),
(100,0,l),
(147,-4,ls),
(230,-11,o),
(233,-10,o),
(281,-10,cs)
);
}
);
width = 737;
},
{
anchors = (
{
name = bottom;
pos = (349,-10);
},
{
name = center;
pos = (179,367);
},
{
name = top;
pos = (379,691);
}
);
layerId = "0CAF3BED-C4AC-4024-B3E1-4C69D1EF7EC0";
shapes = (
{
closed = 1;
nodes = (
(334,-10,ls),
(538,-10,o),
(682,136,o),
(682,342,cs),
(682,537,o),
(553,679,o),
(364,691,c),
(97,692,l),
(97,615,l),
(353,615,l),
(507,607,o),
(600,504,o),
(600,339,cs),
(600,163,o),
(494,65,o),
(302,65,cs),
(269,65,o),
(218,67,o),
(179,70,c),
(179,658,l),
(97,658,l),
(97,1,l),
(153,-4,ls),
(231,-11,o),
(241,-10,o),
(284,-10,cs)
);
}
);
width = 735;
},
{
anchors = (
{
name = bottom;
pos = (285,-10);
},
{
name = center;
pos = (125,357);
},
{
name = top;
pos = (380,690);
}
);
layerId = "49C16FD3-6177-408B-A733-AEB3898BB77C";
shapes = (
{
closed = 1;
nodes = (
(344,-9,ls),
(547,-9,o),
(682,131,o),
(682,342,cs),
(682,541,o),
(557,678,o),
(365,690,c),
(105,691,l),
(105,651,l),
(356,651,l),
(532,641,o),
(639,523,o),
(639,339,cs),
(639,143,o),
(516,30,o),
(301,30,cs),
(256,30,o),
(167,35,o),
(147,35,c),
(147,655,l),
(105,655,l),
(105,0,l),
(146,-3,ls),
(214,-8,o),
(227,-9,o),
(282,-9,cs)
);
}
);
width = 744;
}
);
userData = {
position = 674;
width = 60;
};
},
{
glyphname = D.swsh;
kernLeft = Swash;
kernRight = O;
layers = (
{
anchors = (
{
name = bottom;
pos = (407,0);
},
{
name = center;
pos = (428,0);
},
{
name = top;
pos = (428,0);
}
);
hints = (
{
name = _corner.caps_swash;
origin = (0,7);
type = Corner;
}
);
layerId = "873CAA12-270D-4223-A88E-AE8E101FDBE8";
shapes = (
{
closed = 1;
nodes = (
(397,-10,ls),
(602,-10,o),
(744,136,o),
(744,341,cs),
(744,533,o),
(620,689,o),
(427,689,c),
(143,690,l),
(143,634,l),
(417,634,l),
(573,634,o),
(684,524,o),
(684,336,cs),
(684,157,o),
(583,45,o),
(357,45,cs),
(320,45,o),
(268,48,o),
(224,50,c),
(224,565,l),
(164,565,l),
(164,0,l),
(211,-4,ls),
(294,-11,o),
(297,-10,o),
(345,-10,cs)
);
}
);
width = 800;
},
{
anchors = (
{
name = bottom;
pos = (409,0);
},
{
name = center;
pos = (434,11);
},
{
name = top;
pos = (434,11);
}
);
hints = (
{
name = _corner.caps_swash;
origin = (0,7);
type = Corner;
}
);
layerId = "0CAF3BED-C4AC-4024-B3E1-4C69D1EF7EC0";
shapes = (
{
closed = 1;
nodes = (
(403,-10,ls),
(607,-10,o),
(752,138,o),
(752,342,cs),
(752,532,o),
(625,678,o),
(433,690,c),
(147,691,l),
(147,615,l),
(422,615,l),
(567,606,o),
(670,517,o),
(670,342,cs),
(670,175,o),
(577,66,o),
(365,66,cs),
(332,66,o),
(290,69,o),
(248,71,c),
(248,559,l),
(166,559,l),
(166,1,l),
(223,-4,ls),
(304,-11,o),
(303,-10,o),
(353,-10,cs)
);
}
);
width = 805;
},
{
anchors = (
{
name = bottom;
pos = (418,0);
},
{
name = center;
pos = (436,-8);
},
{
name = top;
pos = (436,-8);
}
);
hints = (
{
name = _corner.caps_swash;
origin = (0,7);
type = Corner;
}
);
layerId = "49C16FD3-6177-408B-A733-AEB3898BB77C";
shapes = (
{
closed = 1;
nodes = (
(415,-9,ls),
(603,-9,o),
(752,122,o),
(752,342,cs),
(752,535,o),
(637,690,o),
(435,690,c),
(144,691,l),
(144,651,l),
(425,651,l),
(588,651,o),
(710,535,o),
(710,349,cs),
(710,161,o),
(601,30,o),
(387,30,cs),
(361,30,o),
(291,32,o),
(216,35,c),
(216,573,l),
(174,573,l),
(174,0,l),
(214,-3,ls),
(292,-8,o),
(304,-9,o),
(351,-9,cs)
);
}
);
width = 814;
}
);
userData = {
position = 674;
width = 60;
};
},
{
glyphname = E;
kernLeft = E;
kernRight = E;
layers = (
{
anchors = (
{
name = bottom;
pos = (380,0);
},
{
name = ogonek;
pos = (588,0);
},
{
name = top;
pos = (369,684);
},
{
name = topleft;
pos = (32,684);
}
);
background = {
shapes = (
{
closed = 1;
nodes = (
(598,0,l),
(598,56,l),
(210,56,l),
(210,334,l),
(478,334,l),
(478,390,l),
(210,390,l),
(210,628,l),
(598,628,l),
(598,684,l),
(137,684,ls),
(107,684,o),
(83,671,o),
(64,652,cs),
(45,633,o),
(34,608,o),
(34,579,c),
(90,579,l),
(90,592,o),
(96,606,o),
(104,614,cs),
(114,624,o),
(124,628,o),
(150,628,c),
(150,0,l)
);
}
);
};
hints = (
{
name = _corner.caps_left;
origin = (0,10);
type = Corner;
}
);
layerId = "873CAA12-270D-4223-A88E-AE8E101FDBE8";
shapes = (
{
closed = 1;
nodes = (
(588,0,l),
(588,56,l),
(210,56,l),
(210,334,l),
(468,334,l),
(468,390,l),
(210,390,l),
(210,628,l),
(588,628,l),
(588,684,l),
(150,684,l),
(150,0,l)
);
}
);
width = 634;
},
{
anchors = (
{
name = bottom;
pos = (391,11);
},
{
name = ogonek;
pos = (604,-1);
},
{
name = top;
pos = (381,684);
},
{
name = topleft;
pos = (40,684);
}
);
hints = (
{
name = _corner.caps_left;
origin = (0,10);
type = Corner;
}
);
layerId = "0CAF3BED-C4AC-4024-B3E1-4C69D1EF7EC0";
shapes = (
{
closed = 1;
nodes = (
(604,-1,l),
(604,75,l),
(238,75,l),
(238,325,l),
(488,325,l),
(488,401,l),
(238,401,l),
(238,610,l),
(604,610,l),
(604,686,l),
(156,686,l),
(156,-1,l)
);
}
);
width = 651;
},
{
anchors = (
{
name = bottom;
pos = (369,-8);
},
{
name = ogonek;
pos = (571,1);
},
{
name = top;
pos = (358,693);
},
{
name = topleft;
pos = (40,684);
}
);
hints = (
{
name = _corner.caps_left;
origin = (0,10);
type = Corner;
}
);
layerId = "49C16FD3-6177-408B-A733-AEB3898BB77C";
shapes = (
{
closed = 1;
nodes = (
(571,1,l),
(571,41,l),
(185,41,l),
(185,344,l),
(448,344,l),
(448,384,l),
(185,384,l),
(185,645,l),
(571,645,l),
(571,685,l),
(143,684,l),
(143,1,l)
);
}
);
width = 619;
}
);
unicode = 69;
userData = {
position = 130;
width = 61;
};
},
{
glyphname = E.ss01;
kernLeft = L;
kernRight = E;
layers = (
{
anchors = (
{
name = bottom;
pos = (348,0);
},
{
name = ogonek;
pos = (558,0);
},
{
name = top;
pos = (343,684);
},
{
name = topleft;
pos = (34,684);
}
);
layerId = "873CAA12-270D-4223-A88E-AE8E101FDBE8";
shapes = (
{
closed = 1;
nodes = (
(558,0,l),
(558,56,l),
(159,56,l),
(159,334,l),
(438,334,l),
(438,390,l),
(159,390,l),
(159,628,l),
(538,628,l),
(538,684,l),
(99,684,l),
(99,0,l)
);
}
);
width = 599;
},
{
anchors = (
{
name = bottom;
pos = (333,0);
},
{
name = ogonek;
pos = (564,-1);
},
{
name = top;
pos = (335,685);
},
{
name = topleft;
pos = (31,684);
}
);
layerId = "0CAF3BED-C4AC-4024-B3E1-4C69D1EF7EC0";
shapes = (
{
closed = 1;
nodes = (
(564,-1,l),
(564,75,l),
(177,75,l),
(177,325,l),
(448,325,l),
(448,401,l),
(177,401,l),
(177,610,l),
(545,610,l),
(545,686,l),
(97,686,l),
(97,-1,l)
);
}
);
width = 607;
},
{
anchors = (
{
name = bottom;
pos = (301,-7);
},
{
name = ogonek;
pos = (556,1);
},
{
name = top;
pos = (348,687);
},
{
name = topleft;
pos = (38,684);
}
);
layerId = "49C16FD3-6177-408B-A733-AEB3898BB77C";
shapes = (
{
closed = 1;
nodes = (
(556,1,l),
(556,41,l),
(146,41,l),
(146,344,l),
(433,344,l),
(433,384,l),
(146,384,l),
(146,645,l),
(536,645,l),
(536,685,l),
(104,685,l),
(104,1,l)
);
}
);
width = 600;
}
);
userData = {
position = 95;
width = 61;
};
},
{
glyphname = E.swsh;
kernLeft = Swash;
kernRight = E;
layers = (
{
anchors = (
{
name = bottom;
pos = (350,0);
},
{
name = ogonek;
pos = (604,0);
},
{
name = top;
pos = (350,0);
},
{
name = topleft;
pos = (33,684);
}
);
hints = (
{
name = _corner.caps_swash;
origin = (1,3);
type = Corner;
}
);
layerId = "873CAA12-270D-4223-A88E-AE8E101FDBE8";
shapes = (
{
closed = 1;
nodes = (
(594,0,l),
(594,56,l),
(216,56,l),
(216,334,l),
(474,334,l),
(474,390,l),
(216,390,l),
(216,572,l),
(156,572,l),
(156,0,l)
);
},
{
closed = 1;
nodes = (
(143,628,l),
(594,628,l),
(594,684,l),
(143,684,l)
);
}
);
width = 640;
},
{
anchors = (
{
name = bottom;
pos = (367,11);
},
{
name = ogonek;
pos = (625,-1);
},
{
name = top;
pos = (367,11);
},
{
name = topleft;
pos = (38,684);
}
);
hints = (
{
name = _corner.caps_swash;
origin = (1,3);
type = Corner;
}
);
layerId = "0CAF3BED-C4AC-4024-B3E1-4C69D1EF7EC0";
shapes = (
{
closed = 1;
nodes = (
(615,0,l),
(615,76,l),
(249,76,l),
(249,325,l),
(499,325,l),
(499,401,l),
(249,401,l),
(249,559,l),
(167,559,l),
(167,0,l)
);
},
{
closed = 1;
nodes = (
(147,609,l),
(615,609,l),
(615,685,l),
(147,685,l)
);
}
);
width = 663;
},
{
anchors = (
{
name = bottom;
pos = (363,-15);
},
{
name = ogonek;
pos = (607,1);
},
{
name = top;
pos = (363,-15);
},
{
name = topleft;
pos = (56,684);
}
);
hints = (
{
name = _corner.caps_swash;
origin = (1,3);
type = Corner;
}
);
layerId = "49C16FD3-6177-408B-A733-AEB3898BB77C";
shapes = (
{
closed = 1;
nodes = (
(597,0,l),
(597,40,l),
(208,40,l),
(208,344,l),
(474,344,l),
(474,384,l),
(208,384,l),
(208,570,l),
(166,570,l),
(166,0,l)
);
},
{
closed = 1;
nodes = (
(144,644,l),
(597,644,l),
(597,684,l),
(144,684,l)
);
}
);
width = 644;
}
);
userData = {
position = 130;
width = 61;
};
},
{
glyphname = F;
kernLeft = E;
kernRight = F;
layers = (
{
anchors = (
{
name = bottom;
pos = (317,0);
},
{
name = top;
pos = (317,684);
}
);
hints = (
{
name = _corner.caps_left;
origin = (0,8);
type = Corner;
}
);
layerId = "873CAA12-270D-4223-A88E-AE8E101FDBE8";
shapes = (
{
closed = 1;
nodes = (
(210,-1,l),
(210,333,l),
(468,333,l),
(468,389,l),
(210,389,l),
(210,627,l),
(588,627,l),
(588,683,l),
(150,683,l),
(150,-1,l)
);
}
);
width = 622;
},
{
anchors = (
{
name = bottom;
pos = (330,0);
},
{
name = top;
pos = (330,684);
}
);
hints = (
{
name = _corner.caps_left;
origin = (0,8);
type = Corner;
}
);
layerId = "0CAF3BED-C4AC-4024-B3E1-4C69D1EF7EC0";
shapes = (
{
closed = 1;
nodes = (
(238,-1,l),
(238,323,l),
(488,323,l),
(488,400,l),
(238,400,l),
(238,609,l),
(604,609,l),
(604,685,l),
(155,685,l),
(156,-1,l)
);
}
);
width = 638;
},
{
anchors = (
{
name = bottom;
pos = (302,0);
},
{
name = top;
pos = (302,684);
}
);
hints = (
{
name = _corner.caps_left;
origin = (0,8);
type = Corner;
}
);
layerId = "49C16FD3-6177-408B-A733-AEB3898BB77C";
shapes = (
{
closed = 1;
nodes = (
(184,0,l),
(184,343,l),
(450,343,l),
(450,383,l),
(184,383,l),
(184,644,l),
(572,644,l),
(572,684,l),
(142,684,l),
(142,0,l)
);
}
);
width = 609;
}
);
unicode = 70;
userData = {
position = 129;
width = 61;
};
},
{
glyphname = F.ss01;
kernLeft = L;
kernRight = F;
layers = (
{
anchors = (
{
name = bottom;
pos = (292,0);
},
{
name = top;
pos = (292,684);
}
);
layerId = "873CAA12-270D-4223-A88E-AE8E101FDBE8";
shapes = (
{
closed = 1;
nodes = (
(160,0,l),
(160,325,l),
(447,325,l),
(447,382,l),
(160,382,l),
(160,627,l),
(537,627,l),
(537,684,l),
(99,684,l),
(99,0,l)
);
}
);
width = 571;
},
{
anchors = (
{
name = bottom;
pos = (296,0);
},
{
name = top;
pos = (296,684);
}
);
layerId = "0CAF3BED-C4AC-4024-B3E1-4C69D1EF7EC0";
shapes = (
{
closed = 1;
nodes = (
(179,-1,l),
(179,315,l),
(457,315,l),
(457,393,l),
(179,393,l),
(179,608,l),
(545,608,l),
(545,686,l),
(97,686,l),
(97,-1,l)
);
}
);
width = 579;
},
{
anchors = (
{
name = bottom;
pos = (284,0);
},
{
name = top;
pos = (284,684);
}
);
layerId = "49C16FD3-6177-408B-A733-AEB3898BB77C";
shapes = (
{
closed = 1;
nodes = (
(149,1,l),
(149,335,l),
(444,335,l),
(444,374,l),
(149,374,l),
(149,644,l),
(536,644,l),
(536,685,l),
(104,685,l),
(104,1,l)
);
}
);
width = 573;
}
);
userData = {
position = 95;
width = 61;
};
},
{
glyphname = F.swsh;
kernLeft = E.swsh;
kernRight = F;
layers = (
{
hints = (
{
name = _corner.caps_swash;
origin = (1,3);
type = Corner;
}
);
layerId = "873CAA12-270D-4223-A88E-AE8E101FDBE8";
shapes = (
{
closed = 1;
nodes = (
(217,-1,l),
(217,333,l),
(474,333,l),
(474,389,l),
(217,389,l),
(217,569,l),
(156,569,l),
(156,-1,l)
);
},
{
closed = 1;
nodes = (
(143,627,l),
(594,627,l),
(594,683,l),
(143,683,l)
);
}
);
width = 628;
},
{
hints = (
{
name = _corner.caps_swash;
origin = (1,3);
type = Corner;
}
);
layerId = "0CAF3BED-C4AC-4024-B3E1-4C69D1EF7EC0";
shapes = (
{
closed = 1;
nodes = (
(250,-1,l),
(250,324,l),
(499,324,l),
(499,400,l),
(250,400,l),
(250,559,l),
(167,559,l),
(167,-1,l)
);
},
{
closed = 1;
nodes = (
(147,608,l),
(615,608,l),
(615,684,l),
(147,684,l)
);
}
);
width = 649;
},
{
hints = (
{
name = _corner.caps_swash;
origin = (1,3);
type = Corner;
}
);
layerId = "49C16FD3-6177-408B-A733-AEB3898BB77C";
shapes = (
{
closed = 1;
nodes = (
(208,0,l),
(208,343,l),
(474,343,l),
(474,383,l),
(208,383,l),
(208,569,l),
(166,569,l),
(166,0,l)
);
},
{
closed = 1;
nodes = (
(144,644,l),
(597,644,l),
(597,684,l),
(144,684,l)
);
}
);
width = 634;
}
);
userData = {
position = 129;
width = 61;
};
},
{
glyphname = G;
kernLeft = O;
kernRight = O;
layers = (
{
anchors = (
{
name = bottom;
pos = (387,-28);
},
{
name = top;
pos = (391,699);
}
);
layerId = "873CAA12-270D-4223-A88E-AE8E101FDBE8";
shapes = (
{
attr = {
strokeHeight = 38;
strokeWidth = 42;
};
closed = 0;
nodes = (
(518,484,l),
(528,479,o),
(537,477,o),
(547,477,cs),
(591,477,o),
(613,519,o),
(613,556,cs),
(613,630,o),
(522,690,o),
(391,683,cs),
(221,675,o),
(84,530,o),
(84,334,cs),
(84,135,o),
(224,-12,o),
(409,0,cs),
(567,10,o),
(654,127,o),
(654,278,c),
(653,313,l),
(377,314,l)
);
}
);
width = 728;
},
{
anchors = (
{
name = bottom;
pos = (390,-16);
},
{
name = top;
pos = (393,684);
}
);
layerId = "0CAF3BED-C4AC-4024-B3E1-4C69D1EF7EC0";
shapes = (
{
attr = {
strokeHeight = 74;
strokeWidth = 80;
};
closed = 0;
nodes = (
(515,478,l),
(525,473,o),
(534,471,o),
(543,471,cs),
(587,471,o),
(608,511,o),
(608,546,cs),
(608,617,o),
(519,674,o),
(391,668,cs),
(224,660,o),
(90,522,o),
(90,334,cs),
(90,144,o),
(227,4,o),
(408,15,cs),
(563,25,o),
(648,137,o),
(648,281,c),
(647,314,l),
(377,315,l)
);
}
);
width = 734;
},
{
anchors = (
{
name = bottom;
pos = (392,-35);
},
{
name = top;
pos = (402,683);
}
);
background = {
shapes = (
{
closed = 1;
nodes = (
(540,-19,o),
(678,85,o),
(678,253,c),
(678,296,l),
(636,296,l),
(636,251,l),
(636,124,o),
(523,20,o),
(392,20,cs),
(227,20,o),
(103,157,o),
(103,329,cs),
(103,504,o),
(232,658,o),
(402,658,cs),
(466,658,o),
(587,637,o),
(587,563,cs),
(587,537,o),
(570,514,o),
(547,514,cs),
(537,514,o),
(529,518,o),
(524,524,c),
(498,491,l),
(506,482,o),
(524,473,o),
(546,473,cs),
(594,473,o),
(628,509,o),
(628,563,cs),
(628,669,o),
(486,698,o),
(401,698,cs),
(203,698,o),
(61,531,o),
(61,330,cs),
(61,138,o),
(198,-21,o),
(392,-20,cs)
);
}
);
};
layerId = "49C16FD3-6177-408B-A733-AEB3898BB77C";
shapes = (
{
attr = {
strokeHeight = 38;
strokeWidth = 42;
};
closed = 0;
nodes = (
(518,484,l),
(528,479,o),
(537,477,o),
(547,477,cs),
(591,477,o),
(613,519,o),
(613,556,cs),
(613,630,o),
(522,690,o),
(391,683,cs),
(221,675,o),
(84,530,o),
(84,334,cs),
(84,135,o),
(224,-12,o),
(404,0,cs),
(567,10,o),
(654,127,o),
(654,278,c),
(653,313,l),
(377,314,l)
);
}
);
width = 735;
},
{
anchors = (
{
name = bottom;
pos = (392,-35);
},
{
name = top;
pos = (402,683);
}
);
associatedMasterId = "49C16FD3-6177-408B-A733-AEB3898BB77C";
layerId = "D0E3D1AC-81E4-4FC2-A1B9-BDF5A86A417E";
name = "3 Jan 22, 15:37";
shapes = (
{
closed = 1;
nodes = (
(537,-20,o),
(678,85,o),
(678,253,c),
(678,296,l),
(636,296,l),
(636,251,l),
(636,124,o),
(523,20,o),
(392,20,cs),
(227,20,o),
(103,157,o),
(103,329,cs),
(103,504,o),
(232,658,o),
(402,658,cs),
(466,658,o),
(587,637,o),
(587,563,cs),
(587,537,o),
(570,514,o),
(547,514,cs),
(537,514,o),
(529,518,o),
(524,524,c),
(498,491,l),
(506,482,o),
(524,473,o),
(546,473,cs),
(594,473,o),
(628,509,o),
(628,563,cs),
(628,669,o),
(486,698,o),
(401,698,cs),
(203,698,o),
(61,531,o),
(61,330,cs),
(61,138,o),
(198,-20,o),
(392,-20,cs)
);
},
{
closed = 1;
nodes = (
(678,293,l),
(678,335,l),
(387,335,l),
(387,293,l)
);
}
);
width = 735;
},
{
anchors = (
{
name = bottom;
pos = (387,-28);
},
{
name = top;
pos = (391,699);
}
);
associatedMasterId = "873CAA12-270D-4223-A88E-AE8E101FDBE8";
layerId = "A8D2BE40-FE6F-4311-8DB9-F135910EEEAF";
name = "3 Jan 22, 15:45";
shapes = (
{
closed = 1;
nodes = (
(534,-21,o),
(675,91,o),
(675,261,c),
(675,303,l),
(618,303,l),
(618,254,l),
(618,131,o),
(513,38,o),
(387,35,cs),
(236,32,o),
(116,172,o),
(116,328,cs),
(116,497,o),
(236,641,o),
(396,643,cs),
(458,644,o),
(572,622,o),
(572,555,cs),
(572,532,o),
(558,513,o),
(539,513,cs),
(533,513,o),
(521,516,o),
(516,521,c),
(488,480,l),
(500,468,o),
(519,460,o),
(538,460,cs),
(588,460,o),
(626,499,o),
(626,555,cs),
(626,664,o),
(480,699,o),
(396,699,cs),
(199,699,o),
(56,529,o),
(56,329,cs),
(56,139,o),
(194,-21,o),
(387,-21,cs)
);
},
{
closed = 1;
nodes = (
(675,286,l),
(675,342,l),
(375,342,l),
(375,286,l)
);
}
);
width = 728;
},
{
anchors = (
{
name = bottom;
pos = (390,-16);
},
{
name = top;
pos = (393,684);
}
);
associatedMasterId = "0CAF3BED-C4AC-4024-B3E1-4C69D1EF7EC0";
layerId = "801CC91F-0C96-44A6-9720-FE52325A0B43";
name = "3 Jan 22, 15:45";
shapes = (
{
closed = 1;
nodes = (
(541,-13,o),
(683,104,o),
(683,271,cs),
(683,319,l),
(600,319,l),
(601,269,l),
(599,150,o),
(504,63,o),
(390,63,cs),
(245,63,o),
(135,176,o),
(135,342,cs),
(135,497,o),
(245,620,o),
(399,620,cs),
(456,620,o),
(558,599,o),
(558,544,cs),
(558,530,o),
(551,518,o),
(537,517,cs),
(527,516,o),
(517,523,o),
(511,528,c),
(465,471,l),
(483,452,o),
(511,442,o),
(536,442,cs),
(591,442,o),
(635,488,o),
(635,547,cs),
(635,656,o),
(481,696,o),
(398,696,cs),
(205,696,o),
(53,539,o),
(53,343,cs),
(53,141,o),
(196,-13,o),
(390,-13,cs)
);
},
{
closed = 1;
nodes = (
(683,280,l),
(683,356,l),
(364,356,l),
(364,280,l)
);
}
);
width = 734;
}
);
unicode = 71;
userData = {
position = 593;
width = 57;
};
},
{
glyphname = G.ss01;
kernLeft = O;
kernRight = O;
layers = (
{
anchors = (
{
name = bottom;
pos = (388,-28);
},
{
name = top;
pos = (403,684);
}
);
layerId = "873CAA12-270D-4223-A88E-AE8E101FDBE8";
shapes = (
{
attr = {
strokeHeight = 38;
strokeWidth = 42;
};
closed = 0;
nodes = (
(623,537,l),
(618,626,o),
(522,691,o),
(391,684,cs),
(221,676,o),
(84,532,o),
(84,330,cs),
(84,136,o),
(219,0,o),
(404,0,c),
(567,10,o),
(654,127,o),
(654,278,c),
(653,313,l),
(377,314,l)
);
}
);
width = 728;
},
{
anchors = (
{
name = bottom;
pos = (387,0);
},
{
name = top;
pos = (401,684);
}
);
layerId = "0CAF3BED-C4AC-4024-B3E1-4C69D1EF7EC0";
shapes = (
{
attr = {
strokeHeight = 74;
strokeWidth = 80;
};
closed = 0;
nodes = (
(618,528,ls),
(613,613,o),
(519,675,o),
(391,669,cs),
(224,661,o),
(90,523,o),
(90,331,cs),
(90,145,o),
(222,15,o),
(403,15,c),
(563,25,o),
(648,137,o),
(648,281,c),
(647,314,l),
(377,315,l)
);
}
);
width = 730;
},
{
anchors = (
{
name = bottom;
pos = (387,-27);
},
{
name = top;
pos = (387,721);
}
);
background = {
shapes = (
{
closed = 1;
nodes = (
(542,-15,o),
(675,97,o),
(675,285,cs),
(675,343,l),
(633,343,l),
(633,273,ls),
(633,127,o),
(512,25,o),
(391,25,cs),
(209,25,o),
(104,154,o),
(104,331,cs),
(104,508,o),
(231,656,o),
(401,656,cs),
(470,656,o),
(577,625,o),
(584,557,c),
(625,558,l),
(619,647,o),
(507,696,o),
(403,696,cs),
(207,696,o),
(62,537,o),
(62,332,cs),
(62,131,o),
(179,-15,o),
(387,-15,cs)
);
},
{
closed = 1;
nodes = (
(675,303,l),
(675,343,l),
(384,343,l),
(384,303,l)
);
}
);
};
layerId = "49C16FD3-6177-408B-A733-AEB3898BB77C";
shapes = (
{
attr = {
strokeHeight = 38;
strokeWidth = 42;
};
closed = 0;
nodes = (
(623,537,ls),
(618,626,o),
(522,691,o),
(391,684,cs),
(221,676,o),
(84,532,o),
(84,330,cs),
(84,136,o),
(219,0,o),
(409,0,c),
(567,10,o),
(654,127,o),
(654,278,c),
(653,313,l),
(377,314,l)
);
}
);
width = 730;
},
{
anchors = (
{
name = bottom;
pos = (386,0);
},
{
name = top;
pos = (401,684);
}
);
associatedMasterId = "49C16FD3-6177-408B-A733-AEB3898BB77C";
layerId = "96951EB1-18FB-4FDF-9014-B6300BAB0AB6";
name = "3 Jan 22, 15:40";
shapes = (
{
closed = 1;
nodes = (
(542,-15,o),
(675,97,o),
(675,285,cs),
(675,343,l),
(633,343,l),
(633,273,ls),
(633,127,o),
(512,25,o),
(391,25,cs),
(209,25,o),
(104,154,o),
(104,331,cs),
(104,508,o),
(231,656,o),
(401,656,cs),
(470,656,o),
(577,625,o),
(584,557,c),
(625,558,l),
(619,647,o),
(507,696,o),
(403,696,cs),
(207,696,o),
(62,537,o),
(62,332,cs),
(62,131,o),
(179,-15,o),
(387,-15,cs)
);
},
{
closed = 1;
nodes = (
(675,303,l),
(675,343,l),
(384,343,l),
(384,303,l)
);
}
);
width = 730;
},
{
anchors = (
{
name = bottom;
pos = (388,-28);
},
{
name = top;
pos = (403,684);
}
);
associatedMasterId = "873CAA12-270D-4223-A88E-AE8E101FDBE8";
layerId = "CCC80A6F-3C96-44BD-ACCE-4C0B144EABD0";
name = "3 Jan 22, 15:47";
shapes = (
{
closed = 1;
nodes = (
(542,-11,o),
(677,103,o),
(677,276,cs),
(677,352,l),
(620,352,l),
(620,264,ls),
(620,139,o),
(507,45,o),
(391,45,cs),
(215,45,o),
(117,160,o),
(117,330,cs),
(117,501,o),
(238,641,o),
(401,641,cs),
(470,641,o),
(574,611,o),
(574,545,c),
(628,546,l),
(628,642,o),
(509,697,o),
(403,697,cs),
(208,697,o),
(57,538,o),
(57,330,cs),
(57,127,o),
(180,-11,o),
(387,-11,cs)
);
},
{
closed = 1;
nodes = (
(677,296,l),
(677,352,l),
(377,352,l),
(377,296,l)
);
},
{
attr = {
strokeHeight = 38;
strokeWidth = 42;
};
closed = 0;
nodes = (
(623,537,ls),
(618,626,o),
(522,691,o),
(391,684,cs),
(221,676,o),
(84,532,o),
(84,330,cs),
(84,136,o),
(219,0,o),
(409,0,c),
(567,10,o),
(654,127,o),
(654,278,c),
(653,313,l),
(377,314,l)
);
}
);
width = 728;
}
);
userData = {
position = 593;
width = 57;
};
},
{
glyphname = G.swsh;
kernLeft = O;
kernRight = j;
layers = (
{
anchors = (
{
name = bottom;
pos = (391,0);
},
{
name = top;
pos = (400,696);
}
);
layerId = "873CAA12-270D-4223-A88E-AE8E101FDBE8";
shapes = (
{
closed = 1;
nodes = (
(620,-168,l),
(620,-185,o),
(608,-201,o),
(586,-201,cs),
(573,-201,o),
(564,-195,o),
(559,-185,c),
(507,-219,l),
(524,-246,o),
(553,-263,o),
(585,-263,cs),
(629,-263,o),
(680,-231,o),
(680,-168,cs),
(680,315,l),
(620,315,l)
);
}
);
width = 746;
},
{
anchors = (
{
name = bottom;
pos = (393,-16);
},
{
name = top;
pos = (396,689);
}
);
layerId = "0CAF3BED-C4AC-4024-B3E1-4C69D1EF7EC0";
shapes = (
{
closed = 1;
nodes = (
(605,-161,l),
(605,-174,o),
(595,-183,o),
(582,-183,cs),
(569,-183,o),
(563,-178,o),
(556,-165,c),
(493,-208,l),
(508,-240,o),
(544,-263,o),
(581,-263,cs),
(626,-263,o),
(685,-228,o),
(685,-162,cs),
(685,317,l),
(605,317,l)
);
},
{
attr = {
strokeHeight = 74;
strokeWidth = 80;
};
closed = 0;
nodes = (
(515,478,l),
(525,473,o),
(534,471,o),
(543,471,cs),
(587,471,o),
(608,511,o),
(608,546,cs),
(608,617,o),
(519,674,o),
(391,668,cs),
(224,660,o),
(90,522,o),
(90,334,cs),
(90,144,o),
(227,4,o),
(408,15,cs),
(563,25,o),
(648,137,o),
(648,281,c),
(647,314,l),
(377,315,l)
);
}
);
width = 749;
},
{
anchors = (
{
name = bottom;
pos = (392,-35);
},
{
name = top;
pos = (402,683);
}
);
layerId = "49C16FD3-6177-408B-A733-AEB3898BB77C";
shapes = (
{
attr = {
strokeHeight = 38;
strokeWidth = 42;
};
closed = 0;
nodes = (
(518,484,l),
(528,479,o),
(537,477,o),
(547,477,cs),
(591,477,o),
(613,519,o),
(613,556,cs),
(613,630,o),
(522,690,o),
(391,683,cs),
(221,675,o),
(84,530,o),
(84,334,cs),
(84,135,o),
(224,-12,o),
(409,0,cs),
(567,10,o),
(654,127,o),
(654,278,c),
(653,313,l),
(427,314,l)
);
},
{
closed = 1;
nodes = (
(632,-188,l),
(630,-207,o),
(616,-229,o),
(589,-229,cs),
(576,-229,o),
(566,-224,o),
(559,-217,c),
(521,-242,l),
(537,-263,o),
(560,-275,o),
(588,-275,cs),
(629,-275,o),
(674,-247,o),
(674,-188,cs),
(674,296,l),
(632,296,l)
);
}
);
width = 745;
},
{
anchors = (
{
name = bottom;
pos = (393,0);
},
{
name = top;
pos = (402,684);
}
);
associatedMasterId = "49C16FD3-6177-408B-A733-AEB3898BB77C";
layerId = "99324C05-2E3B-491C-BB33-A281431388C0";
name = "3 Jan 22, 15:43";
shapes = (
{
closed = 1;
nodes = (
(632,-275,o),
(677,-247,o),
(677,-188,cs),
(677,296,l),
(635,296,l),
(635,231,l),
(617,118,o),
(524,19,o),
(389,19,cs),
(229,19,o),
(103,157,o),
(103,331,cs),
(103,504,o),
(226,661,o),
(399,661,cs),
(467,661,o),
(588,637,o),
(588,563,cs),
(588,537,o),
(571,514,o),
(548,514,cs),
(542,514,o),
(535,516,o),
(528,519,c),
(502,486,l),
(516,477,o),
(531,473,o),
(547,473,cs),
(595,473,o),
(629,509,o),
(629,562,cs),
(629,670,o),
(485,701,o),
(402,701,cs),
(204,701,o),
(61,530,o),
(61,333,cs),
(61,137,o),
(202,-21,o),
(385,-21,cs),
(490,-21,o),
(597,31,o),
(635,124,c),
(635,-188,l),
(633,-207,o),
(619,-229,o),
(592,-229,cs),
(579,-229,o),
(569,-224,o),
(562,-217,c),
(524,-242,l),
(540,-263,o),
(563,-275,o),
(591,-275,cs)
);
}
);
width = 745;
},
{
anchors = (
{
name = bottom;
pos = (391,0);
},
{
name = top;
pos = (400,696);
}
);
associatedMasterId = "873CAA12-270D-4223-A88E-AE8E101FDBE8";
layerId = "431AC455-96C8-400E-BD31-9019305891A8";
name = "3 Jan 22, 15:47";
shapes = (
{
closed = 1;
nodes = (
(629,-263,o),
(680,-231,o),
(680,-168,cs),
(680,315,l),
(620,315,l),
(620,234,l),
(604,127,o),
(516,40,o),
(391,40,cs),
(235,40,o),
(116,173,o),
(116,341,cs),
(116,506,o),
(231,645,o),
(398,645,cs),
(464,645,o),
(574,623,o),
(574,558,cs),
(574,536,o),
(561,519,o),
(543,519,cs),
(537,519,o),
(530,521,o),
(522,527,c),
(485,481,l),
(502,468,o),
(522,461,o),
(542,461,cs),
(594,461,o),
(632,502,o),
(632,558,cs),
(632,669,o),
(484,701,o),
(397,701,cs),
(203,701,o),
(56,543,o),
(56,341,cs),
(56,143,o),
(198,-16,o),
(387,-16,cs),
(488,-16,o),
(574,29,o),
(620,106,c),
(620,-168,l),
(620,-185,o),
(608,-201,o),
(586,-201,cs),
(573,-201,o),
(564,-195,o),
(559,-185,c),
(507,-219,l),
(524,-246,o),
(553,-263,o),
(585,-263,cs)
);
}
);
width = 746;
}
);
userData = {
position = 593;
width = 57;
};
},
{
glyphname = H;
kernLeft = E;
layers = (
{
anchors = (
{
name = bottom;
pos = (360,0);
},
{
name = center;
pos = (399,500);
},
{
name = top;
pos = (389,684);
},
{
name = topleft;
pos = (27,684);
}
);
hints = (
{
name = _corner.caps_vert;
origin = (0,9);
type = Corner;
}
);
layerId = "873CAA12-270D-4223-A88E-AE8E101FDBE8";
shapes = (
{
closed = 1;
nodes = (
(196,0,l),
(196,328,l),
(565,328,l),
(565,0,l),
(625,0,l),
(625,684,l),
(565,684,l),
(565,384,l),
(196,384,l),
(196,569,l),
(136,569,l),
(136,0,l)
);
}
);
width = 724;
},
{
anchors = (
{
name = bottom;
pos = (359,0);
},
{
name = center;
pos = (382,500);
},
{
name = top;
pos = (389,675);
},
{
name = topleft;
pos = (22,684);
}
);
hints = (
{
name = _corner.caps_vert;
origin = (0,9);
type = Corner;
}
);
layerId = "0CAF3BED-C4AC-4024-B3E1-4C69D1EF7EC0";
shapes = (
{
closed = 1;
nodes = (
(213,-1,l),
(213,319,l),
(548,319,l),
(548,-1,l),
(630,-1,l),
(630,686,l),
(548,686,l),
(548,395,l),
(213,395,l),
(213,569,l),
(131,568,l),
(131,-1,l)
);
}
);
width = 727;
},
{
anchors = (
{
name = bottom;
pos = (376,0);
},
{
name = center;
pos = (379,491);
},
{
name = top;
pos = (376,684);
},
{
name = topleft;
pos = (46,684);
}
);
hints = (
{
name = _corner.caps_vert;
origin = (0,9);
type = Corner;
}
);
layerId = "49C16FD3-6177-408B-A733-AEB3898BB77C";
shapes = (
{
closed = 1;
nodes = (
(180,1,l),
(180,338,l),
(575,338,l),
(575,1,l),
(617,1,l),
(617,685,l),
(575,685,l),
(575,378,l),
(180,378,l),
(180,569,l),
(138,569,l),
(138,1,l)
);
}
);
width = 721;
}
);
unicode = 72;
userData = {
position = 554;
width = 61;
};
},
{
glyphname = H.ss01;
layers = (
{
anchors = (
{
name = bottom;
pos = (344,0);
},
{
name = center;
pos = (359,513);
},
{
name = top;
pos = (349,684);
},
{
name = topleft;
pos = (32,684);
}
);
layerId = "873CAA12-270D-4223-A88E-AE8E101FDBE8";
shapes = (
{
closed = 1;
nodes = (
(159,0,l),
(159,328,l),
(528,328,l),
(528,0,l),
(588,0,l),
(588,684,l),
(528,684,l),
(528,384,l),
(159,384,l),
(159,684,l),
(99,684,l),
(99,0,l)
);
}
);
width = 687;
},
{
anchors = (
{
name = bottom;
pos = (347,0);
},
{
name = center;
pos = (336,512);
},
{
name = top;
pos = (334,684);
},
{
name = topleft;
pos = (27,684);
}
);
layerId = "0CAF3BED-C4AC-4024-B3E1-4C69D1EF7EC0";
shapes = (
{
closed = 1;
nodes = (
(179,-1,l),
(179,317,l),
(514,317,l),
(514,-1,l),
(596,-1,l),
(596,686,l),
(514,686,l),
(514,395,l),
(179,395,l),
(179,686,l),
(97,686,l),
(97,-1,l)
);
}
);
width = 693;
},
{
anchors = (
{
name = bottom;
pos = (342,0);
},
{
name = center;
pos = (345,500);
},
{
name = top;
pos = (343,684);
},
{
name = topleft;
pos = (32,684);
}
);
layerId = "49C16FD3-6177-408B-A733-AEB3898BB77C";
shapes = (
{
closed = 1;
nodes = (
(146,1,l),
(146,338,l),
(542,338,l),
(542,1,l),
(584,1,l),
(584,685,l),
(542,685,l),
(542,378,l),
(146,378,l),
(146,685,l),
(104,685,l),
(104,1,l)
);
}
);
width = 688;
}
);
userData = {
position = 525;
width = 61;
};
},
{
glyphname = H.swsh;
kernLeft = Swash;
layers = (
{
anchors = (
{
name = bottom;
pos = (381,0);
},
{
name = center;
pos = (412,355);
},
{
name = top;
pos = (410,684);
},
{
name = topleft;
pos = (48,684);
},
{
name = topswash;
pos = (218,500);
}
);
hints = (
{
name = _corner.caps_swash_vert;
origin = (0,9);
type = Corner;
}
);
layerId = "873CAA12-270D-4223-A88E-AE8E101FDBE8";
shapes = (
{
closed = 1;
nodes = (
(217,0,l),
(217,328,l),
(586,328,l),
(586,0,l),
(646,0,l),
(646,684,l),
(586,684,l),
(586,384,l),
(217,384,l),
(217,569,l),
(157,569,l),
(157,0,l)
);
}
);
width = 745;
},
{
anchors = (
{
name = bottom;
pos = (379,0);
},
{
name = center;
pos = (402,355);
},
{
name = top;
pos = (409,675);
},
{
name = topleft;
pos = (42,684);
},
{
name = topswash;
pos = (231,500);
}
);
hints = (
{
name = _corner.caps_swash_vert;
origin = (0,9);
type = Corner;
}
);
layerId = "0CAF3BED-C4AC-4024-B3E1-4C69D1EF7EC0";
shapes = (
{
closed = 1;
nodes = (
(233,-1,l),
(233,317,l),
(568,317,l),
(568,-1,l),
(650,-1,l),
(650,686,l),
(568,686,l),
(568,395,l),
(233,395,l),
(233,569,l),
(151,569,l),
(151,-1,l)
);
}
);
width = 747;
},
{
anchors = (
{
name = bottom;
pos = (385,0);
},
{
name = center;
pos = (408,356);
},
{
name = top;
pos = (405,694);
},
{
name = topleft;
pos = (65,684);
},
{
name = topswash;
pos = (199,500);
}
);
hints = (
{
name = _corner.caps_swash_vert;
origin = (0,9);
type = Corner;
}
);
layerId = "49C16FD3-6177-408B-A733-AEB3898BB77C";
shapes = (
{
closed = 1;
nodes = (
(199,1,l),
(199,338,l),
(594,338,l),
(594,1,l),
(636,1,l),
(636,685,l),
(594,685,l),
(594,378,l),
(199,378,l),
(199,569,l),
(157,569,l),
(157,1,l)
);
}
);
width = 740;
}
);
userData = {
position = 554;
width = 61;
};
},
{
glyphname = I;
layers = (
{
anchors = (
{
name = bottom;
pos = (131,-1);
},
{
name = center;
pos = (133,386);
},
{
name = ogonek;
pos = (161,0);
},
{
name = top;
pos = (128,674);
},
{
name = topleft;
pos = (34,684);
}
);
layerId = "873CAA12-270D-4223-A88E-AE8E101FDBE8";
shapes = (
{
closed = 1;
nodes = (
(161,0,l),
(161,684,l),
(100,684,l),
(100,0,l)
);
}
);
width = 261;
},
{
anchors = (
{
name = bottom;
pos = (138,0);
},
{
name = center;
pos = (137,386);
},
{
name = ogonek;
pos = (179,-1);
},
{
name = top;
pos = (136,675);
},
{
name = topleft;
pos = (31,684);
}
);
layerId = "0CAF3BED-C4AC-4024-B3E1-4C69D1EF7EC0";
shapes = (
{
closed = 1;
nodes = (
(179,-1,l),
(179,686,l),
(97,686,l),
(97,-1,l)
);
}
);
width = 276;
},
{
anchors = (
{
name = bottom;
pos = (128,0);
},
{
name = center;
pos = (127,386);
},
{
name = ogonek;
pos = (150,1);
},
{
name = top;
pos = (125,686);
},
{
name = topleft;
pos = (39,684);
}
);
layerId = "49C16FD3-6177-408B-A733-AEB3898BB77C";
shapes = (
{
closed = 1;
nodes = (
(150,1,l),
(150,685,l),
(105,685,l),
(105,1,l)
);
}
);
width = 255;
}
);
unicode = 73;
userData = {
position = 54;
width = 61;
};
},
{
glyphname = I.swsh;
kernLeft = Swash;
layers = (
{
anchors = (
{
name = bottom;
pos = (188,-1);
},
{
name = center;
pos = (190,386);
},
{
name = ogonek;
pos = (218,0);
},
{
name = top;
pos = (185,684);
},
{
name = topleft;
pos = (91,684);
}
);
hints = (
{
name = _corner.caps_swash_vert;
options = 1;
origin = (0,1);
type = Corner;
}
);
layerId = "873CAA12-270D-4223-A88E-AE8E101FDBE8";
shapes = (
{
closed = 1;
nodes = (
(217,0,l),
(217,569,l),
(157,569,l),
(157,0,l)
);
}
);
width = 314;
},
{
anchors = (
{
name = bottom;
pos = (193,0);
},
{
name = center;
pos = (192,386);
},
{
name = ogonek;
pos = (234,-1);
},
{
name = top;
pos = (194,684);
},
{
name = topleft;
pos = (86,684);
}
);
hints = (
{
name = _corner.caps_swash_vert;
options = 1;
origin = (0,1);
type = Corner;
}
);
layerId = "0CAF3BED-C4AC-4024-B3E1-4C69D1EF7EC0";
shapes = (
{
closed = 1;
nodes = (
(234,-1,l),
(234,569,l),
(152,569,l),
(152,-1,l)
);
}
);
width = 328;
},
{
anchors = (
{
name = bottom;
pos = (179,0);
},
{
name = center;
pos = (178,386);
},
{
name = ogonek;
pos = (202,1);
},
{
name = top;
pos = (176,684);
},
{
name = topleft;
pos = (88,684);
}
);
hints = (
{
name = _corner.caps_swash_vert;
options = 1;
origin = (0,1);
type = Corner;
}
);
layerId = "49C16FD3-6177-408B-A733-AEB3898BB77C";
shapes = (
{
closed = 1;
nodes = (
(198,1,l),
(198,576,l),
(156,576,l),
(156,1,l)
);
}
);
width = 301;
}
);
userData = {
position = 54;
width = 61;
};
},
{
glyphname = J;
kernLeft = J;
kernRight = J;
layers = (
{
anchors = (
{
name = bottom;
pos = (239,0);
},
{
name = top;
pos = (259,682);
}
);
layerId = "873CAA12-270D-4223-A88E-AE8E101FDBE8";
shapes = (
{
closed = 1;
nodes = (
(372,-7,o),
(425,89,o),
(425,188,cs),
(425,687,l),
(366,687,l),
(366,680,o),
(330,660,o),
(312,660,cs),
(298,660,o),
(282,662,o),
(259,672,cs),
(223,688,o),
(185,696,o),
(169,696,cs),
(143,696,o),
(124,691,o),
(65,667,c),
(90,617,l),
(115,628,o),
(143,641,o),
(169,641,cs),
(189,641,o),
(207,633,o),
(226,625,cs),
(256,612,o),
(276,605,o),
(310,605,cs),
(329,605,o),
(349,608,o),
(365,618,c),
(365,191,ls),
(365,127,o),
(339,49,o),
(232,49,cs),
(145,49,o),
(100,99,o),
(100,171,c),
(43,176,l),
(45,87,o),
(91,-7,o),
(229,-7,cs)
);
}
);
width = 516;
},
{
anchors = (
{
name = bottom;
pos = (249,0);
},
{
name = top;
pos = (249,684);
}
);
layerId = "0CAF3BED-C4AC-4024-B3E1-4C69D1EF7EC0";
shapes = (
{
closed = 1;
nodes = (
(382,-7,o),
(438,94,o),
(438,193,cs),
(438,689,l),
(369,689,l),
(361,676,o),
(331,663,o),
(317,663,cs),
(305,663,o),
(291,664,o),
(269,673,cs),
(231,688,o),
(204,698,o),
(178,698,cs),
(150,698,o),
(128,692,o),
(61,664,c),
(95,597,l),
(124,609,o),
(153,620,o),
(178,620,cs),
(193,620,o),
(207,615,o),
(223,609,cs),
(253,597,o),
(285,587,o),
(315,587,cs),
(328,587,o),
(343,589,o),
(356,594,c),
(356,196,ls),
(356,138,o),
(333,69,o),
(239,69,cs),
(157,69,o),
(118,118,o),
(122,188,c),
(44,194,l),
(41,103,o),
(88,-7,o),
(236,-7,cs)
);
}
);
width = 526;
},
{
anchors = (
{
name = bottom;
pos = (241,0);
},
{
name = top;
pos = (242,684);
}
);
layerId = "49C16FD3-6177-408B-A733-AEB3898BB77C";
shapes = (
{
closed = 1;
nodes = (
(364,-6,o),
(418,86,o),
(418,185,cs),
(418,688,l),
(371,688,l),
(362,672,o),
(334,660,o),
(312,660,cs),
(294,660,o),
(274,666,o),
(254,674,cs),
(211,691,o),
(181,697,o),
(166,697,cs),
(140,697,o),
(122,691,o),
(71,672,c),
(89,636,l),
(112,644,o),
(137,658,o),
(166,658,cs),
(187,658,o),
(205,651,o),
(223,643,cs),
(253,630,o),
(277,621,o),
(310,621,cs),
(331,621,o),
(357,625,o),
(376,644,c),
(376,188,ls),
(376,121,o),
(346,34,o),
(230,34,cs),
(141,34,o),
(89,86,o),
(87,159,c),
(46,163,l),
(51,76,o),
(97,-6,o),
(227,-6,cs)
);
}
);
width = 514;
}
);
unicode = 74;
userData = {
position = 333;
width = 53;
};
},
{
glyphname = J.ss01;
kernLeft = Jtext;
kernRight = J;
layers = (
{
anchors = (
{
name = bottom;
pos = (238,0);
},
{
name = top;
pos = (384,684);
}
);
layerId = "873CAA12-270D-4223-A88E-AE8E101FDBE8";
shapes = (
{
closed = 1;
nodes = (
(366,-7,o),
(419,94,o),
(419,193,cs),
(419,684,l),
(357,684,l),
(359,629,l),
(359,196,ls),
(359,132,o),
(333,49,o),
(226,49,cs),
(139,49,o),
(94,99,o),
(94,171,c),
(37,176,l),
(39,87,o),
(85,-7,o),
(223,-7,cs)
);
}
);
width = 509;
},
{
anchors = (
{
name = bottom;
pos = (241,0);
},
{
name = top;
pos = (387,684);
}
);
layerId = "0CAF3BED-C4AC-4024-B3E1-4C69D1EF7EC0";
shapes = (
{
closed = 1;
nodes = (
(374,-9,o),
(430,97,o),
(430,196,cs),
(430,684,l),
(348,684,l),
(348,606,l),
(348,199,ls),
(348,141,o),
(325,67,o),
(231,67,cs),
(149,67,o),
(110,116,o),
(114,186,c),
(36,192,l),
(33,101,o),
(80,-9,o),
(228,-9,cs)
);
}
);
width = 517;
},
{
anchors = (
{
name = bottom;
pos = (238,0);
},
{
name = top;
pos = (393,684);
}
);
layerId = "49C16FD3-6177-408B-A733-AEB3898BB77C";
shapes = (
{
closed = 1;
nodes = (
(362,-6,o),
(414,92,o),
(414,191,cs),
(414,685,l),
(374,684,l),
(370,635,l),
(373,194,ls),
(373,125,o),
(337,34,o),
(224,34,cs),
(135,34,o),
(88,89,o),
(86,162,c),
(42,166,l),
(44,79,o),
(92,-6,o),
(224,-6,cs)
);
}
);
width = 510;
}
);
userData = {
position = 333;
width = 53;
};
},
{
glyphname = K;
kernLeft = E;
kernRight = K;
layers = (
{
anchors = (
{
name = bottom;
pos = (331,0);
},
{
name = top;
pos = (331,684);
}
);
hints = (
{
name = _corner.caps_vert;
origin = (0,43);
type = Corner;
}
);
layerId = "873CAA12-270D-4223-A88E-AE8E101FDBE8";
shapes = (
{
closed = 1;
nodes = (
(198,1,l),
(198,314,l),
(252,313,o),
(269,313,o),
(308,325,c),
(516,31,ls),
(533,7,o),
(559,-8,o),
(588,-8,cs),
(616,-8,o),
(646,5,o),
(665,30,c),
(619,62,l),
(613,54,o),
(602,48,o),
(590,48,cs),
(579,48,o),
(569,53,o),
(562,63,cs),
(361,347,l),
(379,362,o),
(391,374,o),
(416,409,cs),
(423,419,o),
(449,459,o),
(468,494,cs),
(489,531,o),
(513,576,o),
(570,684,c),
(501,684,l),
(471,621,o),
(447,570,o),
(425,530,cs),
(405,495,o),
(377,450,o),
(356,423,cs),
(346,410,o),
(326,395,o),
(306,386,cs),
(290,379,o),
(271,372,o),
(240,372,cs),
(196,372,l),
(196,568,l),
(136,568,l),
(136,1,l)
);
}
);
width = 694;
},
{
anchors = (
{
name = bottom;
pos = (335,2);
},
{
name = top;
pos = (335,684);
}
);
hints = (
{
name = _corner.caps_vert;
origin = (0,43);
type = Corner;
}
);
layerId = "0CAF3BED-C4AC-4024-B3E1-4C69D1EF7EC0";
shapes = (
{
closed = 1;
nodes = (
(214,0,l),
(214,303,l),
(259,302,o),
(277,305,o),
(304,312,c),
(500,34,ls),
(518,8,o),
(551,-8,o),
(586,-8,cs),
(611,-8,o),
(646,7,o),
(666,38,c),
(604,82,l),
(600,75,o),
(594,70,o),
(586,70,cs),
(573,70,o),
(567,73,o),
(556,88,cs),
(374,346,l),
(375,347,o),
(396,362,o),
(423,401,cs),
(440,425,o),
(460,459,o),
(474,484,cs),
(496,523,o),
(504,538,o),
(583,686,c),
(493,686,l),
(462,620,o),
(435,567,o),
(413,530,cs),
(394,497,o),
(370,457,o),
(348,430,cs),
(335,414,o),
(321,406,o),
(300,396,cs),
(287,390,o),
(270,385,o),
(242,384,cs),
(212,383,l),
(212,568,l),
(130,568,l),
(130,0,l)
);
}
);
width = 693;
},
{
anchors = (
{
name = bottom;
pos = (317,1);
},
{
name = top;
pos = (317,684);
}
);
hints = (
{
name = _corner.caps_vert;
origin = (0,43);
type = Corner;
}
);
layerId = "49C16FD3-6177-408B-A733-AEB3898BB77C";
shapes = (
{
closed = 1;
nodes = (
(178,2,l),
(178,325,l),
(206,325,o),
(234,316,o),
(306,338,c),
(524,30,ls),
(541,6,o),
(564,-7,o),
(590,-7,cs),
(613,-7,o),
(639,2,o),
(656,22,c),
(623,45,l),
(615,38,o),
(605,33,o),
(593,33,cs),
(577,33,o),
(563,44,o),
(557,53,cs),
(346,351,l),
(370,369,o),
(378,381,o),
(404,417,cs),
(424,445,o),
(441,478,o),
(457,505,cs),
(461,512,o),
(500,581,o),
(555,685,c),
(504,685,l),
(459,591,o),
(446,568,o),
(426,531,cs),
(404,490,o),
(378,451,o),
(354,420,cs),
(339,401,o),
(327,389,o),
(302,378,cs),
(284,370,o),
(263,363,o),
(232,363,cs),
(176,363,l),
(176,569,l),
(134,569,l),
(134,2,l)
);
}
);
width = 690;
}
);
unicode = 75;
userData = {
position = 542;
width = 57;
};
},
{
glyphname = K.ss01;
kernRight = K;
layers = (
{
anchors = (
{
name = bottom;
pos = (368,0);
},
{
name = top;
pos = (368,684);
}
);
layerId = "873CAA12-270D-4223-A88E-AE8E101FDBE8";
shapes = (
{
closed = 1;
nodes = (
(163,1,l),
(163,313,l),
(192,313,o),
(228,311,o),
(272,324,c),
(479,32,ls),
(498,5,o),
(523,-8,o),
(554,-8,cs),
(571,-8,o),
(584,-4,o),
(600,8,c),
(573,55,l),
(568,51,o),
(560,49,o),
(553,49,cs),
(541,49,o),
(533,53,o),
(525,64,cs),
(326,347,l),
(346,363,o),
(367,389,o),
(380,408,cs),
(394,428,o),
(416,464,o),
(432,492,cs),
(460,541,o),
(497,618,o),
(533,684,c),
(460,684,l),
(422,604,o),
(403,565,o),
(383,529,cs),
(365,497,o),
(338,452,o),
(314,423,cs),
(283,386,o),
(255,375,o),
(204,373,cs),
(161,371,l),
(161,684,l),
(100,684,l),
(100,1,l)
);
}
);
width = 628;
},
{
anchors = (
{
name = bottom;
pos = (362,0);
},
{
name = top;
pos = (361,684);
}
);
layerId = "0CAF3BED-C4AC-4024-B3E1-4C69D1EF7EC0";
shapes = (
{
closed = 1;
nodes = (
(181,0,l),
(181,302,l),
(212,302,o),
(241,304,o),
(270,312,c),
(466,37,ls),
(486,9,o),
(516,-4,o),
(548,-4,cs),
(569,-4,o),
(589,1,o),
(608,20,c),
(571,79,l),
(563,73,o),
(559,70,o),
(549,70,cs),
(540,70,o),
(533,74,o),
(521,91,cs),
(343,346,l),
(362,364,o),
(384,391,o),
(390,400,cs),
(403,418,o),
(432,469,o),
(441,483,cs),
(472,537,o),
(510,619,o),
(548,686,c),
(450,686,l),
(411,604,o),
(393,566,o),
(373,530,cs),
(352,492,o),
(330,456,o),
(307,429,cs),
(281,398,o),
(259,385,o),
(209,384,cs),
(179,383,l),
(179,686,l),
(97,686,l),
(97,0,l)
);
}
);
width = 634;
},
{
anchors = (
{
name = bottom;
pos = (371,-7);
},
{
name = top;
pos = (371,693);
}
);
layerId = "49C16FD3-6177-408B-A733-AEB3898BB77C";
shapes = (
{
closed = 1;
nodes = (
(152,2,l),
(152,322,l),
(177,322,o),
(221,319,o),
(273,335,c),
(489,30,ls),
(507,4,o),
(531,-6,o),
(555,-6,cs),
(574,-6,o),
(582,-3,o),
(594,3,c),
(572,38,l),
(566,35,o),
(560,35,o),
(554,35,cs),
(540,35,o),
(530,42,o),
(522,53,cs),
(314,351,l),
(336,367,o),
(365,399,o),
(376,415,cs),
(387,431,o),
(414,474,o),
(429,501,cs),
(456,550,o),
(491,620,o),
(525,685,c),
(471,685,l),
(428,595,o),
(416,571,o),
(394,530,cs),
(372,489,o),
(348,452,o),
(323,421,cs),
(288,379,o),
(258,367,o),
(204,365,cs),
(150,363,l),
(150,685,l),
(105,685,l),
(105,2,l)
);
}
);
width = 622;
}
);
userData = {
position = 542;
width = 57;
};
},
{
glyphname = K.swsh;
kernLeft = Swash;
kernRight = K;
layers = (
{
anchors = (
{
name = bottom;
pos = (328,0);
},
{
name = top;
pos = (327,684);
}
);
hints = (
{
name = _corner.caps_swash_vert;
options = 1;
origin = (0,34);
type = Corner;
}
);
layerId = "873CAA12-270D-4223-A88E-AE8E101FDBE8";
shapes = (
{
closed = 1;
nodes = (
(651,-8,o),
(700,24,o),
(700,83,c),
(644,82,l),
(644,63,o),
(629,48,o),
(609,48,cs),
(598,48,o),
(588,53,o),
(581,63,cs),
(380,347,l),
(398,362,o),
(410,374,o),
(435,409,cs),
(442,419,o),
(468,459,o),
(487,494,cs),
(508,531,o),
(532,576,o),
(589,684,c),
(520,684,l),
(487,614,o),
(465,568,o),
(444,530,cs),
(425,495,o),
(396,450,o),
(375,423,cs),
(365,410,o),
(345,395,o),
(325,386,cs),
(309,379,o),
(290,372,o),
(259,372,cs),
(217,372,l),
(217,569,l),
(157,569,l),
(157,0,l),
(217,0,l),
(217,314,l),
(271,313,o),
(288,313,o),
(327,325,c),
(535,31,ls),
(552,7,o),
(578,-8,o),
(607,-8,cs)
);
}
);
width = 722;
},
{
anchors = (
{
name = bottom;
pos = (344,0);
},
{
name = top;
pos = (342,684);
}
);
hints = (
{
name = _corner.caps_swash_vert;
options = 1;
origin = (0,34);
type = Corner;
}
);
layerId = "0CAF3BED-C4AC-4024-B3E1-4C69D1EF7EC0";
shapes = (
{
closed = 1;
nodes = (
(646,-8,o),
(709,28,o),
(702,104,c),
(628,102,l),
(630,88,o),
(623,70,o),
(607,70,cs),
(594,70,o),
(588,73,o),
(577,88,cs),
(395,346,l),
(396,347,o),
(419,364,o),
(443,400,cs),
(459,424,o),
(481,459,o),
(495,484,cs),
(517,523,o),
(525,538,o),
(604,686,c),
(514,686,l),
(483,620,o),
(456,567,o),
(434,530,cs),
(415,497,o),
(391,457,o),
(369,430,cs),
(356,414,o),
(342,406,o),
(321,396,cs),
(308,390,o),
(291,385,o),
(263,384,cs),
(233,383,l),
(233,569,l),
(151,569,l),
(151,0,l),
(235,0,l),
(235,303,l),
(280,302,o),
(298,305,o),
(325,312,c),
(521,34,ls),
(539,8,o),
(573,-8,o),
(607,-8,cs)
);
}
);
width = 725;
},
{
anchors = (
{
name = bottom;
pos = (330,0);
},
{
name = top;
pos = (331,684);
}
);
hints = (
{
name = _corner.caps_swash_vert;
options = 1;
origin = (0,34);
type = Corner;
}
);
layerId = "49C16FD3-6177-408B-A733-AEB3898BB77C";
shapes = (
{
closed = 1;
nodes = (
(648,-7,o),
(691,15,o),
(697,65,c),
(658,69,l),
(655,51,o),
(637,33,o),
(615,33,cs),
(599,33,o),
(585,44,o),
(579,53,cs),
(368,351,l),
(393,370,o),
(399,380,o),
(426,417,cs),
(443,440,o),
(464,478,o),
(479,505,cs),
(483,512,o),
(522,581,o),
(577,685,c),
(526,685,l),
(481,591,o),
(468,568,o),
(448,531,cs),
(426,490,o),
(400,451,o),
(376,420,cs),
(361,401,o),
(349,389,o),
(324,378,cs),
(306,370,o),
(285,363,o),
(254,363,cs),
(198,363,l),
(198,569,l),
(156,569,l),
(156,2,l),
(200,2,l),
(200,325,l),
(228,325,o),
(256,316,o),
(328,338,c),
(546,30,ls),
(563,6,o),
(585,-7,o),
(612,-7,cs)
);
}
);
width = 725;
}
);
userData = {
position = 542;
width = 57;
};
},
{
glyphname = L;
kernRight = L;
layers = (
{
anchors = (
{
name = bottom;
pos = (301,0);
},
{
name = center;
pos = (301,342);
},
{
name = top;
pos = (301,684);
},
{
name = topright;
pos = (361,500);
}
);
layerId = "873CAA12-270D-4223-A88E-AE8E101FDBE8";
shapes = (
{
closed = 1;
nodes = (
(507,0,l),
(507,56,l),
(160,56,l),
(160,684,l),
(100,684,l),
(100,0,l)
);
}
);
width = 540;
},
{
anchors = (
{
name = bottom;
pos = (304,0);
},
{
name = center;
pos = (295,342);
},
{
name = top;
pos = (304,684);
},
{
name = topright;
pos = (369,500);
}
);
layerId = "0CAF3BED-C4AC-4024-B3E1-4C69D1EF7EC0";
shapes = (
{
closed = 1;
nodes = (
(516,-1,l),
(516,75,l),
(179,75,l),
(179,686,l),
(97,686,l),
(97,-1,l)
);
}
);
width = 549;
},
{
anchors = (
{
name = bottom;
pos = (301,-7);
},
{
name = center;
pos = (299,342);
},
{
name = top;
pos = (301,693);
},
{
name = topright;
pos = (329,500);
}
);
layerId = "49C16FD3-6177-408B-A733-AEB3898BB77C";
shapes = (
{
closed = 1;
nodes = (
(503,1,l),
(503,41,l),
(147,41,l),
(147,685,l),
(105,685,l),
(105,1,l)
);
}
);
width = 539;
}
);
unicode = 76;
userData = {
position = 54;
width = 61;
};
},
{
glyphname = L.swsh;
kernLeft = Swash;
kernRight = L;
layers = (
{
anchors = (
{
name = bottom;
pos = (357,0);
},
{
name = center;
pos = (318,342);
},
{
name = top;
pos = (357,684);
},
{
name = topright;
pos = (547,684);
}
);
hints = (
{
name = _corner.caps_swash_vert;
origin = (0,3);
type = Corner;
}
);
layerId = "873CAA12-270D-4223-A88E-AE8E101FDBE8";
shapes = (
{
closed = 1;
nodes = (
(553,0,l),
(553,56,l),
(216,56,l),
(216,569,l),
(156,569,l),
(156,0,l)
);
}
);
width = 586;
},
{
anchors = (
{
name = bottom;
pos = (358,11);
},
{
name = center;
pos = (321,342);
},
{
name = top;
pos = (358,675);
},
{
name = topright;
pos = (556,684);
}
);
hints = (
{
name = _corner.caps_swash_vert;
origin = (0,3);
type = Corner;
}
);
layerId = "0CAF3BED-C4AC-4024-B3E1-4C69D1EF7EC0";
shapes = (
{
closed = 1;
nodes = (
(560,-1,l),
(560,75,l),
(233,75,l),
(233,569,l),
(151,569,l),
(151,-1,l)
);
}
);
width = 593;
},
{
anchors = (
{
name = bottom;
pos = (353,-8);
},
{
name = center;
pos = (305,342);
},
{
name = top;
pos = (353,694);
},
{
name = topright;
pos = (519,684);
}
);
hints = (
{
name = _corner.caps_swash_vert;
options = 2;
origin = (0,3);
type = Corner;
}
);
layerId = "49C16FD3-6177-408B-A733-AEB3898BB77C";
shapes = (
{
closed = 1;
nodes = (
(545,1,l),
(545,41,l),
(200,41,l),
(200,569,l),
(158,569,l),
(158,1,l)
);
}
);
width = 581;
}
);
userData = {
position = 54;
width = 61;
};
},
{
glyphname = M;
kernLeft = A;
kernRight = A;
layers = (
{
anchors = (
{
name = bottom;
pos = (552,0);
},
{
name = top;
pos = (551,690);
}
);
layerId = "873CAA12-270D-4223-A88E-AE8E101FDBE8";
shapes = (
{
closed = 1;
nodes = (
(155,-17,o),
(190,15,o),
(198,54,cs),
(303,561,l),
(309,601,l),
(320,561,l),
(522,0,l),
(581,0,l),
(784,562,l),
(795,601,l),
(801,563,l),
(914,0,l),
(974,0,l),
(834,684,l),
(774,684,l),
(563,113,l),
(552,74,l),
(541,113,l),
(332,684,l),
(273,684,l),
(142,61,l),
(137,46,o),
(127,39,o),
(113,39,cs),
(97,39,o),
(89,47,o),
(82,59,c),
(30,38,l),
(43,7,o),
(75,-17,o),
(113,-17,cs)
);
}
);
width = 1018;
},
{
anchors = (
{
name = bottom;
pos = (554,-2);
},
{
name = top;
pos = (547,684);
}
);
layerId = "0CAF3BED-C4AC-4024-B3E1-4C69D1EF7EC0";
shapes = (
{
closed = 1;
nodes = (
(169,-12,o),
(209,24,o),
(218,66,cs),
(316,531,l),
(319,553,l),
(322,531,l),
(513,-1,l),
(585,-1,l),
(779,537,l),
(782,553,l),
(783,537,l),
(891,-1,l),
(973,-1,l),
(832,686,l),
(756,686,l),
(562,160,l),
(549,114,l),
(536,160,l),
(344,686,l),
(269,686,l),
(140,78,l),
(136,68,o),
(132,65,o),
(123,65,cs),
(110,65,o),
(108,70,o),
(98,88,c),
(28,59,l),
(38,22,o),
(78,-12,o),
(123,-12,cs)
);
}
);
width = 1015;
},
{
anchors = (
{
name = bottom;
pos = (558,1);
},
{
name = top;
pos = (557,684);
}
);
layerId = "49C16FD3-6177-408B-A733-AEB3898BB77C";
shapes = (
{
closed = 1;
nodes = (
(150,-11,o),
(181,18,o),
(189,56,cs),
(296,568,l),
(307,641,l),
(327,568,l),
(531,1,l),
(583,1,l),
(788,569,l),
(808,640,l),
(820,569,l),
(934,1,l),
(979,1,l),
(839,685,l),
(788,685,l),
(575,107,l),
(557,43,l),
(539,107,l),
(327,685,l),
(278,685,l),
(145,59,l),
(139,42,o),
(125,32,o),
(109,32,cs),
(92,32,o),
(82,40,o),
(75,51,c),
(34,34,l),
(48,8,o),
(75,-11,o),
(109,-11,cs)
);
}
);
width = 1028;
}
);
unicode = 77;
userData = {
position = 664;
width = 20;
};
},
{
glyphname = M.ss01;
layers = (
{
anchors = (
{
name = bottom;
pos = (401,0);
},
{
name = top;
pos = (401,684);
}
);
layerId = "873CAA12-270D-4223-A88E-AE8E101FDBE8";
shapes = (
{
closed = 1;
nodes = (
(160,0,l),
(160,484,ls),
(160,514,o),
(156,524,o),
(152,557,c),
(169,528,o),
(178,513,o),
(200,486,cs),
(297,367,o),
(384,271,o),
(409,243,c),
(484,323,o),
(609,484,o),
(670,568,c),
(666,534,o),
(662,503,o),
(662,470,cs),
(662,0,l),
(722,0,l),
(722,693,l),
(704,693,l),
(408,323,l),
(118,693,l),
(100,693,l),
(100,0,l)
);
}
);
width = 822;
},
{
anchors = (
{
name = bottom;
pos = (412,0);
},
{
name = top;
pos = (412,684);
}
);
layerId = "0CAF3BED-C4AC-4024-B3E1-4C69D1EF7EC0";
shapes = (
{
closed = 1;
nodes = (
(180,-1,l),
(180,452,ls),
(180,467,o),
(179,486,o),
(177,505,c),
(193,483,o),
(211,457,o),
(223,443,cs),
(347,300,o),
(383,262,o),
(411,229,c),
(473,295,o),
(578,414,o),
(647,504,c),
(645,479,o),
(644,472,o),
(644,452,cs),
(644,-1,l),
(726,-1,l),
(726,695,l),
(691,695,l),
(412,345,l),
(133,695,l),
(98,695,l),
(98,-1,l)
);
}
);
width = 824;
},
{
anchors = (
{
name = bottom;
pos = (416,0);
},
{
name = top;
pos = (416,684);
}
);
layerId = "49C16FD3-6177-408B-A733-AEB3898BB77C";
shapes = (
{
closed = 1;
nodes = (
(147,1,l),
(147,459,ls),
(147,505,o),
(138,573,o),
(133,612,c),
(160,564,o),
(202,503,o),
(233,465,cs),
(347,323,o),
(394,281,o),
(415,258,c),
(504,354,o),
(651,546,o),
(699,615,c),
(693,587,o),
(685,506,o),
(685,459,cs),
(685,1,l),
(727,1,l),
(727,694,l),
(722,694,l),
(412,312,l),
(110,694,l),
(105,694,l),
(105,1,l)
);
}
);
width = 832;
}
);
userData = {
position = 658;
width = 61;
};
},
{
glyphname = M.swsh;
kernLeft = Aswash;
kernRight = A;
layers = (
{
anchors = (
{
name = bottom;
pos = (570,0);
},
{
name = top;
pos = (569,690);
}
);
layerId = "873CAA12-270D-4223-A88E-AE8E101FDBE8";
shapes = (
{
closed = 1;
nodes = (
(184,-18,o),
(208,20,o),
(221,82,cs),
(319,561,l),
(325,601,l),
(336,561,l),
(538,0,l),
(602,0,l),
(805,562,l),
(816,601,l),
(822,563,l),
(935,0,l),
(996,0,l),
(859,684,l),
(792,684,l),
(581,113,l),
(570,74,l),
(559,113,l),
(350,684,l),
(283,684,l),
(162,95,l),
(155,62,o),
(148,37,o),
(121,37,cs),
(101,37,o),
(85,55,o),
(91,73,c),
(36,86,l),
(34,79,o),
(34,72,o),
(34,65,cs),
(34,17,o),
(75,-18,o),
(124,-18,cs)
);
}
);
width = 1041;
},
{
anchors = (
{
name = bottom;
pos = (573,-2);
},
{
name = top;
pos = (566,684);
}
);
layerId = "0CAF3BED-C4AC-4024-B3E1-4C69D1EF7EC0";
shapes = (
{
closed = 1;
nodes = (
(193,-18,o),
(225,22,o),
(237,79,cs),
(332,528,l),
(336,549,l),
(340,528,l),
(531,-1,l),
(604,-1,l),
(798,534,l),
(800,549,l),
(802,534,l),
(910,-1,l),
(989,-1,l),
(848,686,l),
(775,686,l),
(569,121,l),
(568,107,l),
(566,121,l),
(363,686,l),
(288,686,l),
(165,109,l),
(159,83,o),
(151,61,o),
(134,61,cs),
(120,61,o),
(107,69,o),
(110,86,c),
(41,114,l),
(36,100,o),
(34,87,o),
(34,75,cs),
(34,19,o),
(83,-18,o),
(135,-18,cs)
);
}
);
width = 1031;
},
{
anchors = (
{
name = bottom;
pos = (571,1);
},
{
name = top;
pos = (570,684);
}
);
layerId = "49C16FD3-6177-408B-A733-AEB3898BB77C";
shapes = (
{
closed = 1;
nodes = (
(150,-16,o),
(181,-2,o),
(196,37,c),
(309,568,l),
(320,641,l),
(339,568,l),
(543,1,l),
(593,1,l),
(799,570,l),
(818,640,l),
(830,569,l),
(944,1,l),
(988,1,l),
(848,685,l),
(800,685,l),
(587,107,l),
(569,43,l),
(551,107,l),
(339,685,l),
(291,685,l),
(161,72,l),
(152,41,o),
(142,26,o),
(119,26,cs),
(97,26,o),
(78,45,o),
(83,69,c),
(42,80,l),
(40,72,o),
(39,65,o),
(39,58,cs),
(39,11,o),
(79,-16,o),
(120,-16,cs)
);
}
);
width = 1037;
}
);
userData = {
position = 664;
width = 20;
};
},
{
glyphname = N;
kernLeft = N;
layers = (
{
anchors = (
{
name = bottom;
pos = (422,0);
},
{
name = eng;
pos = (682,177);
},
{
name = top;
pos = (421,684);
}
);
layerId = "873CAA12-270D-4223-A88E-AE8E101FDBE8";
shapes = (
{
closed = 1;
nodes = (
(156,-13,o),
(202,23,o),
(202,79,cs),
(198,584,l),
(210,563,l),
(661,0,l),
(682,0,l),
(682,683,l),
(620,683,l),
(623,129,l),
(609,151,l),
(289,559,l),
(178,684,l),
(140,684,l),
(140,80,ls),
(140,62,o),
(125,44,o),
(107,44,cs),
(98,44,o),
(83,49,o),
(76,60,c),
(29,28,l),
(47,2,o),
(76,-13,o),
(108,-13,cs)
);
}
);
width = 781;
},
{
anchors = (
{
name = bottom;
pos = (407,0);
},
{
name = eng;
pos = (687,177);
},
{
name = top;
pos = (421,684);
}
);
layerId = "0CAF3BED-C4AC-4024-B3E1-4C69D1EF7EC0";
shapes = (
{
closed = 1;
nodes = (
(170,-12,o),
(220,31,o),
(220,90,cs),
(218,524,l),
(207,550,l),
(648,-1,l),
(686,-1,l),
(686,685,l),
(602,685,l),
(605,177,l),
(609,162,l),
(302,561,l),
(191,686,l),
(137,686,l),
(137,90,ls),
(137,79,o),
(130,68,o),
(118,66,cs),
(107,64,o),
(94,67,o),
(86,83,c),
(27,43,l),
(45,10,o),
(80,-12,o),
(118,-12,cs)
);
}
);
width = 783;
},
{
anchors = (
{
name = bottom;
pos = (424,-7);
},
{
name = eng;
pos = (680,177);
},
{
name = top;
pos = (423,693);
}
);
layerId = "49C16FD3-6177-408B-A733-AEB3898BB77C";
shapes = (
{
closed = 1;
nodes = (
(147,-17,o),
(187,12,o),
(187,70,cs),
(183,618,l),
(214,573,l),
(673,1,l),
(680,1,l),
(680,684,l),
(635,684,l),
(638,97,l),
(610,142,l),
(282,560,l),
(171,685,l),
(143,685,l),
(143,70,ls),
(143,42,o),
(123,26,o),
(102,26,cs),
(94,26,o),
(79,33,o),
(71,42,c),
(33,15,l),
(51,-6,o),
(73,-17,o),
(101,-17,cs)
);
}
);
width = 784;
}
);
unicode = 78;
userData = {
position = 642;
width = 56;
};
},
{
glyphname = N.ss01;
layers = (
{
anchors = (
{
name = bottom;
pos = (392,0);
},
{
name = eng;
pos = (653,144);
},
{
name = top;
pos = (392,684);
}
);
layerId = "873CAA12-270D-4223-A88E-AE8E101FDBE8";
shapes = (
{
closed = 1;
nodes = (
(160,0,l),
(160,482,l),
(154,561,l),
(206,493,l),
(558,57,l),
(614,-1,l),
(653,-1,l),
(653,685,l),
(593,685,l),
(593,149,l),
(594,99,l),
(560,144,l),
(119,694,l),
(100,694,l),
(100,0,l)
);
}
);
width = 753;
},
{
anchors = (
{
name = bottom;
pos = (392,0);
},
{
name = eng;
pos = (654,144);
},
{
name = top;
pos = (392,684);
}
);
layerId = "0CAF3BED-C4AC-4024-B3E1-4C69D1EF7EC0";
shapes = (
{
closed = 1;
nodes = (
(179,-1,l),
(179,452,l),
(174,518,l),
(213,466,l),
(554,56,l),
(612,-1,l),
(654,-1,l),
(654,687,l),
(573,687,l),
(574,163,l),
(575,135,l),
(561,160,l),
(132,696,l),
(97,696,l),
(97,-1,l)
);
}
);
width = 751;
},
{
anchors = (
{
name = bottom;
pos = (397,0);
},
{
name = eng;
pos = (652,144);
},
{
name = top;
pos = (392,684);
}
);
layerId = "49C16FD3-6177-408B-A733-AEB3898BB77C";
shapes = (
{
closed = 1;
nodes = (
(147,1,l),
(147,554,l),
(143,602,l),
(170,553,l),
(575,52,l),
(626,0,l),
(652,0,l),
(652,686,l),
(608,686,l),
(610,118,l),
(617,63,l),
(589,101,l),
(111,695,l),
(105,695,l),
(105,1,l)
);
}
);
width = 756;
}
);
userData = {
position = 605;
width = 61;
};
},
{
glyphname = N.swsh;
kernLeft = N;
layers = (
{
anchors = (
{
name = bottom;
pos = (438,0);
},
{
name = top;
pos = (437,684);
}
);
layerId = "873CAA12-270D-4223-A88E-AE8E101FDBE8";
shapes = (
{
closed = 1;
nodes = (
(213,584,l),
(226,563,l),
(677,0,l),
(698,0,l),
(698,683,l),
(636,683,l),
(639,129,l),
(625,151,l),
(305,559,l),
(194,684,l),
(155,684,l),
(155,125,l),
(217,125,l)
);
},
{
pos = (4,680);
ref = _top_swash.part;
scale = (1,-1);
}
);
width = 797;
},
{
anchors = (
{
name = bottom;
pos = (422,0);
},
{
name = top;
pos = (436,684);
}
);
layerId = "0CAF3BED-C4AC-4024-B3E1-4C69D1EF7EC0";
shapes = (
{
closed = 1;
nodes = (
(230,539,l),
(222,550,l),
(663,-1,l),
(701,-1,l),
(701,685,l),
(617,685,l),
(620,177,l),
(624,162,l),
(317,561,l),
(204,686,l),
(150,686,l),
(151,119,l),
(233,119,l)
);
},
{
pos = (-16,686);
ref = _top_swash.part;
scale = (1,-1);
}
);
width = 798;
},
{
anchors = (
{
name = bottom;
pos = (435,-7);
},
{
name = top;
pos = (434,693);
}
);
layerId = "49C16FD3-6177-408B-A733-AEB3898BB77C";
shapes = (
{
closed = 1;
nodes = (
(198,618,l),
(225,574,l),
(684,1,l),
(690,1,l),
(690,684,l),
(646,684,l),
(649,97,l),
(620,143,l),
(292,560,l),
(181,685,l),
(157,685,l),
(157,121,l),
(200,121,l)
);
},
{
pos = (-38,680);
ref = _top_swash.part;
scale = (1,-1);
}
);
width = 794;
}
);
userData = {
position = 642;
width = 56;
};
},
{
glyphname = Nhookleft;
kernLeft = N;
layers = (
{
anchors = (
{
name = bottom;
pos = (395,0);
},
{
name = top;
pos = (394,684);
}
);
layerId = "49C16FD3-6177-408B-A733-AEB3898BB77C";
shapes = (
{
closed = 1;
nodes = (
(89,-201,o),
(149,-170,o),
(149,-97,cs),
(145,614,l),
(172,573,l),
(642,1,l),
(656,1,l),
(656,684,l),
(612,684,l),
(615,94,l),
(588,133,l),
(241,558,l),
(130,685,l),
(105,685,l),
(105,-97,ls),
(105,-126,o),
(78,-158,o),
(43,-158,cs),
(15,-158,o),
(-15,-135,o),
(-19,-103,c),
(-62,-103,l),
(-59,-158,o),
(-12,-201,o),
(40,-201,cs)
);
}
);
width = 761;
},
{
anchors = (
{
name = bottom;
pos = (390,0);
},
{
name = top;
pos = (383,684);
}
);
layerId = "873CAA12-270D-4223-A88E-AE8E101FDBE8";
shapes = (
{
closed = 1;
nodes = (
(92,-204,o),
(163,-175,o),
(163,-95,cs),
(159,584,l),
(173,563,l),
(640,0,l),
(665,0,l),
(665,683,l),
(603,683,l),
(606,121,l),
(592,143,l),
(252,559,l),
(141,684,l),
(100,684,l),
(100,-95,ls),
(100,-125,o),
(77,-148,o),
(46,-148,cs),
(19,-148,o),
(-9,-136,o),
(-9,-94,c),
(-65,-94,l),
(-65,-164,o),
(-13,-204,o),
(43,-204,cs)
);
}
);
width = 765;
},
{
anchors = (
{
name = bottom;
pos = (257,0);
},
{
name = top;
pos = (891,496);
}
);
layerId = "0CAF3BED-C4AC-4024-B3E1-4C69D1EF7EC0";
shapes = (
{
closed = 1;
nodes = (
(105,-204,o),
(184,-172,o),
(183,-86,cs),
(179,539,l),
(171,550,l),
(627,-1,l),
(670,-1,l),
(670,685,l),
(586,685,l),
(589,173,l),
(593,158,l),
(221,610,l),
(151,686,l),
(98,686,l),
(98,-86,ls),
(98,-106,o),
(79,-127,o),
(57,-127,cs),
(23,-127,o),
(13,-99,o),
(11,-85,c),
(-63,-86,l),
(-63,-150,o),
(-15,-204,o),
(54,-204,cs)
);
}
);
width = 767;
}
);
unicode = 413;
},
{
glyphname = O;
kernLeft = O;
kernRight = O;
layers = (
{
anchors = (
{
name = bottom;
pos = (401,0);
},
{
name = center;
pos = (402,342);
},
{
name = horn;
pos = (514,677);
},
{
name = ogonek;
pos = (612,55);
},
{
name = top;
pos = (397,684);
},
{
name = topleft;
pos = (29,684);
},
{
name = topright;
pos = (798,684);
}
);
layerId = "873CAA12-270D-4223-A88E-AE8E101FDBE8";
shapes = (
{
closed = 1;
nodes = (
(596,-17,o),
(740,130,o),
(740,330,cs),
(740,349,ls),
(740,548,o),
(592,700,o),
(398,700,cs),
(205,700,o),
(57,548,o),
(57,349,cs),
(57,330,ls),
(57,133,o),
(206,-17,o),
(402,-17,cs)
);
},
{
closed = 1;
nodes = (
(238,39,o),
(117,163,o),
(117,330,cs),
(117,349,ls),
(117,516,o),
(239,644,o),
(397,644,cs),
(557,644,o),
(680,517,o),
(680,349,cs),
(680,330,ls),
(680,163,o),
(559,39,o),
(399,39,cs)
);
}
);
width = 798;
},
{
anchors = (
{
name = bottom;
pos = (401,-27);
},
{
name = center;
pos = (396,339);
},
{
name = horn;
pos = (500,689);
},
{
name = ogonek;
pos = (615,54);
},
{
name = top;
pos = (397,684);
},
{
name = topleft;
pos = (25,684);
},
{
name = topright;
pos = (800,684);
}
);
layerId = "0CAF3BED-C4AC-4024-B3E1-4C69D1EF7EC0";
shapes = (
{
closed = 1;
nodes = (
(593,-25,o),
(739,126,o),
(739,326,cs),
(739,355,ls),
(739,548,o),
(587,702,o),
(397,702,cs),
(207,702,o),
(56,548,o),
(56,355,cs),
(56,326,ls),
(56,126,o),
(200,-19,o),
(401,-22,cs)
);
},
{
closed = 1;
nodes = (
(250,54,o),
(138,170,o),
(138,326,cs),
(138,355,ls),
(138,504,o),
(252,626,o),
(396,626,cs),
(542,626,o),
(657,504,o),
(657,355,cs),
(657,326,ls),
(657,170,o),
(545,54,o),
(398,54,cs)
);
}
);
width = 795;
},
{
anchors = (
{
name = bottom;
pos = (406,1);
},
{
name = center;
pos = (407,342);
},
{
name = horn;
pos = (515,691);
},
{
name = ogonek;
pos = (605,46);
},
{
name = top;
pos = (402,693);
},
{
name = topleft;
pos = (32,684);
},
{
name = topright;
pos = (805,684);
}
);
layerId = "49C16FD3-6177-408B-A733-AEB3898BB77C";
shapes = (
{
closed = 1;
nodes = (
(603,-14,o),
(745,131,o),
(745,331,cs),
(745,350,ls),
(745,550,o),
(597,702,o),
(403,702,cs),
(209,702,o),
(63,551,o),
(63,350,cs),
(63,331,ls),
(63,133,o),
(210,-14,o),
(407,-14,cs)
);
},
{
closed = 1;
nodes = (
(233,24,o),
(105,156,o),
(105,331,cs),
(105,350,ls),
(105,526,o),
(234,662,o),
(402,662,cs),
(571,662,o),
(703,526,o),
(703,350,cs),
(703,331,ls),
(703,156,o),
(574,24,o),
(404,24,cs)
);
}
);
width = 808;
}
);
unicode = 79;
userData = {
position = 683;
width = 56;
};
},
{
glyphname = P;
kernLeft = E;
kernRight = P;
layers = (
{
anchors = (
{
name = bottom;
pos = (293,0);
},
{
name = top;
pos = (293,684);
}
);
hints = (
{
name = _corner.caps_left;
origin = (0,22);
type = Corner;
}
);
layerId = "873CAA12-270D-4223-A88E-AE8E101FDBE8";
shapes = (
{
closed = 1;
nodes = (
(210,-1,l),
(210,628,l),
(352,628,ls),
(439,628,o),
(498,579,o),
(498,471,cs),
(498,355,o),
(431,313,o),
(332,313,cs),
(317,313,o),
(294,314,o),
(263,316,c),
(263,262,l),
(292,259,o),
(317,257,o),
(337,257,cs),
(454,257,o),
(558,323,o),
(558,472,cs),
(558,593,o),
(490,684,o),
(366,684,cs),
(150,684,l),
(150,-1,l)
);
}
);
width = 607;
},
{
anchors = (
{
name = bottom;
pos = (305,0);
},
{
name = top;
pos = (305,684);
}
);
hints = (
{
name = _corner.caps_left;
origin = (0,22);
type = Corner;
}
);
layerId = "0CAF3BED-C4AC-4024-B3E1-4C69D1EF7EC0";
shapes = (
{
closed = 1;
nodes = (
(238,-1,l),
(238,610,l),
(364,610,ls),
(442,610,o),
(495,565,o),
(495,468,cs),
(495,364,o),
(435,325,o),
(345,325,cs),
(328,325,o),
(310,326,o),
(274,332,c),
(274,259,l),
(306,251,o),
(327,249,o),
(349,249,cs),
(478,249,o),
(577,318,o),
(577,469,cs),
(577,590,o),
(504,686,o),
(378,686,cs),
(156,686,l),
(156,-1,l)
);
}
);
width = 623;
},
{
anchors = (
{
name = bottom;
pos = (281,0);
},
{
name = top;
pos = (281,684);
}
);
hints = (
{
name = _corner.caps_left;
origin = (0,22);
type = Corner;
}
);
layerId = "49C16FD3-6177-408B-A733-AEB3898BB77C";
shapes = (
{
closed = 1;
nodes = (
(184,0,l),
(184,645,l),
(339,645,ls),
(431,645,o),
(499,590,o),
(499,475,cs),
(499,351,o),
(421,305,o),
(318,305,cs),
(306,305,o),
(288,306,o),
(254,308,c),
(254,270,l),
(284,266,o),
(308,265,o),
(323,265,cs),
(440,265,o),
(541,328,o),
(541,476,cs),
(541,596,o),
(475,686,o),
(353,685,cs),
(142,684,l),
(142,0,l)
);
}
);
width = 594;
}
);
unicode = 80;
userData = {
position = 480;
width = 59;
};
},
{
glyphname = P.ss01;
kernLeft = E;
kernRight = P;
layers = (
{
anchors = (
{
name = bottom;
pos = (275,0);
},
{
name = top;
pos = (275,684);
}
);
layerId = "873CAA12-270D-4223-A88E-AE8E101FDBE8";
shapes = (
{
closed = 1;
nodes = (
(428,254,o),
(511,337,o),
(511,470,cs),
(511,597,o),
(436,684,o),
(318,684,cs),
(100,684,l),
(100,628,l),
(304,628,ls),
(392,628,o),
(451,572,o),
(451,473,cs),
(451,369,o),
(385,310,o),
(261,310,cs),
(232,310,o),
(188,312,o),
(152,313,c),
(152,256,l),
(157,256,o),
(221,254,o),
(249,254,cs)
);
},
{
closed = 1;
nodes = (
(160,-1,l),
(160,681,l),
(100,681,l),
(100,-1,l)
);
}
);
width = 559;
},
{
anchors = (
{
name = bottom;
pos = (278,0);
},
{
name = top;
pos = (278,684);
}
);
layerId = "0CAF3BED-C4AC-4024-B3E1-4C69D1EF7EC0";
shapes = (
{
closed = 1;
nodes = (
(432,246,o),
(520,333,o),
(520,467,cs),
(520,594,o),
(440,686,o),
(320,686,cs),
(97,686,l),
(97,610,l),
(307,610,ls),
(385,610,o),
(438,559,o),
(438,470,cs),
(438,376,o),
(379,322,o),
(265,322,cs),
(234,322,o),
(188,325,o),
(148,326,c),
(148,249,l),
(164,249,o),
(230,246,o),
(253,246,cs)
);
},
{
closed = 1;
nodes = (
(179,-1,l),
(179,683,l),
(97,683,l),
(97,-1,l)
);
}
);
width = 566;
},
{
anchors = (
{
name = bottom;
pos = (267,0);
},
{
name = top;
pos = (267,684);
}
);
layerId = "49C16FD3-6177-408B-A733-AEB3898BB77C";
shapes = (
{
closed = 1;
nodes = (
(423,262,o),
(508,343,o),
(508,475,cs),
(508,600,o),
(431,685,o),
(317,685,cs),
(104,685,l),
(104,645,l),
(303,645,ls),
(398,645,o),
(466,584,o),
(466,478,cs),
(466,366,o),
(389,302,o),
(259,302,cs),
(235,302,o),
(165,300,o),
(132,301,c),
(132,264,l),
(151,264,o),
(226,262,o),
(247,262,cs)
);
},
{
closed = 1;
nodes = (
(146,0,l),
(146,681,l),
(104,681,l),
(104,0,l)
);
}
);
width = 561;
}
);
userData = {
position = 480;
width = 59;
};
},
{
glyphname = P.swsh;
kernLeft = Swash;
kernRight = P;
layers = (
{
anchors = (
{
name = bottom;
pos = (307,0);
},
{
name = top;
pos = (307,684);
}
);
hints = (
{
name = _corner.caps_swash;
origin = (0,6);
type = Corner;
}
);
layerId = "873CAA12-270D-4223-A88E-AE8E101FDBE8";
shapes = (
{
closed = 1;
nodes = (
(477,255,o),
(575,332,o),
(575,474,cs),
(575,592,o),
(507,684,o),
(383,684,cs),
(143,684,l),
(143,627,l),
(369,627,ls),
(460,627,o),
(516,570,o),
(516,474,cs),
(516,373,o),
(454,310,o),
(337,310,cs),
(316,310,o),
(298,312,o),
(278,315,c),
(278,260,l),
(293,257,o),
(310,255,o),
(333,255,cs)
);
},
{
closed = 1;
nodes = (
(227,-1,l),
(227,569,l),
(166,569,l),
(166,-1,l)
);
}
);
width = 623;
},
{
anchors = (
{
name = bottom;
pos = (312,0);
},
{
name = top;
pos = (312,684);
}
);
hints = (
{
name = _corner.caps_swash;
origin = (0,6);
type = Corner;
}
);
layerId = "0CAF3BED-C4AC-4024-B3E1-4C69D1EF7EC0";
shapes = (
{
closed = 1;
nodes = (
(486,247,o),
(588,328,o),
(588,471,cs),
(588,589,o),
(517,686,o),
(391,686,cs),
(147,686,l),
(147,609,l),
(377,609,ls),
(458,609,o),
(508,557,o),
(508,471,cs),
(508,380,o),
(453,323,o),
(356,323,cs),
(332,323,o),
(312,324,o),
(287,330,c),
(287,254,l),
(304,250,o),
(326,247,o),
(352,247,cs)
);
},
{
closed = 1;
nodes = (
(251,-1,l),
(251,569,l),
(168,569,l),
(168,-1,l)
);
}
);
width = 634;
},
{
anchors = (
{
name = bottom;
pos = (314,0);
},
{
name = top;
pos = (314,684);
}
);
hints = (
{
name = _corner.caps_swash;
origin = (0,6);
type = Corner;
}
);
layerId = "49C16FD3-6177-408B-A733-AEB3898BB77C";
shapes = (
{
closed = 1;
nodes = (
(482,262,o),
(578,337,o),
(578,478,cs),
(578,595,o),
(512,685,o),
(389,685,cs),
(144,685,l),
(144,644,l),
(375,644,ls),
(472,644,o),
(535,580,o),
(535,478,cs),
(535,372,o),
(466,301,o),
(342,301,cs),
(325,301,o),
(307,303,o),
(291,305,c),
(291,266,l),
(316,263,o),
(321,262,o),
(338,262,cs)
);
},
{
closed = 1;
nodes = (
(221,0,l),
(221,569,l),
(176,569,l),
(176,0,l)
);
}
);
width = 631;
}
);
userData = {
position = 480;
width = 59;
};
},
{
glyphname = Thorn;
kernRight = O;
layers = (
{
anchors = (
{
name = bottom;
pos = (280,0);
},
{
name = top;
pos = (280,684);
}
);
layerId = "873CAA12-270D-4223-A88E-AE8E101FDBE8";
shapes = (
{
closed = 1;
nodes = (
(160,0,l),
(160,507,l),
(298,507,ls),
(391,507,o),
(450,456,o),
(450,356,cs),
(450,241,o),
(372,193,o),
(271,193,cs),
(251,193,o),
(234,195,o),
(214,198,c),
(214,141,l),
(227,139,o),
(244,137,o),
(268,137,cs),
(403,137,o),
(510,201,o),
(510,352,cs),
(510,477,o),
(436,556,o),
(317,563,c),
(160,563,l),
(160,684,l),
(100,684,l),
(100,0,l)
);
}
);
width = 558;
},
{
anchors = (
{
name = bottom;
pos = (282,0);
},
{
name = top;
pos = (282,684);
}
);
layerId = "0CAF3BED-C4AC-4024-B3E1-4C69D1EF7EC0";
shapes = (
{
closed = 1;
nodes = (
(179,-1,l),
(179,493,l),
(300,493,ls),
(384,493,o),
(436,446,o),
(436,356,cs),
(436,253,o),
(367,208,o),
(274,208,cs),
(251,208,o),
(230,211,o),
(205,215,c),
(205,138,l),
(217,136,o),
(240,132,o),
(271,132,cs),
(406,132,o),
(518,200,o),
(518,353,cs),
(518,478,o),
(440,562,o),
(320,569,c),
(179,569,l),
(179,686,l),
(97,686,l),
(97,-1,l)
);
}
);
width = 564;
},
{
anchors = (
{
name = bottom;
pos = (271,0);
},
{
name = top;
pos = (271,684);
}
);
layerId = "49C16FD3-6177-408B-A733-AEB3898BB77C";
shapes = (
{
closed = 1;
nodes = (
(147,1,l),
(147,520,l),
(296,520,ls),
(395,520,o),
(461,464,o),
(461,357,cs),
(461,235,o),
(375,180,o),
(268,180,cs),
(251,180,o),
(234,180,o),
(217,183,c),
(217,145,l),
(227,143,o),
(244,142,o),
(265,142,cs),
(401,142,o),
(503,204,o),
(503,353,cs),
(503,478,o),
(433,553,o),
(315,560,c),
(147,560,l),
(147,685,l),
(105,685,l),
(105,1,l)
);
}
);
width = 556;
}
);
unicode = 222;
userData = {
position = 403;
width = 59;
};
},
{
glyphname = Q;
kernLeft = O;
kernRight = O;
layers = (
{
anchors = (
{
name = bottom;
pos = (390,0);
},
{
name = top;
pos = (390,684);
}
);
layerId = "873CAA12-270D-4223-A88E-AE8E101FDBE8";
shapes = (
{
closed = 1;
nodes = (
(272,-138,l),
(371,-171,ls),
(407,-183,o),
(445,-193,o),
(501,-193,cs),
(537,-193,o),
(562,-189,o),
(616,-150,c),
(591,-106,l),
(549,-135,o),
(525,-141,o),
(494,-141,cs),
(465,-141,o),
(421,-134,o),
(383,-121,cs),
(303,-94,l),
(362,-9,l),
(390,-9,ls),
(589,-9,o),
(722,138,o),
(722,341,cs),
(722,542,o),
(592,694,o),
(389,694,cs),
(189,694,o),
(57,545,o),
(57,342,cs),
(57,179,o),
(140,39,o),
(305,0,c),
(187,-166,l),
(230,-199,l)
);
},
{
closed = 1;
nodes = (
(217,45,o),
(117,174,o),
(117,343,cs),
(117,514,o),
(220,639,o),
(390,639,cs),
(560,639,o),
(662,513,o),
(662,343,cs),
(662,173,o),
(561,45,o),
(389,45,cs)
);
}
);
width = 779;
},
{
anchors = (
{
name = bottom;
pos = (388,0);
},
{
name = top;
pos = (388,684);
}
);
layerId = "0CAF3BED-C4AC-4024-B3E1-4C69D1EF7EC0";
shapes = (
{
closed = 1;
nodes = (
(279,-137,l),
(367,-166,ls),
(405,-178,o),
(439,-188,o),
(496,-188,cs),
(534,-188,o),
(563,-183,o),
(623,-138,c),
(587,-75,l),
(541,-108,o),
(521,-114,o),
(490,-114,cs),
(459,-114,o),
(422,-107,o),
(386,-95,cs),
(323,-74,l),
(367,-9,l),
(388,-9,ls),
(587,-9,o),
(724,140,o),
(724,342,cs),
(724,541,o),
(590,696,o),
(388,696,cs),
(189,696,o),
(54,544,o),
(54,343,cs),
(54,187,o),
(133,48,o),
(287,4,c),
(176,-152,l),
(236,-199,l)
);
},
{
closed = 1;
nodes = (
(228,65,o),
(136,186,o),
(136,344,cs),
(136,503,o),
(231,622,o),
(389,622,cs),
(546,622,o),
(642,502,o),
(642,344,cs),
(642,185,o),
(547,65,o),
(388,65,cs)
);
}
);
width = 778;
},
{
anchors = (
{
name = bottom;
pos = (395,0);
},
{
name = top;
pos = (395,684);
}
);
layerId = "49C16FD3-6177-408B-A733-AEB3898BB77C";
shapes = (
{
closed = 1;
nodes = (
(269,-138,l),
(377,-174,ls),
(424,-190,o),
(460,-197,o),
(508,-197,cs),
(541,-197,o),
(566,-193,o),
(615,-159,c),
(597,-129,l),
(558,-155,o),
(532,-161,o),
(501,-161,cs),
(466,-161,o),
(426,-154,o),
(384,-140,cs),
(292,-109,l),
(361,-8,l),
(395,-8,ls),
(594,-8,o),
(726,138,o),
(726,342,cs),
(726,544,o),
(597,695,o),
(394,695,cs),
(193,695,o),
(62,547,o),
(62,343,cs),
(62,174,o),
(149,33,o),
(323,-1,c),
(198,-176,l),
(229,-199,l)
);
},
{
closed = 1;
nodes = (
(213,30,o),
(104,168,o),
(104,344,cs),
(104,522,o),
(216,657,o),
(395,657,cs),
(572,657,o),
(684,522,o),
(684,344,cs),
(684,167,o),
(574,30,o),
(394,30,cs)
);
}
);
width = 788;
}
);
unicode = 81;
userData = {
position = 652;
width = 60;
};
},
{
glyphname = R;
kernLeft = E;
kernRight = K;
layers = (
{
anchors = (
{
name = bottom;
pos = (333,0);
},
{
name = top;
pos = (310,684);
}
);
hints = (
{
name = _corner.caps_left;
origin = (0,48);
type = Corner;
}
);
layerId = "873CAA12-270D-4223-A88E-AE8E101FDBE8";
shapes = (
{
closed = 1;
nodes = (
(150,0,l),
(210,0,l),
(210,628,l),
(370,628,ls),
(448,628,o),
(502,566,o),
(502,477,cs),
(502,388,o),
(447,332,o),
(359,332,cs),
(272,332,l),
(272,276,l),
(349,269,o),
(378,232,o),
(407,193,cs),
(526,29,ls),
(545,3,o),
(569,-10,o),
(600,-10,cs),
(631,-10,o),
(660,5,o),
(676,29,c),
(629,63,l),
(622,52,o),
(611,45,o),
(599,45,cs),
(589,45,o),
(581,50,o),
(573,61,cs),
(428,257,ls),
(420,268,o),
(400,282,o),
(390,285,cs),
(386,286,o),
(381,288,o),
(377,289,c),
(385,289,o),
(394,290,o),
(402,290,cs),
(495,290,o),
(562,373,o),
(562,477,cs),
(562,561,o),
(520,635,o),
(454,667,cs),
(431,678,o),
(405,684,o),
(374,684,cs),
(150,684,l)
);
}
);
width = 705;
},
{
anchors = (
{
name = bottom;
pos = (345,11);
},
{
name = top;
pos = (332,684);
}
);
hints = (
{
name = _corner.caps_left;
origin = (0,48);
type = Corner;
}
);
layerId = "0CAF3BED-C4AC-4024-B3E1-4C69D1EF7EC0";
shapes = (
{
closed = 1;
nodes = (
(156,-1,l),
(238,-1,l),
(238,611,l),
(382,611,ls),
(450,611,o),
(498,554,o),
(498,474,cs),
(498,394,o),
(449,345,o),
(371,345,cs),
(295,345,l),
(295,268,l),
(365,264,o),
(373,240,o),
(408,192,cs),
(523,32,ls),
(544,3,o),
(574,-10,o),
(604,-10,cs),
(639,-10,o),
(673,9,o),
(691,38,c),
(628,82,l),
(624,72,o),
(616,66,o),
(607,66,cs),
(599,66,o),
(593,70,o),
(588,77,cs),
(485,222,ls),
(474,237,o),
(464,249,o),
(452,264,cs),
(443,275,o),
(434,284,o),
(421,289,c),
(445,289,o),
(473,296,o),
(489,306,cs),
(547,342,o),
(580,404,o),
(580,474,cs),
(580,558,o),
(535,637,o),
(468,669,cs),
(443,681,o),
(415,686,o),
(385,686,cs),
(156,686,l)
);
}
);
width = 718;
},
{
anchors = (
{
name = bottom;
pos = (320,-8);
},
{
name = top;
pos = (285,684);
}
);
hints = (
{
name = _corner.caps_left;
origin = (0,48);
type = Corner;
}
);
layerId = "49C16FD3-6177-408B-A733-AEB3898BB77C";
shapes = (
{
closed = 1;
nodes = (
(143,1,l),
(185,1,l),
(185,645,l),
(358,645,ls),
(442,645,o),
(504,575,o),
(504,482,cs),
(504,387,o),
(441,323,o),
(347,323,cs),
(266,323,l),
(266,284,l),
(344,274,o),
(374,234,o),
(402,196,cs),
(525,28,ls),
(544,2,o),
(568,-9,o),
(594,-9,cs),
(622,-9,o),
(647,3,o),
(662,24,c),
(631,45,l),
(622,36,o),
(607,30,o),
(593,30,cs),
(580,30,o),
(568,37,o),
(558,50,cs),
(410,250,ls),
(397,267,o),
(384,281,o),
(372,285,cs),
(370,286,o),
(359,291,o),
(351,294,c),
(364,294,o),
(377,294,o),
(390,294,cs),
(479,294,o),
(546,375,o),
(546,482,cs),
(546,565,o),
(506,636,o),
(441,668,cs),
(417,680,o),
(391,685,o),
(362,685,cs),
(143,684,l)
);
}
);
width = 696;
}
);
unicode = 82;
userData = {
position = 619;
width = 57;
};
},
{
glyphname = R.ss01;
kernRight = K;
layers = (
{
anchors = (
{
name = bottom;
pos = (323,0);
},
{
name = top;
pos = (266,684);
}
);
layerId = "873CAA12-270D-4223-A88E-AE8E101FDBE8";
shapes = (
{
closed = 1;
nodes = (
(566,-7,o),
(579,-3,o),
(593,7,c),
(568,56,l),
(563,52,o),
(556,50,o),
(548,50,cs),
(534,50,o),
(528,56,o),
(520,65,cs),
(498,90,o),
(400,226,o),
(378,256,cs),
(365,273,o),
(346,288,o),
(323,293,c),
(326,293,o),
(367,291,o),
(386,295,cs),
(430,304,o),
(511,369,o),
(511,483,cs),
(511,596,o),
(432,684,o),
(323,684,cs),
(99,684,l),
(99,628,l),
(319,628,ls),
(396,628,o),
(451,565,o),
(451,477,cs),
(451,388,o),
(395,332,o),
(308,332,cs),
(221,332,l),
(221,276,l),
(288,272,o),
(314,248,o),
(355,193,cs),
(474,32,ls),
(484,19,o),
(505,-7,o),
(549,-7,cs)
);
},
{
closed = 1;
nodes = (
(159,0,l),
(159,672,l),
(99,672,l),
(99,0,l)
);
}
);
width = 623;
},
{
anchors = (
{
name = bottom;
pos = (324,0);
},
{
name = top;
pos = (267,684);
}
);
layerId = "0CAF3BED-C4AC-4024-B3E1-4C69D1EF7EC0";
shapes = (
{
closed = 1;
nodes = (
(574,-10,o),
(595,-3,o),
(607,10,c),
(571,73,l),
(564,66,o),
(559,64,o),
(550,64,cs),
(540,64,o),
(533,69,o),
(521,84,cs),
(494,118,o),
(407,238,o),
(396,252,cs),
(375,278,o),
(363,286,o),
(324,297,c),
(330,297,o),
(376,296,o),
(404,304,cs),
(468,322,o),
(521,398,o),
(521,484,cs),
(521,591,o),
(438,686,o),
(327,686,cs),
(97,686,l),
(97,610,l),
(323,610,ls),
(391,610,o),
(439,554,o),
(439,474,cs),
(439,394,o),
(390,345,o),
(312,345,cs),
(216,345,l),
(216,268,l),
(294,266,o),
(321,229,o),
(349,191,cs),
(465,32,ls),
(485,5,o),
(512,-10,o),
(549,-10,cs)
);
},
{
closed = 1;
nodes = (
(179,-1,l),
(179,675,l),
(97,675,l),
(97,-1,l)
);
}
);
width = 634;
},
{
anchors = (
{
name = bottom;
pos = (253,-3);
},
{
name = top;
pos = (253,684);
}
);
layerId = "49C16FD3-6177-408B-A733-AEB3898BB77C";
shapes = (
{
closed = 1;
nodes = (
(571,-8,o),
(579,-6,o),
(589,0,c),
(572,33,l),
(568,31,o),
(563,30,o),
(554,30,cs),
(540,30,o),
(529,37,o),
(521,48,cs),
(503,73,o),
(389,227,o),
(365,258,cs),
(347,281,o),
(334,289,o),
(299,294,c),
(321,294,o),
(335,295,o),
(352,296,cs),
(447,302,o),
(510,374,o),
(510,483,cs),
(510,600,o),
(432,684,o),
(324,684,cs),
(104,684,l),
(104,644,l),
(320,644,ls),
(406,644,o),
(468,576,o),
(468,482,cs),
(468,385,o),
(404,320,o),
(309,320,cs),
(231,320,l),
(231,283,l),
(294,276,o),
(329,246,o),
(367,194,cs),
(488,27,ls),
(505,4,o),
(527,-8,o),
(555,-8,cs)
);
},
{
closed = 1;
nodes = (
(146,0,l),
(146,671,l),
(104,671,l),
(104,0,l)
);
}
);
width = 623;
}
);
userData = {
position = 619;
width = 57;
};
},
{
glyphname = R.swsh;
kernLeft = Swash;
kernRight = K;
layers = (
{
anchors = (
{
name = bottom;
pos = (396,0);
},
{
name = top;
pos = (396,0);
}
);
hints = (
{
name = _corner.caps_swash;
origin = (0,25);
type = Corner;
}
);
layerId = "873CAA12-270D-4223-A88E-AE8E101FDBE8";
shapes = (
{
closed = 1;
nodes = (
(672,-10,o),
(707,32,o),
(707,79,c),
(650,81,l),
(650,58,o),
(634,45,o),
(617,45,cs),
(607,45,o),
(598,49,o),
(589,61,cs),
(544,121,o),
(493,192,o),
(443,257,cs),
(433,270,o),
(416,283,o),
(392,289,c),
(401,290,o),
(413,291,o),
(417,291,cs),
(519,299,o),
(577,380,o),
(577,478,cs),
(577,589,o),
(504,684,o),
(389,684,cs),
(143,684,l),
(143,628,l),
(385,628,ls),
(467,628,o),
(517,559,o),
(517,476,cs),
(517,388,o),
(461,332,o),
(374,332,cs),
(289,332,l),
(289,276,l),
(366,270,o),
(396,228,o),
(422,193,cs),
(542,29,ls),
(561,3,o),
(587,-10,o),
(617,-10,cs)
);
},
{
closed = 1;
nodes = (
(224,0,l),
(224,582,l),
(164,582,l),
(164,0,l)
);
}
);
width = 740;
},
{
anchors = (
{
name = bottom;
pos = (403,11);
},
{
name = top;
pos = (403,11);
}
);
hints = (
{
name = _corner.caps_swash;
origin = (0,25);
type = Corner;
}
);
layerId = "0CAF3BED-C4AC-4024-B3E1-4C69D1EF7EC0";
shapes = (
{
closed = 1;
nodes = (
(680,-10,o),
(721,45,o),
(715,99,c),
(638,98,l),
(643,78,o),
(632,66,o),
(616,66,cs),
(609,66,o),
(603,68,o),
(596,77,cs),
(596,77,o),
(591,82,o),
(583,94,cs),
(553,135,o),
(498,211,o),
(455,267,cs),
(452,271,o),
(438,281,o),
(425,281,c),
(529,290,o),
(591,375,o),
(591,475,cs),
(591,586,o),
(514,686,o),
(396,686,cs),
(147,686,l),
(147,610,l),
(393,610,ls),
(464,610,o),
(509,548,o),
(509,473,cs),
(509,394,o),
(459,345,o),
(382,345,cs),
(298,345,l),
(298,268,l),
(375,264,o),
(389,234,o),
(419,192,cs),
(534,32,ls),
(555,3,o),
(586,-10,o),
(616,-10,cs)
);
},
{
closed = 1;
nodes = (
(248,-1,l),
(248,569,l),
(166,569,l),
(166,-1,l)
);
}
);
width = 747;
},
{
anchors = (
{
name = bottom;
pos = (404,-10);
},
{
name = top;
pos = (404,-10);
}
);
hints = (
{
name = _corner.caps_swash;
origin = (0,25);
type = Corner;
}
);
layerId = "49C16FD3-6177-408B-A733-AEB3898BB77C";
shapes = (
{
closed = 1;
nodes = (
(675,-9,o),
(708,18,o),
(713,62,c),
(676,63,l),
(671,41,o),
(653,26,o),
(634,26,cs),
(621,26,o),
(610,31,o),
(596,49,cs),
(547,113,o),
(500,179,o),
(441,256,cs),
(435,264,o),
(418,287,o),
(378,292,c),
(394,292,o),
(424,292,o),
(424,292,cs),
(520,291,o),
(580,386,o),
(580,484,cs),
(580,594,o),
(510,685,o),
(397,685,cs),
(144,685,l),
(144,645,l),
(393,645,ls),
(482,645,o),
(540,569,o),
(540,482,cs),
(540,388,o),
(475,321,o),
(382,321,cs),
(302,321,l),
(302,285,l),
(372,276,o),
(405,242,o),
(438,196,cs),
(563,28,ls),
(580,5,o),
(600,-9,o),
(632,-9,cs)
);
},
{
closed = 1;
nodes = (
(218,1,l),
(218,569,l),
(176,569,l),
(176,1,l)
);
}
);
width = 750;
}
);
userData = {
position = 619;
width = 57;
};
},
{
glyphname = S;
kernLeft = S;
kernRight = S;
layers = (
{
anchors = (
{
name = bottom;
pos = (286,-32);
},
{
name = top;
pos = (287,684);
}
);
layerId = "873CAA12-270D-4223-A88E-AE8E101FDBE8";
shapes = (
{
closed = 1;
nodes = (
(411,-21,o),
(513,74,o),
(513,194,cs),
(513,282,o),
(460,340,o),
(319,400,cs),
(208,447,o),
(164,486,o),
(164,543,cs),
(164,602,o),
(221,651,o),
(291,651,cs),
(346,651,o),
(394,621,o),
(394,587,cs),
(394,565,o),
(376,548,o),
(354,551,c),
(350,499,l),
(408,492,o),
(452,534,o),
(452,586,cs),
(452,655,o),
(383,706,o),
(290,706,cs),
(183,706,o),
(104,635,o),
(104,540,cs),
(104,459,o),
(154,409,o),
(284,354,cs),
(416,299,o),
(453,262,o),
(453,193,cs),
(453,103,o),
(379,34,o),
(282,34,cs),
(188,34,o),
(105,92,o),
(84,173,c),
(34,152,l),
(59,53,o),
(166,-21,o),
(282,-21,cs)
);
}
);
width = 560;
},
{
anchors = (
{
name = bottom;
pos = (285,0);
},
{
name = top;
pos = (296,684);
}
);
layerId = "0CAF3BED-C4AC-4024-B3E1-4C69D1EF7EC0";
shapes = (
{
closed = 1;
nodes = (
(418,-20,o),
(523,75,o),
(523,202,cs),
(523,295,o),
(465,356,o),
(322,415,cs),
(229,453,o),
(184,492,o),
(184,537,cs),
(184,587,o),
(236,629,o),
(298,629,cs),
(346,629,o),
(386,605,o),
(386,576,cs),
(386,556,o),
(369,542,o),
(352,549,c),
(346,481,l),
(413,471,o),
(465,512,o),
(465,577,cs),
(465,649,o),
(391,705,o),
(296,705,cs),
(187,705,o),
(103,630,o),
(103,533,cs),
(103,453,o),
(158,398,o),
(291,343,cs),
(407,296,o),
(440,265,o),
(440,201,cs),
(440,116,o),
(375,56,o),
(281,56,cs),
(192,56,o),
(119,113,o),
(101,196,c),
(32,166,l),
(55,55,o),
(154,-20,o),
(279,-20,cs)
);
}
);
width = 568;
},
{
anchors = (
{
name = bottom;
pos = (285,8);
},
{
name = top;
pos = (277,684);
}
);
layerId = "49C16FD3-6177-408B-A733-AEB3898BB77C";
shapes = (
{
closed = 1;
nodes = (
(412,-16,o),
(509,73,o),
(509,198,cs),
(509,291,o),
(456,344,o),
(297,411,cs),
(178,462,o),
(150,487,o),
(150,543,cs),
(150,606,o),
(218,661,o),
(295,661,cs),
(358,661,o),
(405,628,o),
(405,583,cs),
(405,555,o),
(388,537,o),
(364,539,c),
(361,501,l),
(405,496,o),
(447,532,o),
(447,585,cs),
(447,654,o),
(384,701,o),
(293,701,cs),
(187,701,o),
(108,633,o),
(108,541,cs),
(108,468,o),
(148,428,o),
(275,375,cs),
(421,314,o),
(466,272,o),
(466,197,cs),
(466,98,o),
(386,24,o),
(278,24,cs),
(184,24,o),
(103,80,o),
(77,164,c),
(39,149,l),
(70,50,o),
(165,-16,o),
(277,-16,cs)
);
}
);
width = 561;
}
);
unicode = 83;
userData = {
position = 433;
width = 55;
};
},
{
glyphname = S.ss01;
kernLeft = S;
kernRight = S;
layers = (
{
anchors = (
{
name = bottom;
pos = (292,0);
},
{
name = top;
pos = (285,684);
}
);
layerId = "873CAA12-270D-4223-A88E-AE8E101FDBE8";
shapes = (
{
closed = 1;
nodes = (
(395,-23,o),
(503,61,o),
(503,186,cs),
(503,267,o),
(462,320,o),
(357,376,cs),
(290,412,o),
(158,454,o),
(158,544,cs),
(158,604,o),
(216,648,o),
(285,648,cs),
(329,648,o),
(385,628,o),
(385,586,c),
(441,583,l),
(445,652,o),
(372,703,o),
(287,703,cs),
(187,703,o),
(98,640,o),
(98,541,cs),
(98,437,o),
(196,391,o),
(327,328,cs),
(409,288,o),
(443,252,o),
(443,187,cs),
(443,95,o),
(370,32,o),
(277,32,cs),
(200,32,o),
(113,79,o),
(86,164,c),
(35,144,l),
(62,45,o),
(178,-23,o),
(277,-23,cs)
);
}
);
width = 549;
},
{
anchors = (
{
name = bottom;
pos = (283,0);
},
{
name = top;
pos = (291,684);
}
);
layerId = "0CAF3BED-C4AC-4024-B3E1-4C69D1EF7EC0";
shapes = (
{
closed = 1;
nodes = (
(405,-21,o),
(513,65,o),
(513,193,cs),
(513,279,o),
(466,329,o),
(365,384,cs),
(302,418,o),
(182,461,o),
(182,538,cs),
(182,587,o),
(232,628,o),
(291,628,cs),
(330,628,o),
(385,601,o),
(376,566,c),
(454,561,l),
(468,635,o),
(388,704,o),
(293,704,cs),
(192,704,o),
(100,637,o),
(100,535,cs),
(100,426,o),
(199,381,o),
(318,323,cs),
(402,283,o),
(431,251,o),
(431,194,cs),
(431,110,o),
(364,55,o),
(283,55,cs),
(211,55,o),
(129,102,o),
(107,190,c),
(33,159,l),
(55,53,o),
(163,-21,o),
(283,-21,cs)
);
}
);
width = 557;
},
{
anchors = (
{
name = bottom;
pos = (268,0);
},
{
name = top;
pos = (268,684);
}
);
layerId = "49C16FD3-6177-408B-A733-AEB3898BB77C";
shapes = (
{
closed = 1;
nodes = (
(393,-21,o),
(497,60,o),
(497,184,cs),
(497,264,o),
(436,316,o),
(325,382,cs),
(268,416,o),
(148,454,o),
(148,544,cs),
(148,608,o),
(212,660,o),
(284,660,cs),
(330,660,o),
(388,640,o),
(393,593,c),
(437,591,l),
(436,657,o),
(370,700,o),
(287,700,cs),
(187,700,o),
(106,638,o),
(106,541,cs),
(106,439,o),
(202,407,o),
(312,344,cs),
(402,292,o),
(453,254,o),
(453,185,cs),
(453,88,o),
(374,19,o),
(276,19,cs),
(198,19,o),
(108,67,o),
(78,152,c),
(39,137,l),
(68,42,o),
(180,-21,o),
(276,-21,cs)
);
}
);
width = 547;
}
);
userData = {
position = 433;
width = 55;
};
},
{
glyphname = S.swsh;
kernLeft = S;
kernRight = S;
layers = (
{
anchors = (
{
name = bottom;
pos = (276,0);
},
{
name = top;
pos = (282,684);
}
);
layerId = "873CAA12-270D-4223-A88E-AE8E101FDBE8";
shapes = (
{
closed = 1;
nodes = (
(396,-14,o),
(506,67,o),
(506,184,cs),
(506,300,o),
(409,356,o),
(307,406,cs),
(237,441,o),
(173,473,o),
(173,539,cs),
(173,598,o),
(222,642,o),
(284,642,cs),
(363,642,o),
(394,611,o),
(394,585,cs),
(394,569,o),
(386,560,o),
(375,560,cs),
(367,560,o),
(359,566,o),
(356,572,c),
(308,549,l),
(323,520,o),
(350,507,o),
(376,507,cs),
(421,507,o),
(450,544,o),
(450,589,cs),
(450,656,o),
(375,696,o),
(290,696,cs),
(192,696,o),
(113,635,o),
(113,539,cs),
(113,448,o),
(191,399,o),
(282,356,cs),
(367,316,o),
(446,276,o),
(446,185,cs),
(446,103,o),
(368,42,o),
(274,42,cs),
(198,42,o),
(130,87,o),
(107,146,cs),
(97,171,o),
(95,203,o),
(106,232,c),
(52,252,l),
(39,214,o),
(40,170,o),
(54,132,cs),
(89,38,o),
(178,-14,o),
(276,-14,cs)
);
}
);
width = 553;
},
{
anchors = (
{
name = bottom;
pos = (295,-25);
},
{
name = top;
pos = (300,694);
}
);
layerId = "0CAF3BED-C4AC-4024-B3E1-4C69D1EF7EC0";
shapes = (
{
closed = 1;
nodes = (
(412,-26,o),
(523,57,o),
(523,182,cs),
(523,300,o),
(439,357,o),
(326,411,cs),
(266,440,o),
(190,479,o),
(190,542,cs),
(190,588,o),
(230,631,o),
(293,631,cs),
(345,631,o),
(391,611,o),
(391,585,cs),
(391,574,o),
(387,566,o),
(379,566,cs),
(373,566,o),
(367,569,o),
(365,575,c),
(303,541,l),
(319,510,o),
(351,493,o),
(381,493,cs),
(433,493,o),
(468,534,o),
(468,587,cs),
(468,642,o),
(419,707,o),
(291,706,cs),
(186,705,o),
(108,628,o),
(108,541,cs),
(108,444,o),
(193,386,o),
(284,347,cs),
(366,312,o),
(441,267,o),
(441,184,cs),
(441,109,o),
(367,50,o),
(284,50,cs),
(206,50,o),
(145,97,o),
(123,151,cs),
(116,168,o),
(113,194,o),
(116,214,c),
(41,225,l),
(38,191,o),
(38,161,o),
(50,129,cs),
(83,39,o),
(179,-26,o),
(287,-26,cs)
);
}
);
width = 569;
},
{
anchors = (
{
name = bottom;
pos = (274,0);
},
{
name = top;
pos = (286,695);
}
);
layerId = "49C16FD3-6177-408B-A733-AEB3898BB77C";
shapes = (
{
closed = 1;
nodes = (
(410,-13,o),
(494,84,o),
(494,183,cs),
(494,275,o),
(430,334,o),
(343,378,cs),
(261,420,o),
(159,458,o),
(159,541,cs),
(159,600,o),
(214,655,o),
(281,655,cs),
(331,655,o),
(392,632,o),
(397,595,cs),
(401,565,o),
(386,552,o),
(371,552,cs),
(361,552,o),
(352,557,o),
(347,568,c),
(311,550,l),
(322,524,o),
(348,512,o),
(372,512,cs),
(415,512,o),
(439,549,o),
(439,588,cs),
(439,656,o),
(366,695,o),
(286,695,cs),
(183,695,o),
(117,616,o),
(117,540,cs),
(117,429,o),
(231,390,o),
(336,336,cs),
(401,303,o),
(452,263,o),
(452,186,cs),
(452,97,o),
(373,27,o),
(271,27,cs),
(164,27,o),
(89,113,o),
(89,192,cs),
(89,205,o),
(91,218,o),
(95,231,c),
(55,244,l),
(50,228,o),
(47,211,o),
(47,194,cs),
(47,93,o),
(142,-13,o),
(274,-13,cs)
);
}
);
width = 546;
},
{
anchors = (
{
name = bottom;
pos = (273,-24);
},
{
name = top;
pos = (278,714);
}
);
associatedMasterId = "49C16FD3-6177-408B-A733-AEB3898BB77C";
layerId = "07BC72AF-B0D1-4139-ADAE-DF16B9206D67";
name = "Sep 24 19, 11:40";
shapes = (
{
closed = 1;
nodes = (
(492,228,o),
(470,280,o),
(419,322,c),
(334,394,o),
(204,413,o),
(155,498,c),
(112,575,o),
(181,664,o),
(270,660,c),
(322,659,o),
(386,638,o),
(388,595,c),
(390,546,o),
(348,543,o),
(335,570,c),
(297,551,l),
(309,529,o),
(327,516,o),
(351,512,c),
(434,499,o),
(479,630,o),
(369,682,c),
(230,748,o),
(72,653,o),
(99,518,c),
(135,336,o),
(494,360,o),
(442,136,c),
(392,-33,o),
(120,-25,o),
(72,144,c),
(29,131,l),
(44,83,o),
(76,42,o),
(117,14,c),
(271,-89,o),
(500,0,o),
(493,183,c)
);
}
);
width = 534;
},
{
anchors = (
{
name = bottom;
pos = (278,-25);
},
{
name = top;
pos = (283,706);
}
);
associatedMasterId = "873CAA12-270D-4223-A88E-AE8E101FDBE8";
layerId = "8F60F1D1-073F-47A4-A90D-78AE31FB1A17";
name = "Sep 24 19, 11:40";
shapes = (
{
closed = 1;
nodes = (
(497,236,o),
(475,289,o),
(424,332,cs),
(342,400,o),
(215,420,o),
(169,500,cs),
(133,565,o),
(184,645,o),
(269,649,cs),
(310,649,o),
(372,635,o),
(378,594,cs),
(385,549,o),
(348,550,o),
(338,570,c),
(291,546,l),
(330,473,o),
(438,499,o),
(436,591,cs),
(434,665,o),
(360,700,o),
(275,702,cs),
(141,705,o),
(50,566,o),
(128,458,cs),
(207,350,o),
(382,351,o),
(432,229,c),
(483,75,o),
(282,-29,o),
(147,71,cs),
(119,93,o),
(98,122,o),
(89,155,c),
(35,139,l),
(113,-104,o),
(508,-56,o),
(498,191,cs)
);
}
);
width = 544;
},
{
anchors = (
{
name = bottom;
pos = (289,-25);
},
{
name = top;
pos = (294,696);
}
);
associatedMasterId = "0CAF3BED-C4AC-4024-B3E1-4C69D1EF7EC0";
layerId = "343A3424-8ADD-44AD-B7AD-98CA22AF63FA";
name = "Sep 24 19, 11:40";
shapes = (
{
closed = 1;
nodes = (
(510,346,o),
(334,398,o),
(265,438,cs),
(227,459,o),
(180,494,o),
(177,538,cs),
(172,577,o),
(202,622,o),
(253,635,cs),
(295,646,o),
(359,629,o),
(378,596,cs),
(389,577,o),
(380,569,o),
(372,567,cs),
(368,566,o),
(362,571,o),
(359,575,c),
(294,543,l),
(317,499,o),
(364,486,o),
(402,501,cs),
(478,531,o),
(490,662,o),
(356,701,cs),
(200,745,o),
(76,638,o),
(101,514,cs),
(135,345,o),
(401,359,o),
(433,211,cs),
(467,79,o),
(258,-19,o),
(143,102,cs),
(130,114,o),
(115,137,o),
(108,162,c),
(35,141,l),
(116,-110,o),
(524,-61,o),
(514,196,cs)
);
}
);
width = 561;
}
);
userData = {
position = 433;
width = 55;
};
},
{
glyphname = Germandbls;
kernRight = B;
layers = (
{
anchors = (
{
name = bottom;
pos = (405,0);
},
{
name = top;
pos = (405,684);
}
);
layerId = "49C16FD3-6177-408B-A733-AEB3898BB77C";
shapes = (
{
closed = 1;
nodes = (
(289,0,o),
(309,0,o),
(330,0,cs),
(480,0,o),
(581,85,o),
(581,215,cs),
(581,360,o),
(478,439,o),
(344,438,c),
(521,684,l),
(105,686,l),
(105,0,l),
(147,0,l),
(147,645,l),
(443,645,l),
(295,438,l),
(295,402,l),
(304,402,o),
(315,403,o),
(330,403,cs),
(460,403,o),
(539,345,o),
(539,211,cs),
(539,108,o),
(452,36,o),
(323,36,cs),
(303,36,o),
(286,38,o),
(269,38,c),
(269,0,l)
);
}
);
width = 634;
},
{
anchors = (
{
name = bottom;
pos = (363,0);
},
{
name = top;
pos = (363,684);
}
);
layerId = "873CAA12-270D-4223-A88E-AE8E101FDBE8";
shapes = (
{
closed = 1;
nodes = (
(292,0,o),
(337,-1,o),
(345,-1,cs),
(491,-3,o),
(586,79,o),
(586,216,cs),
(586,323,o),
(508,429,o),
(353,436,c),
(542,684,l),
(100,685,l),
(100,0,l),
(160,0,l),
(160,629,l),
(431,629,l),
(287,436,l),
(287,381,l),
(304,381,o),
(320,382,o),
(335,382,cs),
(449,382,o),
(526,326,o),
(526,219,cs),
(526,141,o),
(476,63,o),
(379,55,cs),
(366,54,o),
(319,53,o),
(266,53,c),
(266,0,l)
);
}
);
width = 635;
},
{
anchors = (
{
name = bottom;
pos = (397,0);
},
{
name = top;
pos = (397,684);
}
);
layerId = "0CAF3BED-C4AC-4024-B3E1-4C69D1EF7EC0";
shapes = (
{
closed = 1;
nodes = (
(295,0,o),
(332,0,o),
(354,0,cs),
(507,0,o),
(602,64,o),
(602,233,cs),
(602,320,o),
(535,432,o),
(389,442,c),
(573,684,l),
(97,684,l),
(97,-1,l),
(179,-1,l),
(179,608,l),
(416,608,l),
(295,445,l),
(295,372,l),
(307,372,o),
(320,373,o),
(333,373,cs),
(419,373,o),
(519,330,o),
(520,232,cs),
(521,113,o),
(458,77,o),
(341,77,cs),
(320,77,o),
(299,78,o),
(272,78,c),
(272,0,l)
);
}
);
width = 651;
}
);
unicode = 7838;
},
{
glyphname = Schwa;
kernLeft = O;
kernRight = O;
layers = (
{
anchors = (
{
name = bottom;
pos = (436,1004);
},
{
name = ogonek;
pos = (120,882);
},
{
name = top;
pos = (429,-29);
}
);
layerId = "49C16FD3-6177-408B-A733-AEB3898BB77C";
shapes = (
{
closed = 1;
nodes = (
(321,978,o),
(212,941,o),
(120,882,c),
(136,854,l),
(232,905,o),
(314,940,o),
(430,940,cs),
(758,940,o),
(788,620,o),
(788,509,cs),
(788,183,o),
(624,10,o),
(437,10,cs),
(262,10,o),
(118,162,o),
(118,367,cs),
(118,400,o),
(120,439,o),
(127,482,c),
(88,482,l),
(84,443,o),
(82,411,o),
(82,373,cs),
(82,139,o),
(222,-19,o),
(436,-19,cs),
(693,-19,o),
(827,222,o),
(827,509,cs),
(827,792,o),
(693,978,o),
(437,978,cs)
);
},
{
closed = 1;
nodes = (
(122,482,l),
(122,442,l),
(791,442,l),
(791,482,l)
);
}
);
userData = {
RMXScaler = {
height = 140;
weight = -145;
width = 135;
};
};
width = 920;
},
{
anchors = (
{
name = bottom;
pos = (440,997);
},
{
name = ogonek;
pos = (116,882);
},
{
name = top;
pos = (436,-27);
}
);
layerId = "873CAA12-270D-4223-A88E-AE8E101FDBE8";
shapes = (
{
closed = 1;
nodes = (
(323,982,o),
(210,944,o),
(116,882,c),
(140,842,l),
(239,895,o),
(320,930,o),
(433,930,cs),
(751,930,o),
(778,620,o),
(778,511,cs),
(778,192,o),
(621,26,o),
(440,26,cs),
(271,26,o),
(133,171,o),
(133,371,cs),
(133,401,o),
(135,444,o),
(143,491,c),
(87,491,l),
(82,444,o),
(80,408,o),
(80,376,cs),
(80,141,o),
(226,-20,o),
(439,-20,cs),
(697,-20,o),
(834,225,o),
(834,511,cs),
(834,792,o),
(697,982,o),
(440,982,cs)
);
},
{
closed = 1;
nodes = (
(122,491,l),
(122,437,l),
(797,437,l),
(797,491,l)
);
}
);
userData = {
RMXScaler = {
height = 140;
weight = -145;
width = 135;
};
};
width = 923;
},
{
anchors = (
{
name = bottom;
pos = (445,990);
},
{
name = ogonek;
pos = (111,882);
},
{
name = top;
pos = (445,-20);
}
);
layerId = "0CAF3BED-C4AC-4024-B3E1-4C69D1EF7EC0";
shapes = (
{
closed = 1;
nodes = (
(317,990,o),
(199,944,o),
(111,882,c),
(147,822,l),
(244,875,o),
(327,912,o),
(438,912,cs),
(740,912,o),
(761,621,o),
(761,515,cs),
(761,211,o),
(616,51,o),
(446,51,cs),
(287,51,o),
(157,189,o),
(157,377,cs),
(157,415,o),
(161,456,o),
(171,509,c),
(81,509,l),
(77,464,o),
(73,418,o),
(73,382,cs),
(73,147,o),
(231,-20,o),
(444,-20,cs),
(706,-20,o),
(845,232,o),
(845,514,cs),
(845,795,o),
(704,990,o),
(446,990,cs)
);
},
{
closed = 1;
nodes = (
(120,509,l),
(120,429,l),
(809,429,l),
(809,509,l)
);
}
);
userData = {
RMXScaler = {
height = 140;
weight = -120;
width = 135;
};
};
width = 927;
}
);
unicode = 399;
userData = {
RMXScaler = {
source = e.ss01;
};
};
},
{
glyphname = T;
kernLeft = T;
kernRight = T;
layers = (
{
anchors = (
{
name = bottom;
pos = (311,0);
},
{
name = center;
pos = (317,352);
},
{
name = top;
pos = (310,684);
}
);
layerId = "873CAA12-270D-4223-A88E-AE8E101FDBE8";
shapes = (
{
closed = 1;
nodes = (
(340,0,l),
(340,628,l),
(574,628,l),
(574,684,l),
(121,684,ls),
(97,684,o),
(76,674,o),
(59,657,cs),
(42,640,o),
(33,618,o),
(33,594,c),
(90,594,l),
(90,610,o),
(102,628,o),
(124,628,cs),
(280,628,l),
(280,0,l)
);
}
);
width = 607;
},
{
anchors = (
{
name = bottom;
pos = (314,0);
},
{
name = center;
pos = (312,352);
},
{
name = top;
pos = (319,684);
}
);
layerId = "0CAF3BED-C4AC-4024-B3E1-4C69D1EF7EC0";
shapes = (
{
closed = 1;
nodes = (
(354,-1,l),
(354,610,l),
(580,610,l),
(580,686,l),
(130,686,ls),
(104,686,o),
(79,675,o),
(61,657,cs),
(40,636,o),
(30,605,o),
(33,576,c),
(111,576,l),
(104,595,o),
(115,610,o),
(133,610,cs),
(272,610,l),
(272,-1,l)
);
}
);
width = 613;
},
{
anchors = (
{
name = bottom;
pos = (313,0);
},
{
name = center;
pos = (312,352);
},
{
name = top;
pos = (311,684);
}
);
layerId = "49C16FD3-6177-408B-A733-AEB3898BB77C";
shapes = (
{
closed = 1;
nodes = (
(332,1,l),
(332,645,l),
(571,645,l),
(571,685,l),
(118,685,ls),
(94,685,o),
(77,676,o),
(61,660,cs),
(46,645,o),
(38,630,o),
(37,610,c),
(78,610,l),
(83,629,o),
(99,645,o),
(121,645,cs),
(290,645,l),
(290,1,l)
);
}
);
width = 608;
}
);
unicode = 84;
userData = {
position = 277;
width = 61;
};
},
{
glyphname = T.ss01;
kernLeft = T;
kernRight = T;
layers = (
{
anchors = (
{
name = bottom;
pos = (297,0);
},
{
name = center;
pos = (303,361);
},
{
name = top;
pos = (297,684);
}
);
layerId = "873CAA12-270D-4223-A88E-AE8E101FDBE8";
shapes = (
{
closed = 1;
nodes = (
(327,0,l),
(327,628,l),
(561,628,l),
(561,684,l),
(33,684,l),
(33,628,l),
(267,628,l),
(267,0,l)
);
}
);
width = 594;
},
{
anchors = (
{
name = bottom;
pos = (302,0);
},
{
name = center;
pos = (307,355);
},
{
name = top;
pos = (301,684);
}
);
layerId = "0CAF3BED-C4AC-4024-B3E1-4C69D1EF7EC0";
shapes = (
{
closed = 1;
nodes = (
(342,-1,l),
(342,610,l),
(569,610,l),
(569,686,l),
(33,686,l),
(33,610,l),
(260,610,l),
(260,-1,l)
);
}
);
width = 602;
},
{
anchors = (
{
name = bottom;
pos = (302,0);
},
{
name = center;
pos = (304,348);
},
{
name = top;
pos = (298,684);
}
);
layerId = "49C16FD3-6177-408B-A733-AEB3898BB77C";
shapes = (
{
closed = 1;
nodes = (
(322,1,l),
(322,644,l),
(561,644,l),
(561,685,l),
(37,685,l),
(37,644,l),
(277,644,l),
(277,1,l)
);
}
);
width = 598;
}
);
userData = {
position = 254;
width = 61;
};
},
{
glyphname = T.swsh;
kernLeft = T;
kernRight = T;
layers = (
{
anchors = (
{
name = bottom;
pos = (338,0);
},
{
name = center;
pos = (343,342);
},
{
name = top;
pos = (339,684);
}
);
hints = (
{
name = _corner.caps_swash;
origin = (0,4);
type = Corner;
}
);
layerId = "873CAA12-270D-4223-A88E-AE8E101FDBE8";
shapes = (
{
closed = 1;
nodes = (
(367,0,l),
(367,628,l),
(606,628,l),
(606,684,l),
(143,684,l),
(143,628,l),
(307,628,l),
(307,0,l)
);
}
);
width = 640;
},
{
anchors = (
{
name = bottom;
pos = (337,0);
},
{
name = center;
pos = (341,343);
},
{
name = top;
pos = (336,687);
}
);
hints = (
{
name = _corner.caps_swash;
origin = (0,4);
type = Corner;
}
);
layerId = "0CAF3BED-C4AC-4024-B3E1-4C69D1EF7EC0";
shapes = (
{
closed = 1;
nodes = (
(376,-1,l),
(376,610,l),
(607,610,l),
(607,686,l),
(147,686,l),
(147,610,l),
(294,610,l),
(294,-1,l)
);
}
);
width = 640;
},
{
anchors = (
{
name = bottom;
pos = (342,0);
},
{
name = center;
pos = (349,343);
},
{
name = top;
pos = (343,684);
}
);
hints = (
{
name = _corner.caps_swash;
origin = (0,4);
type = Corner;
}
);
layerId = "49C16FD3-6177-408B-A733-AEB3898BB77C";
shapes = (
{
closed = 1;
nodes = (
(363,1,l),
(363,645,l),
(607,645,l),
(607,685,l),
(144,685,l),
(144,645,l),
(321,645,l),
(321,1,l)
);
}
);
width = 644;
}
);
userData = {
position = 277;
width = 61;
};
},
{
glyphname = U;
kernLeft = E;
kernRight = U;
layers = (
{
anchors = (
{
name = bottom;
pos = (394,-10);
},
{
name = center;
pos = (393,342);
},
{
name = horn;
pos = (622,684);
},
{
name = ogonek;
pos = (564,55);
},
{
name = top;
pos = (392,684);
},
{
name = topright;
pos = (700,684);
}
);
hints = (
{
name = _corner.caps_vert;
origin = (0,12);
type = Corner;
}
);
layerId = "873CAA12-270D-4223-A88E-AE8E101FDBE8";
shapes = (
{
closed = 1;
nodes = (
(570,-10,o),
(649,132,o),
(649,267,cs),
(649,684,l),
(589,684,l),
(589,267,ls),
(589,161,o),
(532,46,o),
(393,46,cs),
(265,46,o),
(196,145,o),
(196,267,cs),
(196,569,l),
(136,569,l),
(136,267,ls),
(136,118,o),
(228,-10,o),
(394,-10,cs)
);
}
);
width = 734;
},
{
anchors = (
{
name = bottom;
pos = (392,2);
},
{
name = center;
pos = (391,342);
},
{
name = horn;
pos = (632,683);
},
{
name = ogonek;
pos = (557,47);
},
{
name = top;
pos = (390,675);
},
{
name = topright;
pos = (702,684);
}
);
hints = (
{
name = _corner.caps_vert;
origin = (0,12);
type = Corner;
}
);
layerId = "0CAF3BED-C4AC-4024-B3E1-4C69D1EF7EC0";
shapes = (
{
closed = 1;
nodes = (
(569,-13,o),
(651,133,o),
(651,267,cs),
(651,683,l),
(569,683,l),
(569,267,ls),
(569,169,o),
(516,62,o),
(391,62,cs),
(275,62,o),
(212,158,o),
(212,267,cs),
(212,569,l),
(130,569,l),
(130,267,ls),
(130,119,o),
(225,-13,o),
(392,-13,cs)
);
}
);
width = 733;
},
{
anchors = (
{
name = bottom;
pos = (386,-18);
},
{
name = center;
pos = (385,342);
},
{
name = horn;
pos = (633,684);
},
{
name = ogonek;
pos = (547,46);
},
{
name = top;
pos = (377,684);
},
{
name = topright;
pos = (686,684);
}
);
hints = (
{
name = _corner.caps_vert;
origin = (0,12);
type = Corner;
}
);
layerId = "49C16FD3-6177-408B-A733-AEB3898BB77C";
shapes = (
{
closed = 1;
nodes = (
(562,-10,o),
(637,130,o),
(637,265,cs),
(637,684,l),
(595,684,l),
(595,265,ls),
(595,155,o),
(533,30,o),
(385,30,cs),
(249,30,o),
(175,138,o),
(175,265,cs),
(175,569,l),
(133,569,l),
(133,265,ls),
(133,116,o),
(221,-10,o),
(386,-10,cs)
);
}
);
width = 727;
}
);
unicode = 85;
userData = {
position = 606;
width = 61;
};
},
{
glyphname = U.ss01;
kernLeft = U;
kernRight = U;
layers = (
{
anchors = (
{
name = bottom;
pos = (341,-10);
},
{
name = center;
pos = (343,342);
},
{
name = horn;
pos = (570,684);
},
{
name = ogonek;
pos = (521,59);
},
{
name = top;
pos = (348,684);
},
{
name = topright;
pos = (647,684);
}
);
layerId = "873CAA12-270D-4223-A88E-AE8E101FDBE8";
shapes = (
{
closed = 1;
nodes = (
(490,-10,o),
(600,98,o),
(600,267,cs),
(600,684,l),
(540,684,l),
(540,267,ls),
(540,133,o),
(458,45,o),
(343,45,cs),
(230,45,o),
(145,131,o),
(145,267,cs),
(145,684,l),
(85,684,l),
(85,267,ls),
(85,108,o),
(186,-10,o),
(341,-10,cs)
);
}
);
width = 685;
},
{
anchors = (
{
name = bottom;
pos = (353,0);
},
{
name = center;
pos = (353,342);
},
{
name = horn;
pos = (614,686);
},
{
name = ogonek;
pos = (537,61);
},
{
name = top;
pos = (358,675);
},
{
name = topright;
pos = (678,684);
}
);
layerId = "0CAF3BED-C4AC-4024-B3E1-4C69D1EF7EC0";
shapes = (
{
closed = 1;
nodes = (
(510,-10,o),
(624,101,o),
(624,270,cs),
(624,686,l),
(542,686,l),
(542,270,ls),
(542,147,o),
(468,63,o),
(353,63,cs),
(241,63,o),
(164,145,o),
(164,270,cs),
(164,686,l),
(82,686,l),
(82,270,ls),
(82,112,o),
(186,-10,o),
(351,-10,cs)
);
}
);
width = 706;
},
{
anchors = (
{
name = bottom;
pos = (340,-9);
},
{
name = center;
pos = (343,342);
},
{
name = horn;
pos = (579,685);
},
{
name = ogonek;
pos = (503,46);
},
{
name = top;
pos = (349,684);
},
{
name = topright;
pos = (658,686);
}
);
layerId = "49C16FD3-6177-408B-A733-AEB3898BB77C";
shapes = (
{
closed = 1;
nodes = (
(491,-9,o),
(595,98,o),
(595,266,cs),
(595,685,l),
(553,685,l),
(553,266,ls),
(553,126,o),
(465,31,o),
(343,31,cs),
(223,31,o),
(132,124,o),
(132,266,cs),
(132,685,l),
(90,685,l),
(90,266,ls),
(90,107,o),
(186,-9,o),
(341,-9,cs)
);
}
);
width = 685;
}
);
userData = {
position = 564;
width = 61;
};
},
{
glyphname = U.swsh;
kernLeft = Swash;
kernRight = U;
layers = (
{
anchors = (
{
name = bottom;
pos = (413,-10);
},
{
name = center;
pos = (415,342);
},
{
name = horn;
pos = (643,684);
},
{
name = ogonek;
pos = (599,67);
},
{
name = top;
pos = (420,684);
},
{
name = topright;
pos = (726,684);
}
);
hints = (
{
name = _corner.caps_swash_vert;
origin = (0,12);
type = Corner;
}
);
layerId = "873CAA12-270D-4223-A88E-AE8E101FDBE8";
shapes = (
{
closed = 1;
nodes = (
(562,-10,o),
(672,98,o),
(672,267,cs),
(672,684,l),
(612,684,l),
(612,267,ls),
(612,133,o),
(530,46,o),
(415,46,cs),
(302,46,o),
(217,131,o),
(217,267,cs),
(217,569,l),
(157,569,l),
(157,267,ls),
(157,108,o),
(258,-10,o),
(413,-10,cs)
);
}
);
width = 757;
},
{
anchors = (
{
name = bottom;
pos = (412,0);
},
{
name = center;
pos = (412,342);
},
{
name = horn;
pos = (635,684);
},
{
name = ogonek;
pos = (595,63);
},
{
name = top;
pos = (417,675);
},
{
name = topright;
pos = (727,684);
}
);
hints = (
{
name = _corner.caps_swash_vert;
origin = (0,12);
type = Corner;
}
);
layerId = "0CAF3BED-C4AC-4024-B3E1-4C69D1EF7EC0";
shapes = (
{
closed = 1;
nodes = (
(559,-10,o),
(673,101,o),
(673,270,cs),
(673,686,l),
(591,686,l),
(591,270,ls),
(591,147,o),
(517,63,o),
(412,63,cs),
(310,63,o),
(233,145,o),
(233,270,cs),
(233,569,l),
(151,569,l),
(151,270,ls),
(151,112,o),
(255,-10,o),
(410,-10,cs)
);
}
);
width = 755;
},
{
anchors = (
{
name = bottom;
pos = (406,-9);
},
{
name = center;
pos = (409,342);
},
{
name = horn;
pos = (640,684);
},
{
name = ogonek;
pos = (587,61);
},
{
name = top;
pos = (415,694);
},
{
name = topright;
pos = (667,684);
}
);
hints = (
{
name = _corner.caps_swash_vert;
origin = (0,12);
type = Corner;
}
);
layerId = "49C16FD3-6177-408B-A733-AEB3898BB77C";
shapes = (
{
closed = 1;
nodes = (
(557,-9,o),
(661,98,o),
(661,266,cs),
(661,685,l),
(619,685,l),
(619,266,ls),
(619,126,o),
(531,31,o),
(409,31,cs),
(289,31,o),
(198,124,o),
(198,266,cs),
(198,570,l),
(156,570,l),
(156,266,ls),
(156,107,o),
(252,-9,o),
(407,-9,cs)
);
}
);
width = 751;
}
);
userData = {
position = 564;
width = 61;
};
},
{
glyphname = V;
kernLeft = V;
kernRight = V;
layers = (
{
anchors = (
{
name = bottom;
pos = (367,0);
},
{
name = top;
pos = (367,684);
}
);
background = {
shapes = (
{
closed = 1;
nodes = (
(396,0,l),
(622,685,l),
(562,685,l),
(376,123,l),
(367,84,l),
(358,122,l),
(182,638,ls),
(172,668,o),
(142,690,o),
(104,690,cs),
(72,690,o),
(43,675,o),
(25,649,c),
(74,616,l),
(81,626,o),
(92,632,o),
(102,632,cs),
(115,632,o),
(127,623,o),
(132,610,cs),
(338,0,l)
);
}
);
};
hints = (
{
name = _corner.caps_diag;
origin = (0,6);
type = Corner;
}
);
layerId = "873CAA12-270D-4223-A88E-AE8E101FDBE8";
shapes = (
{
closed = 1;
nodes = (
(396,0,l),
(633,685,l),
(573,685,l),
(376,123,l),
(367,84,l),
(358,122,l),
(176,630,l),
(121,610,l),
(338,0,l)
);
}
);
width = 669;
},
{
anchors = (
{
name = bottom;
pos = (359,0);
},
{
name = top;
pos = (361,684);
}
);
background = {
shapes = (
{
closed = 1;
nodes = (
(398,-1,l),
(626,687,l),
(544,687,l),
(371,163,l),
(361,123,l),
(351,161,l),
(193,636,ls),
(183,667,o),
(147,692,o),
(106,692,cs),
(64,692,o),
(31,671,o),
(13,634,c),
(76,592,l),
(81,606,o),
(93,611,o),
(101,611,cs),
(113,611,o),
(119,607,o),
(122,599,cs),
(324,-1,l)
);
}
);
};
hints = (
{
name = _corner.caps_diag;
origin = (0,6);
type = Corner;
}
);
layerId = "0CAF3BED-C4AC-4024-B3E1-4C69D1EF7EC0";
shapes = (
{
closed = 1;
nodes = (
(398,-1,l),
(636,687,l),
(554,687,l),
(371,163,l),
(361,123,l),
(351,161,l),
(184,628,l),
(109,597,l),
(324,-1,l)
);
}
);
width = 670;
},
{
anchors = (
{
name = bottom;
pos = (352,0);
},
{
name = top;
pos = (351,684);
}
);
background = {
shapes = (
{
closed = 1;
nodes = (
(373,1,l),
(598,686,l),
(551,686,l),
(362,98,l),
(351,53,l),
(340,97,l),
(161,630,ls),
(145,677,o),
(118,691,o),
(82,691,cs),
(55,691,o),
(31,680,o),
(14,660,c),
(52,635,l),
(60,643,o),
(71,648,o),
(80,648,cs),
(95,648,o),
(111,638,o),
(117,619,cs),
(326,1,l)
);
}
);
};
hints = (
{
name = _corner.caps_diag;
options = 1;
origin = (0,6);
type = Corner;
}
);
layerId = "49C16FD3-6177-408B-A733-AEB3898BB77C";
shapes = (
{
closed = 1;
nodes = (
(373,1,l),
(614,686,l),
(567,686,l),
(362,98,l),
(351,53,l),
(340,97,l),
(145,632,l),
(105,619,l),
(326,1,l)
);
}
);
width = 655;
}
);
unicode = 86;
userData = {
position = 631;
width = 59;
};
},
{
glyphname = V.ss01;
kernLeft = V;
kernRight = V;
layers = (
{
anchors = (
{
name = bottom;
pos = (313,0);
},
{
name = top;
pos = (315,679);
}
);
layerId = "873CAA12-270D-4223-A88E-AE8E101FDBE8";
shapes = (
{
closed = 1;
nodes = (
(343,0,l),
(581,685,l),
(520,685,l),
(313,86,l),
(123,625,ls),
(113,653,o),
(85,690,o),
(35,690,c),
(35,631,l),
(50,629,o),
(63,625,o),
(68,610,cs),
(284,0,l)
);
}
);
width = 612;
},
{
anchors = (
{
name = bottom;
pos = (321,0);
},
{
name = top;
pos = (321,684);
}
);
layerId = "0CAF3BED-C4AC-4024-B3E1-4C69D1EF7EC0";
shapes = (
{
closed = 1;
nodes = (
(358,-1,l),
(597,687,l),
(514,687,l),
(321,132,l),
(143,621,ls),
(124,673,o),
(86,691,o),
(35,691,c),
(35,613,l),
(55,610,o),
(63,610,o),
(67,599,cs),
(285,-1,l)
);
}
);
width = 631;
},
{
anchors = (
{
name = bottom;
pos = (321,3);
},
{
name = top;
pos = (321,684);
}
);
layerId = "49C16FD3-6177-408B-A733-AEB3898BB77C";
shapes = (
{
closed = 1;
nodes = (
(345,1,l),
(578,686,l),
(532,686,l),
(321,59,l),
(116,629,ls),
(107,654,o),
(84,686,o),
(40,690,c),
(40,644,l),
(54,641,o),
(67,635,o),
(73,618,cs),
(296,1,l)
);
}
);
width = 620;
}
);
userData = {
position = 631;
width = 59;
};
},
{
glyphname = V.swsh;
kernLeft = V;
kernRight = V;
layers = (
{
anchors = (
{
name = bottom;
pos = (379,0);
},
{
name = top;
pos = (379,684);
}
);
hints = (
{
name = _corner.caps_swash_diag;
options = 1;
origin = (0,6);
type = Corner;
}
);
layerId = "873CAA12-270D-4223-A88E-AE8E101FDBE8";
shapes = (
{
closed = 1;
nodes = (
(408,0,l),
(644,685,l),
(584,685,l),
(388,123,l),
(379,84,l),
(370,122,l),
(205,596,l),
(147,579,l),
(350,0,l)
);
}
);
width = 680;
},
{
anchors = (
{
name = bottom;
pos = (382,0);
},
{
name = top;
pos = (384,684);
}
);
hints = (
{
name = _corner.caps_swash_diag;
options = 1;
origin = (0,6);
type = Corner;
}
);
layerId = "0CAF3BED-C4AC-4024-B3E1-4C69D1EF7EC0";
shapes = (
{
closed = 1;
nodes = (
(421,-1,l),
(659,687,l),
(577,687,l),
(394,163,l),
(384,123,l),
(374,161,l),
(222,594,l),
(144,568,l),
(347,-1,l)
);
}
);
width = 693;
},
{
anchors = (
{
name = bottom;
pos = (363,0);
},
{
name = top;
pos = (362,684);
}
);
hints = (
{
name = _corner.caps_swash_diag;
options = 1;
origin = (0,6);
type = Corner;
}
);
layerId = "49C16FD3-6177-408B-A733-AEB3898BB77C";
shapes = (
{
closed = 1;
nodes = (
(383,1,l),
(619,686,l),
(572,686,l),
(373,98,l),
(362,53,l),
(351,97,l),
(172,595,l),
(131,584,l),
(341,1,l)
);
}
);
width = 660;
}
);
userData = {
position = 631;
width = 59;
};
},
{
glyphname = W;
kernLeft = V;
kernRight = V;
layers = (
{
anchors = (
{
name = bottom;
pos = (543,0);
},
{
name = top;
pos = (583,684);
}
);
hints = (
{
name = _corner.caps_diag;
options = 1;
origin = (0,16);
type = Corner;
}
);
layerId = "873CAA12-270D-4223-A88E-AE8E101FDBE8";
shapes = (
{
closed = 1;
nodes = (
(129,613,l),
(331,0,l),
(390,0,l),
(582,591,l),
(775,0,l),
(834,0,l),
(1057,685,l),
(997,685,l),
(809,100,l),
(806,72,l),
(800,100,l),
(612,685,l),
(553,685,l),
(365,100,l),
(360,79,l),
(356,100,l),
(185,631,l)
);
}
);
width = 1094;
},
{
anchors = (
{
name = bottom;
pos = (533,0);
},
{
name = top;
pos = (571,675);
}
);
background = {
shapes = (
{
closed = 1;
nodes = (
(79,604,l),
(84,615,o),
(92,619,o),
(101,619,cs),
(110,619,o),
(117,613,o),
(121,602,cs),
(319,-1,l),
(393,-1,l),
(570,547,l),
(749,-1,l),
(823,-1,l),
(1047,687,l),
(965,687,l),
(791,126,l),
(786,84,l),
(779,126,l),
(608,687,l),
(534,687,l),
(360,126,l),
(355,87,l),
(351,126,l),
(196,627,ls),
(182,672,o),
(145,696,o),
(102,696,cs),
(70,696,o),
(34,678,o),
(15,646,c)
);
}
);
};
hints = (
{
name = _corner.caps_diag;
origin = (0,16);
type = Corner;
}
);
layerId = "0CAF3BED-C4AC-4024-B3E1-4C69D1EF7EC0";
shapes = (
{
closed = 1;
nodes = (
(120,596,l),
(319,-1,l),
(393,-1,l),
(570,547,l),
(749,-1,l),
(823,-1,l),
(1047,687,l),
(965,687,l),
(791,126,l),
(786,84,l),
(779,126,l),
(608,687,l),
(534,687,l),
(360,126,l),
(355,87,l),
(351,126,l),
(197,621,l)
);
}
);
width = 1082;
},
{
anchors = (
{
name = bottom;
pos = (541,0);
},
{
name = top;
pos = (582,692);
}
);
background = {
shapes = (
{
closed = 1;
nodes = (
(55,635,l),
(63,646,o),
(75,653,o),
(87,653,cs),
(102,653,o),
(118,645,o),
(126,622,cs),
(330,1,l),
(380,1,l),
(581,620,l),
(783,1,l),
(833,1,l),
(1055,686,l),
(1009,686,l),
(819,94,l),
(808,38,l),
(796,94,l),
(606,686,l),
(556,686,l),
(366,94,l),
(354,41,l),
(343,94,l),
(169,635,ls),
(158,671,o),
(126,695,o),
(88,695,cs),
(61,695,o),
(35,683,o),
(18,660,c)
);
}
);
};
hints = (
{
name = _corner.caps_diag;
options = 1;
origin = (0,16);
type = Corner;
}
);
layerId = "49C16FD3-6177-408B-A733-AEB3898BB77C";
shapes = (
{
closed = 1;
nodes = (
(128,624,l),
(330,1,l),
(380,1,l),
(581,620,l),
(783,1,l),
(833,1,l),
(1055,686,l),
(1009,686,l),
(819,94,l),
(808,38,l),
(796,94,l),
(606,686,l),
(556,686,l),
(366,94,l),
(354,41,l),
(343,94,l),
(168,637,l)
);
}
);
width = 1097;
}
);
unicode = 87;
userData = {
position = 665;
width = 20;
};
},
{
glyphname = W.ss01;
kernLeft = V;
kernRight = V;
layers = (
{
anchors = (
{
name = bottom;
pos = (516,0);
},
{
name = top;
pos = (521,684);
}
);
layerId = "873CAA12-270D-4223-A88E-AE8E101FDBE8";
shapes = (
{
closed = 1;
nodes = (
(328,0,l),
(520,591,l),
(713,0,l),
(772,0,l),
(995,685,l),
(935,685,l),
(750,100,l),
(744,72,l),
(738,100,l),
(550,685,l),
(491,685,l),
(303,100,l),
(298,79,l),
(294,100,l),
(123,631,ls),
(117,650,o),
(106,667,o),
(90,677,cs),
(77,686,o),
(57,694,o),
(36,694,c),
(36,637,l),
(53,636,o),
(63,628,o),
(68,613,cs),
(269,0,l)
);
}
);
width = 1032;
},
{
anchors = (
{
name = bottom;
pos = (514,0);
},
{
name = top;
pos = (518,675);
}
);
layerId = "0CAF3BED-C4AC-4024-B3E1-4C69D1EF7EC0";
shapes = (
{
closed = 1;
nodes = (
(339,-1,l),
(517,547,l),
(695,-1,l),
(769,-1,l),
(993,687,l),
(911,687,l),
(739,144,l),
(733,100,l),
(726,144,l),
(554,687,l),
(480,687,l),
(309,144,l),
(302,100,l),
(296,144,l),
(143,627,ls),
(137,647,o),
(121,666,o),
(106,677,cs),
(90,687,o),
(57,696,o),
(35,692,c),
(35,616,l),
(52,616,o),
(62,615,o),
(69,594,cs),
(265,-1,l)
);
}
);
width = 1027;
},
{
anchors = (
{
name = bottom;
pos = (522,0);
},
{
name = top;
pos = (527,692);
}
);
layerId = "49C16FD3-6177-408B-A733-AEB3898BB77C";
shapes = (
{
closed = 1;
nodes = (
(325,1,l),
(526,620,l),
(728,1,l),
(778,1,l),
(1001,686,l),
(955,686,l),
(765,94,l),
(753,41,l),
(742,94,l),
(552,686,l),
(502,686,l),
(312,94,l),
(300,41,l),
(289,95,l),
(115,635,ls),
(109,654,o),
(99,668,o),
(84,679,cs),
(77,684,o),
(57,693,o),
(40,694,c),
(40,649,l),
(56,647,o),
(67,637,o),
(72,621,cs),
(275,1,l)
);
}
);
width = 1043;
}
);
userData = {
position = 665;
width = 20;
};
},
{
glyphname = W.swsh;
kernLeft = V;
kernRight = V;
layers = (
{
anchors = (
{
name = bottom;
pos = (550,0);
},
{
name = top;
pos = (590,684);
}
);
hints = (
{
name = _corner.caps_swash_diag;
options = 1;
origin = (0,14);
type = Corner;
}
);
layerId = "873CAA12-270D-4223-A88E-AE8E101FDBE8";
shapes = (
{
closed = 1;
nodes = (
(397,0,l),
(589,591,l),
(782,0,l),
(841,0,l),
(1064,685,l),
(1004,685,l),
(816,100,l),
(813,72,l),
(807,100,l),
(619,685,l),
(560,685,l),
(372,100,l),
(367,79,l),
(363,100,l),
(205,589,l),
(148,570,l),
(338,0,l)
);
}
);
width = 1101;
},
{
anchors = (
{
name = bottom;
pos = (543,0);
},
{
name = top;
pos = (581,675);
}
);
hints = (
{
name = _corner.caps_swash_diag;
origin = (0,14);
type = Corner;
}
);
layerId = "0CAF3BED-C4AC-4024-B3E1-4C69D1EF7EC0";
shapes = (
{
closed = 1;
nodes = (
(403,-1,l),
(580,547,l),
(759,-1,l),
(833,-1,l),
(1057,687,l),
(975,687,l),
(801,126,l),
(796,84,l),
(789,126,l),
(618,687,l),
(544,687,l),
(370,126,l),
(365,87,l),
(361,126,l),
(221,587,l),
(143,563,l),
(329,-1,l)
);
}
);
width = 1092;
},
{
anchors = (
{
name = bottom;
pos = (555,0);
},
{
name = top;
pos = (596,692);
}
);
hints = (
{
name = _corner.caps_swash_diag;
options = 1;
origin = (0,14);
type = Corner;
}
);
layerId = "49C16FD3-6177-408B-A733-AEB3898BB77C";
shapes = (
{
closed = 1;
nodes = (
(394,1,l),
(595,620,l),
(797,1,l),
(847,1,l),
(1069,686,l),
(1023,686,l),
(833,94,l),
(822,38,l),
(810,94,l),
(620,686,l),
(570,686,l),
(380,94,l),
(368,41,l),
(357,94,l),
(196,593,l),
(157,578,l),
(344,1,l)
);
}
);
width = 1111;
}
);
userData = {
position = 665;
width = 20;
};
},
{
glyphname = X;
kernLeft = X;
kernRight = K;
layers = (
{
anchors = (
{
name = bottom;
pos = (293,0);
},
{
name = top;
pos = (293,684);
}
);
layerId = "873CAA12-270D-4223-A88E-AE8E101FDBE8";
shapes = (
{
closed = 1;
nodes = (
(252,363,l),
(41,0,l),
(112,0,l),
(288,309,l),
(423,65,ls),
(448,20,o),
(470,-7,o),
(514,-7,cs),
(544,-7,o),
(573,5,o),
(591,28,c),
(542,62,l),
(536,55,o),
(528,51,o),
(518,51,cs),
(506,51,o),
(497,57,o),
(492,65,cs),
(324,352,l),
(542,684,l),
(471,684,l),
(290,405,l),
(108,684,l),
(39,684,l)
);
}
);
width = 621;
},
{
anchors = (
{
name = bottom;
pos = (304,0);
},
{
name = top;
pos = (304,684);
}
);
layerId = "0CAF3BED-C4AC-4024-B3E1-4C69D1EF7EC0";
shapes = (
{
closed = 1;
nodes = (
(249,361,l),
(39,-1,l),
(135,-1,l),
(298,285,l),
(420,68,ls),
(445,23,o),
(475,-7,o),
(523,-7,cs),
(562,-7,o),
(591,8,o),
(612,36,c),
(546,82,l),
(542,76,o),
(536,72,o),
(530,72,cs),
(518,72,o),
(509,76,o),
(499,93,cs),
(350,351,l),
(567,686,l),
(470,686,l),
(301,426,l),
(131,686,l),
(37,686,l)
);
}
);
width = 641;
},
{
anchors = (
{
name = bottom;
pos = (290,0);
},
{
name = top;
pos = (290,684);
}
);
layerId = "49C16FD3-6177-408B-A733-AEB3898BB77C";
shapes = (
{
closed = 1;
nodes = (
(257,362,l),
(48,1,l),
(101,1,l),
(284,321,l),
(429,64,ls),
(455,18,o),
(473,-7,o),
(516,-7,cs),
(541,-7,o),
(564,2,o),
(581,18,c),
(542,46,l),
(536,42,o),
(528,38,o),
(520,38,cs),
(506,38,o),
(492,47,o),
(487,56,cs),
(312,353,l),
(528,685,l),
(475,685,l),
(287,393,l),
(97,685,l),
(44,685,l)
);
}
);
width = 615;
},
{
anchors = (
{
name = bottom;
pos = (284,0);
},
{
name = top;
pos = (284,684);
}
);
associatedMasterId = "49C16FD3-6177-408B-A733-AEB3898BB77C";
layerId = "C396F3EE-AB0F-4C10-A1DC-81F9C8939901";
name = "Oct 11 19, 11:02";
shapes = (
{
closed = 1;
nodes = (
(554,-6,o),
(594,20,o),
(600,69,c),
(554,71,l),
(549,54,o),
(534,39,o),
(514,39,cs),
(499,39,o),
(486,47,o),
(481,56,cs),
(306,353,l),
(522,685,l),
(469,685,l),
(281,393,l),
(91,685,l),
(38,685,l),
(251,362,l),
(42,1,l),
(95,1,l),
(278,321,l),
(423,64,ls),
(449,18,o),
(468,-6,o),
(510,-6,cs)
);
}
);
width = 630;
}
);
unicode = 88;
userData = {
position = 566;
width = 58;
};
},
{
glyphname = X.ss01;
kernLeft = X;
kernRight = K;
layers = (
{
anchors = (
{
name = bottom;
pos = (295,0);
},
{
name = top;
pos = (295,684);
}
);
layerId = "873CAA12-270D-4223-A88E-AE8E101FDBE8";
shapes = (
{
closed = 1;
nodes = (
(553,-6,o),
(569,4,o),
(576,7,c),
(554,57,l),
(548,54,o),
(542,51,o),
(532,51,cs),
(523,51,o),
(516,59,o),
(512,65,cs),
(328,353,l),
(542,684,l),
(471,684,l),
(290,405,l),
(108,684,l),
(39,684,l),
(250,361,l),
(41,0,l),
(112,0,l),
(289,308,l),
(443,65,ls),
(470,22,o),
(487,-6,o),
(530,-6,cs)
);
}
);
width = 610;
},
{
anchors = (
{
name = bottom;
pos = (297,0);
},
{
name = top;
pos = (302,684);
}
);
layerId = "0CAF3BED-C4AC-4024-B3E1-4C69D1EF7EC0";
shapes = (
{
closed = 1;
nodes = (
(560,-4,o),
(585,2,o),
(599,11,c),
(574,75,l),
(567,71,o),
(557,69,o),
(548,69,cs),
(540,69,o),
(527,74,o),
(517,90,cs),
(351,352,l),
(566,686,l),
(469,686,l),
(300,426,l),
(130,686,l),
(36,686,l),
(248,361,l),
(38,-1,l),
(134,-1,l),
(299,286,l),
(439,68,ls),
(473,15,o),
(500,-4,o),
(546,-4,cs)
);
}
);
width = 631;
},
{
anchors = (
{
name = bottom;
pos = (287,-2);
},
{
name = top;
pos = (286,684);
}
);
layerId = "49C16FD3-6177-408B-A733-AEB3898BB77C";
shapes = (
{
closed = 1;
nodes = (
(547,-6,o),
(558,-5,o),
(567,-1,c),
(553,38,l),
(547,37,o),
(542,36,o),
(536,36,cs),
(523,36,o),
(513,46,o),
(506,56,c),
(314,357,l),
(527,685,l),
(474,685,l),
(286,393,l),
(96,685,l),
(43,685,l),
(256,362,l),
(47,1,l),
(100,1,l),
(286,325,l),
(448,64,ls),
(477,17,o),
(494,-6,o),
(536,-6,cs)
);
}
);
width = 604;
}
);
userData = {
position = 566;
width = 58;
};
},
{
glyphname = X.swsh;
kernLeft = X;
kernRight = K;
layers = (
{
anchors = (
{
name = bottom;
pos = (330,0);
},
{
name = top;
pos = (327,684);
}
);
background = {
shapes = (
{
closed = 1;
nodes = (
(149,0,l),
(323,304,l),
(450,65,ls),
(474,19,o),
(497,-7,o),
(541,-7,cs),
(589,-7,o),
(634,24,o),
(637,80,c),
(579,83,l),
(576,65,o),
(564,51,o),
(545,51,cs),
(533,51,o),
(523,57,o),
(519,65,cs),
(362,349,l),
(579,684,l),
(508,684,l),
(327,405,l),
(188,648,ls),
(168,683,o),
(137,694,o),
(110,694,cs),
(67,694,o),
(21,665,o),
(16,611,c),
(75,605,l),
(76,624,o),
(91,635,o),
(107,635,cs),
(117,635,o),
(127,631,o),
(135,621,c),
(287,361,l),
(78,0,l)
);
}
);
};
hints = (
{
name = _corner.caps_diag;
origin = (0,20);
type = Corner;
}
);
layerId = "873CAA12-270D-4223-A88E-AE8E101FDBE8";
shapes = (
{
closed = 1;
nodes = (
(149,0,l),
(323,304,l),
(450,65,ls),
(474,19,o),
(497,-7,o),
(541,-7,cs),
(589,-7,o),
(634,24,o),
(637,80,c),
(579,83,l),
(576,65,o),
(564,51,o),
(545,51,cs),
(533,51,o),
(523,57,o),
(519,65,cs),
(362,349,l),
(579,684,l),
(508,684,l),
(327,405,l),
(191,643,l),
(139,616,l),
(287,361,l),
(78,0,l)
);
}
);
width = 670;
},
{
anchors = (
{
name = bottom;
pos = (327,0);
},
{
name = top;
pos = (325,687);
}
);
background = {
shapes = (
{
closed = 1;
nodes = (
(160,-1,l),
(322,286,l),
(435,68,ls),
(458,23,o),
(485,-7,o),
(533,-7,cs),
(587,-7,o),
(641,33,o),
(638,100,c),
(559,104,l),
(561,87,o),
(551,72,o),
(537,72,cs),
(529,72,o),
(525,75,o),
(522,80,cs),
(371,352,l),
(592,686,l),
(495,686,l),
(326,426,l),
(204,643,ls),
(181,681,o),
(146,696,o),
(117,696,cs),
(69,696,o),
(13,659,o),
(14,593,c),
(88,585,l),
(88,604,o),
(98,615,o),
(114,615,cs),
(130,615,o),
(135,600,o),
(141,590,c),
(277,361,l),
(64,-1,l)
);
}
);
};
hints = (
{
name = _corner.caps_diag;
origin = (0,20);
type = Corner;
}
);
layerId = "0CAF3BED-C4AC-4024-B3E1-4C69D1EF7EC0";
shapes = (
{
closed = 1;
nodes = (
(160,-1,l),
(322,286,l),
(435,68,ls),
(456,27,o),
(482,-7,o),
(533,-7,cs),
(587,-7,o),
(641,33,o),
(638,100,c),
(559,104,l),
(561,87,o),
(551,72,o),
(537,72,cs),
(528,72,o),
(525,75,o),
(522,80,cs),
(371,352,l),
(592,686,l),
(495,686,l),
(326,426,l),
(204,643,l),
(135,601,l),
(277,361,l),
(64,-1,l)
);
}
);
width = 670;
},
{
anchors = (
{
name = bottom;
pos = (313,8);
},
{
name = top;
pos = (313,684);
}
);
background = {
shapes = (
{
closed = 1;
nodes = (
(124,1,l),
(308,318,l),
(442,64,ls),
(467,17,o),
(487,-6,o),
(529,-6,cs),
(568,-6,o),
(608,20,o),
(614,69,c),
(568,71,l),
(563,54,o),
(553,39,o),
(533,39,cs),
(508,39,o),
(501,48,o),
(481,87,c),
(336,353,l),
(551,685,l),
(496,685,l),
(310,395,l),
(191,618,ls),
(166,665,o),
(146,689,o),
(104,689,cs),
(60,689,o),
(20,663,o),
(14,614,c),
(60,612,l),
(62,631,o),
(80,644,o),
(100,644,cs),
(120,644,o),
(128,635,o),
(143,612,c),
(280,362,l),
(71,1,l)
);
}
);
};
hints = (
{
name = _corner.caps_diag;
origin = (0,20);
type = Corner;
}
);
layerId = "49C16FD3-6177-408B-A733-AEB3898BB77C";
shapes = (
{
closed = 1;
nodes = (
(124,1,l),
(308,318,l),
(442,64,ls),
(467,17,o),
(487,-6,o),
(529,-6,cs),
(568,-6,o),
(608,20,o),
(614,69,c),
(568,71,l),
(563,54,o),
(553,39,o),
(533,39,cs),
(508,39,o),
(501,48,o),
(481,87,c),
(336,353,l),
(551,685,l),
(496,685,l),
(310,395,l),
(176,643,l),
(139,623,l),
(280,362,l),
(71,1,l)
);
}
);
width = 651;
}
);
userData = {
position = 566;
width = 58;
};
},
{
glyphname = Y;
kernLeft = Y;
kernRight = Y;
layers = (
{
anchors = (
{
name = bottom;
pos = (324,1);
},
{
name = top;
pos = (323,684);
},
{
name = topleft;
pos = (-1,684);
}
);
background = {
shapes = (
{
closed = 1;
nodes = (
(67,622,l),
(73,630,o),
(83,635,o),
(93,635,cs),
(104,635,o),
(115,630,o),
(123,618,c),
(298,297,l),
(298,0,l),
(359,0,l),
(357,299,l),
(573,685,l),
(509,685,l),
(328,361,l),
(172,646,ls),
(153,681,o),
(123,694,o),
(96,694,cs),
(67,694,o),
(36,681,o),
(18,655,c)
);
}
);
};
hints = (
{
name = _corner.caps_diag;
options = 1;
origin = (0,8);
type = Corner;
}
);
layerId = "873CAA12-270D-4223-A88E-AE8E101FDBE8";
shapes = (
{
closed = 1;
nodes = (
(123,615,l),
(298,297,l),
(298,0,l),
(359,0,l),
(357,299,l),
(573,685,l),
(509,685,l),
(328,361,l),
(174,644,l)
);
}
);
width = 601;
},
{
anchors = (
{
name = bottom;
pos = (329,12);
},
{
name = top;
pos = (328,675);
},
{
name = topleft;
pos = (139,684);
}
);
background = {
shapes = (
{
closed = 1;
nodes = (
(75,597,l),
(80,610,o),
(91,615,o),
(100,615,cs),
(111,615,o),
(117,613,o),
(124,601,cs),
(291,296,l),
(294,-1,l),
(375,-1,l),
(374,298,l),
(591,687,l),
(497,687,l),
(332,385,l),
(193,643,l),
(170,681,o),
(135,696,o),
(106,696,cs),
(71,696,o),
(31,676,o),
(13,640,c)
);
}
);
};
hints = (
{
name = _corner.caps_diag;
origin = (0,8);
type = Corner;
}
);
layerId = "0CAF3BED-C4AC-4024-B3E1-4C69D1EF7EC0";
shapes = (
{
closed = 1;
nodes = (
(124,601,l),
(291,296,l),
(294,-1,l),
(375,-1,l),
(374,298,l),
(591,687,l),
(497,687,l),
(332,385,l),
(193,643,l)
);
}
);
width = 620;
},
{
anchors = (
{
name = bottom;
pos = (337,0);
},
{
name = top;
pos = (336,684);
},
{
name = topleft;
pos = (34,684);
}
);
hints = (
{
name = _corner.caps_diag;
options = 1;
origin = (0,8);
type = Corner;
}
);
layerId = "49C16FD3-6177-408B-A733-AEB3898BB77C";
shapes = (
{
closed = 1;
nodes = (
(136,630,l),
(319,300,l),
(319,1,l),
(362,1,l),
(360,302,l),
(576,686,l),
(527,686,l),
(340,348,l),
(172,651,l)
);
}
);
width = 613;
}
);
unicode = 89;
userData = {
position = 308;
width = 66;
};
},
{
glyphname = Y.ss01;
kernLeft = Y;
kernRight = Y;
layers = (
{
anchors = (
{
name = bottom;
pos = (278,0);
},
{
name = top;
pos = (277,684);
},
{
name = topleft;
pos = (29,684);
}
);
layerId = "873CAA12-270D-4223-A88E-AE8E101FDBE8";
shapes = (
{
closed = 1;
nodes = (
(305,0,l),
(303,299,l),
(520,685,l),
(452,685,l),
(273,362,l),
(117,646,ls),
(99,679,o),
(73,694,o),
(33,694,c),
(33,637,l),
(50,637,o),
(61,631,o),
(67,620,cs),
(244,297,l),
(244,0,l)
);
}
);
width = 551;
},
{
anchors = (
{
name = bottom;
pos = (274,0);
},
{
name = top;
pos = (273,684);
},
{
name = topleft;
pos = (27,684);
}
);
layerId = "0CAF3BED-C4AC-4024-B3E1-4C69D1EF7EC0";
shapes = (
{
closed = 1;
nodes = (
(320,-1,l),
(318,298,l),
(536,687,l),
(442,687,l),
(277,385,l),
(138,643,ls),
(117,681,o),
(80,699,o),
(33,695,c),
(33,617,l),
(55,618,o),
(61,617,o),
(67,606,c),
(238,296,l),
(238,-1,l)
);
}
);
width = 565;
},
{
anchors = (
{
name = bottom;
pos = (270,0);
},
{
name = top;
pos = (278,684);
},
{
name = topleft;
pos = (52,684);
}
);
layerId = "49C16FD3-6177-408B-A733-AEB3898BB77C";
shapes = (
{
closed = 1;
nodes = (
(295,1,l),
(295,302,l),
(512,686,l),
(460,686,l),
(273,345,l),
(108,650,ls),
(93,678,o),
(67,692,o),
(37,695,c),
(37,652,l),
(51,651,o),
(62,644,o),
(69,631,cs),
(254,300,l),
(254,1,l)
);
}
);
width = 548;
}
);
userData = {
position = 308;
width = 66;
};
},
{
glyphname = Y.swsh;
kernLeft = Y;
kernRight = Y;
layers = (
{
anchors = (
{
name = bottom;
pos = (348,1);
},
{
name = top;
pos = (347,684);
},
{
name = topleft;
pos = (23,684);
}
);
hints = (
{
name = _corner.caps_swash_diag;
options = 1;
origin = (0,5);
type = Corner;
}
);
layerId = "873CAA12-270D-4223-A88E-AE8E101FDBE8";
shapes = (
{
closed = 1;
nodes = (
(384,0,l),
(382,299,l),
(598,685,l),
(528,685,l),
(351,364,l),
(215,612,l),
(165,579,l),
(320,297,l),
(321,0,l)
);
}
);
width = 629;
},
{
anchors = (
{
name = bottom;
pos = (348,12);
},
{
name = top;
pos = (347,675);
},
{
name = topleft;
pos = (20,684);
}
);
hints = (
{
name = _corner.caps_swash_diag;
options = 1;
origin = (0,5);
type = Corner;
}
);
layerId = "0CAF3BED-C4AC-4024-B3E1-4C69D1EF7EC0";
shapes = (
{
closed = 1;
nodes = (
(394,-1,l),
(393,298,l),
(610,687,l),
(516,687,l),
(351,385,l),
(227,615,l),
(157,573,l),
(310,296,l),
(313,-1,l)
);
}
);
width = 639;
},
{
anchors = (
{
name = bottom;
pos = (345,0);
},
{
name = top;
pos = (344,684);
},
{
name = topleft;
pos = (42,684);
}
);
hints = (
{
name = _corner.caps_swash_diag;
options = 1;
origin = (0,5);
type = Corner;
}
);
layerId = "49C16FD3-6177-408B-A733-AEB3898BB77C";
shapes = (
{
closed = 1;
nodes = (
(370,1,l),
(368,302,l),
(584,686,l),
(535,686,l),
(348,348,l),
(203,610,l),
(167,588,l),
(327,300,l),
(327,1,l)
);
}
);
width = 621;
}
);
userData = {
position = 308;
width = 66;
};
},
{
glyphname = Z;
kernLeft = Z;
kernRight = Z;
layers = (
{
anchors = (
{
name = bottom;
pos = (286,0);
},
{
name = center;
pos = (286,342);
},
{
name = top;
pos = (284,684);
}
);
layerId = "873CAA12-270D-4223-A88E-AE8E101FDBE8";
shapes = (
{
closed = 1;
nodes = (
(123,46,l),
(205,28,o),
(288,-14,o),
(376,-14,cs),
(437,-14,o),
(494,7,o),
(545,56,c),
(504,94,l),
(468,59,o),
(419,42,o),
(376,42,cs),
(318,42,o),
(247,73,o),
(183,88,cs),
(153,95,l),
(503,684,l),
(73,684,l),
(73,628,l),
(402,628,l),
(37,13,l),
(87,-16,l)
);
}
);
width = 578;
},
{
anchors = (
{
name = bottom;
pos = (292,0);
},
{
name = center;
pos = (292,342);
},
{
name = top;
pos = (290,682);
}
);
layerId = "0CAF3BED-C4AC-4024-B3E1-4C69D1EF7EC0";
shapes = (
{
closed = 1;
nodes = (
(136,43,l),
(225,25,o),
(293,-14,o),
(379,-14,cs),
(440,-14,o),
(502,7,o),
(558,63,c),
(504,116,l),
(470,81,o),
(425,61,o),
(379,61,cs),
(324,61,o),
(255,92,o),
(191,104,cs),
(175,107,l),
(519,684,l),
(73,684,l),
(73,608,l),
(388,608,l),
(35,19,l),
(99,-19,l)
);
}
);
width = 588;
},
{
anchors = (
{
name = bottom;
pos = (283,0);
},
{
name = center;
pos = (283,342);
},
{
name = top;
pos = (283,684);
}
);
layerId = "49C16FD3-6177-408B-A733-AEB3898BB77C";
shapes = (
{
closed = 1;
nodes = (
(111,49,l),
(214,31,o),
(297,-13,o),
(386,-13,cs),
(441,-13,o),
(485,3,o),
(536,49,c),
(508,77,l),
(473,46,o),
(434,27,o),
(386,27,cs),
(325,27,o),
(249,60,o),
(175,73,cs),
(130,81,l),
(489,684,l),
(75,684,l),
(75,644,l),
(419,644,l),
(41,9,l),
(75,-11,l)
);
}
);
width = 573;
}
);
unicode = 90;
userData = {
position = 628;
width = 53;
};
},
{
glyphname = Z.ss01;
kernLeft = S;
kernRight = S;
layers = (
{
anchors = (
{
name = bottom;
pos = (276,0);
},
{
name = center;
pos = (275,342);
},
{
name = top;
pos = (276,684);
}
);
layerId = "873CAA12-270D-4223-A88E-AE8E101FDBE8";
shapes = (
{
closed = 1;
nodes = (
(511,0,l),
(511,56,l),
(132,56,l),
(491,671,l),
(491,684,l),
(50,684,l),
(50,628,l),
(399,628,l),
(40,13,l),
(40,0,l)
);
}
);
width = 551;
},
{
anchors = (
{
name = bottom;
pos = (283,0);
},
{
name = center;
pos = (283,342);
},
{
name = top;
pos = (284,684);
}
);
layerId = "0CAF3BED-C4AC-4024-B3E1-4C69D1EF7EC0";
shapes = (
{
closed = 1;
nodes = (
(523,-1,l),
(523,75,l),
(162,75,l),
(503,659,l),
(503,684,l),
(52,684,l),
(52,608,l),
(384,608,l),
(43,27,l),
(43,-1,l)
);
}
);
width = 564;
},
{
anchors = (
{
name = bottom;
pos = (278,0);
},
{
name = center;
pos = (277,342);
},
{
name = top;
pos = (278,684);
}
);
layerId = "49C16FD3-6177-408B-A733-AEB3898BB77C";
shapes = (
{
closed = 1;
nodes = (
(511,1,l),
(511,43,l),
(119,43,l),
(490,680,l),
(490,685,l),
(55,685,l),
(55,643,l),
(416,643,l),
(45,5,l),
(45,1,l)
);
}
);
width = 553;
}
);
userData = {
position = 627;
width = 57;
};
},
{
glyphname = a;
kernLeft = o;
kernRight = m;
layers = (
{
anchors = (
{
name = bottom;
pos = (260,-8);
},
{
name = ogonek;
pos = (556,10);
},
{
name = top;
pos = (290,500);
}
);
background = {
shapes = (
{
closed = 1;
nodes = (
(324,-10,o),
(379,14,o),
(411,68,c),
(417,24,o),
(453,-10,o),
(499,-10,cs),
(525,-10,o),
(557,1,o),
(575,30,c),
(532,60,l),
(525,49,o),
(513,45,o),
(503,45,cs),
(485,45,o),
(470,58,o),
(470,80,cs),
(470,499,l),
(410,499,l),
(374,504,o),
(320,508,o),
(290,508,cs),
(137,508,o),
(43,400,o),
(43,246,cs),
(43,110,o),
(117,-10,o),
(260,-10,cs)
);
},
{
closed = 1;
nodes = (
(152,44,o),
(103,144,o),
(103,248,cs),
(103,364,o),
(160,454,o),
(286,454,cs),
(312,454,o),
(380,450,o),
(410,450,c),
(410,188,ls),
(410,178,o),
(410,153,o),
(396,124,cs),
(373,77,o),
(323,44,o),
(261,44,cs)
);
}
);
};
hints = (
{
name = _corner.right_curved;
origin = (0,3);
type = Corner;
}
);
layerId = "873CAA12-270D-4223-A88E-AE8E101FDBE8";
shapes = (
{
closed = 1;
nodes = (
(324,-10,o),
(379,20,o),
(411,74,c),
(470,84,l),
(470,499,l),
(410,499,l),
(374,504,o),
(320,508,o),
(290,508,cs),
(137,508,o),
(43,400,o),
(43,246,cs),
(43,110,o),
(117,-10,o),
(260,-10,cs)
);
},
{
closed = 1;
nodes = (
(152,44,o),
(103,144,o),
(103,248,cs),
(103,364,o),
(160,454,o),
(286,454,cs),
(312,454,o),
(380,450,o),
(410,450,c),
(410,188,ls),
(410,178,o),
(410,153,o),
(396,124,cs),
(373,77,o),
(323,44,o),
(261,44,cs)
);
}
);
width = 588;
},
{
anchors = (
{
name = bottom;
pos = (258,6);
},
{
name = ogonek;
pos = (566,23);
},
{
name = top;
pos = (275,505);
}
);
hints = (
{
name = _corner.right_curved;
origin = (0,3);
type = Corner;
}
);
layerId = "0CAF3BED-C4AC-4024-B3E1-4C69D1EF7EC0";
shapes = (
{
closed = 1;
nodes = (
(316,-10,o),
(372,21,o),
(395,67,c),
(473,89,l),
(473,508,l),
(406,508,l),
(373,513,o),
(320,516,o),
(290,516,cs),
(128,516,o),
(40,400,o),
(40,251,cs),
(40,113,o),
(117,-10,o),
(255,-10,cs)
);
},
{
closed = 1;
nodes = (
(169,64,o),
(122,156,o),
(122,252,cs),
(122,357,o),
(177,443,o),
(282,443,cs),
(307,443,o),
(357,443,o),
(391,441,c),
(391,194,ls),
(391,186,o),
(393,165,o),
(379,138,cs),
(359,98,o),
(317,64,o),
(261,64,cs)
);
}
);
width = 593;
},
{
anchors = (
{
name = bottom;
pos = (259,0);
},
{
name = ogonek;
pos = (556,19);
},
{
name = top;
pos = (278,500);
}
);
hints = (
{
name = _corner.right_curved;
options = 1;
origin = (0,3);
type = Corner;
}
);
layerId = "49C16FD3-6177-408B-A733-AEB3898BB77C";
shapes = (
{
closed = 1;
nodes = (
(333,-9,o),
(393,27,o),
(421,78,c),
(461,76,l),
(461,496,l),
(411,496,l),
(375,501,o),
(320,505,o),
(290,505,cs),
(137,505,o),
(48,400,o),
(48,245,cs),
(48,109,o),
(116,-9,o),
(259,-9,cs)
);
},
{
closed = 1;
nodes = (
(146,31,o),
(90,139,o),
(90,247,cs),
(90,366,o),
(154,465,o),
(286,465,cs),
(318,465,o),
(391,459,o),
(419,460,c),
(419,186,ls),
(419,172,o),
(419,147,o),
(404,117,cs),
(380,68,o),
(327,31,o),
(260,31,cs)
);
}
);
width = 581;
}
);
unicode = 97;
userData = {
position = 407;
width = 55;
};
},
{
glyphname = a.ital;
kernLeft = o;
kernRight = a.2;
layers = (
{
anchors = (
{
name = bottom;
pos = (260,-8);
},
{
name = ogonek;
pos = (509,25);
},
{
name = top;
pos = (276,500);
}
);
layerId = "873CAA12-270D-4223-A88E-AE8E101FDBE8";
shapes = (
{
closed = 1;
nodes = (
(324,-10,o),
(383,31,o),
(415,85,c),
(415,62,o),
(441,15,o),
(470,-8,c),
(509,25,l),
(483,53,o),
(470,93,o),
(470,144,cs),
(470,499,l),
(410,499,l),
(374,504,o),
(320,508,o),
(290,508,cs),
(137,508,o),
(43,400,o),
(43,246,cs),
(43,110,o),
(117,-10,o),
(260,-10,cs)
);
},
{
closed = 1;
nodes = (
(153,44,o),
(103,144,o),
(103,248,cs),
(103,364,o),
(165,454,o),
(286,454,cs),
(317,454,o),
(380,450,o),
(410,450,c),
(410,188,ls),
(410,178,o),
(410,153,o),
(396,124,cs),
(373,77,o),
(324,44,o),
(261,44,cs)
);
}
);
width = 554;
},
{
anchors = (
{
name = bottom;
pos = (260,1);
},
{
name = ogonek;
pos = (516,37);
},
{
name = top;
pos = (277,500);
}
);
layerId = "0CAF3BED-C4AC-4024-B3E1-4C69D1EF7EC0";
shapes = (
{
closed = 1;
nodes = (
(315,-10,o),
(380,25,o),
(402,71,c),
(412,49,o),
(425,14,o),
(463,-13,c),
(516,37,l),
(486,62,o),
(473,101,o),
(473,152,cs),
(473,508,l),
(406,508,l),
(373,513,o),
(320,517,o),
(290,517,cs),
(136,517,o),
(40,403,o),
(40,251,cs),
(40,116,o),
(115,-10,o),
(260,-10,cs)
);
},
{
closed = 1;
nodes = (
(168,64,o),
(122,157,o),
(122,252,cs),
(122,358,o),
(179,443,o),
(282,443,cs),
(315,443,o),
(357,438,o),
(391,436,c),
(391,194,ls),
(391,187,o),
(391,163,o),
(379,138,cs),
(359,97,o),
(316,64,o),
(261,64,cs)
);
}
);
width = 555;
},
{
anchors = (
{
name = bottom;
pos = (259,0);
},
{
name = ogonek;
pos = (498,20);
},
{
name = top;
pos = (278,500);
}
);
layerId = "49C16FD3-6177-408B-A733-AEB3898BB77C";
shapes = (
{
closed = 1;
nodes = (
(333,-9,o),
(393,26,o),
(419,92,c),
(431,53,o),
(441,22,o),
(473,-5,c),
(498,20,l),
(473,49,o),
(461,91,o),
(461,141,c),
(461,496,l),
(411,496,l),
(375,501,o),
(320,505,o),
(290,505,cs),
(137,505,o),
(48,399,o),
(48,245,cs),
(48,108,o),
(117,-9,o),
(259,-9,cs)
);
},
{
closed = 1;
nodes = (
(146,31,o),
(90,139,o),
(90,247,cs),
(90,366,o),
(158,465,o),
(286,465,cs),
(322,465,o),
(391,459,o),
(419,460,c),
(419,186,ls),
(419,172,o),
(419,147,o),
(404,117,cs),
(380,68,o),
(327,31,o),
(260,31,cs)
);
}
);
width = 550;
}
);
userData = {
position = 407;
width = 55;
};
},
{
glyphname = a.ss01;
kernLeft = a;
kernRight = a.2;
layers = (
{
anchors = (
{
name = bottom;
pos = (210,-10);
},
{
name = ogonek;
pos = (456,25);
},
{
name = top;
pos = (226,500);
}
);
layerId = "873CAA12-270D-4223-A88E-AE8E101FDBE8";
shapes = (
{
closed = 1;
nodes = (
(456,25,l),
(430,53,o),
(417,93,o),
(417,144,cs),
(417,353,ls),
(417,457,o),
(360,514,o),
(252,514,cs),
(184,514,o),
(116,491,o),
(67,450,c),
(94,406,l),
(138,439,o),
(198,460,o),
(251,460,cs),
(322,460,o),
(357,423,o),
(357,342,cs),
(357,306,l),
(241,306,ls),
(111,306,o),
(36,248,o),
(36,146,cs),
(36,47,o),
(99,-10,o),
(210,-10,cs),
(285,-10,o),
(339,20,o),
(365,72,c),
(378,32,o),
(392,12,o),
(417,-8,c)
);
},
{
closed = 1;
nodes = (
(138,44,o),
(96,82,o),
(96,147,cs),
(96,214,o),
(154,252,o),
(255,252,cs),
(357,252,l),
(357,177,ls),
(357,99,o),
(301,44,o),
(211,44,cs)
);
}
);
width = 495;
},
{
anchors = (
{
name = ogonek;
pos = (461,10);
},
{
name = top;
pos = (257,0);
}
);
associatedMasterId = "873CAA12-270D-4223-A88E-AE8E101FDBE8";
layerId = "67035B91-209B-4EB7-AE83-3C0B90A7279F";
name = "Regular Mar 21 13, 13:36";
shapes = (
{
closed = 1;
nodes = (
(210,508,o),
(178,502,o),
(147,489,cs),
(120,478,o),
(90,461,o),
(70,444,c),
(97,402,l),
(106,409,o),
(112,413,o),
(128,422,cs),
(145,432,o),
(154,436,o),
(165,440,cs),
(178,445,o),
(195,450,o),
(205,452,cs),
(218,455,o),
(233,456,o),
(245,456,cs),
(282,456,o),
(307,447,o),
(324,428,cs),
(341,409,o),
(349,378,o),
(349,336,cs),
(349,280,l),
(252,280,ls),
(226,280,o),
(201,278,o),
(176,273,cs),
(151,268,o),
(131,262,o),
(109,249,cs),
(88,237,o),
(71,221,o),
(60,204,cs),
(47,183,o),
(41,161,o),
(41,133,cs),
(41,85,o),
(58,49,o),
(86,26,cs),
(119,-1,o),
(165,-10,o),
(204,-10,cs),
(244,-10,o),
(277,-1,o),
(301,12,cs),
(332,29,o),
(346,50,o),
(357,72,c),
(362,57,o),
(367,44,o),
(376,29,cs),
(384,15,o),
(395,3,o),
(409,-8,c),
(443,25,l),
(417,53,o),
(404,93,o),
(404,144,cs),
(404,347,ls),
(404,394,o),
(393,437,o),
(367,466,cs),
(342,494,o),
(301,508,o),
(246,508,cs)
);
},
{
closed = 1;
nodes = (
(349,177,ls),
(349,155,o),
(345,136,o),
(338,119,cs),
(332,105,o),
(319,88,o),
(306,77,cs),
(296,68,o),
(276,57,o),
(258,51,cs),
(240,45,o),
(221,42,o),
(202,42,cs),
(141,42,o),
(98,60,o),
(98,125,cs),
(98,150,o),
(102,169,o),
(112,183,cs),
(120,194,o),
(133,205,o),
(147,212,cs),
(162,219,o),
(182,224,o),
(197,226,cs),
(215,228,o),
(233,229,o),
(252,229,cs),
(349,229,l)
);
}
);
width = 487;
},
{
anchors = (
{
name = bottom;
pos = (216,-10);
},
{
name = ogonek;
pos = (471,37);
},
{
name = top;
pos = (230,500);
}
);
layerId = "0CAF3BED-C4AC-4024-B3E1-4C69D1EF7EC0";
shapes = (
{
closed = 1;
nodes = (
(471,37,l),
(442,61,o),
(428,99,o),
(428,152,cs),
(428,351,ls),
(428,459,o),
(368,518,o),
(257,518,cs),
(182,518,o),
(107,491,o),
(59,447,c),
(99,386,l),
(144,423,o),
(200,444,o),
(256,444,cs),
(322,444,o),
(346,416,o),
(346,340,cs),
(346,315,l),
(259,319,ls),
(117,326,o),
(35,259,o),
(35,154,cs),
(35,50,o),
(101,-10,o),
(216,-10,cs),
(280,-10,o),
(333,22,o),
(364,61,c),
(375,35,o),
(393,4,o),
(418,-13,c)
);
},
{
closed = 1;
nodes = (
(153,64,o),
(117,97,o),
(117,155,cs),
(117,212,o),
(169,243,o),
(259,245,cs),
(346,247,l),
(346,184,ls),
(346,113,o),
(294,64,o),
(217,64,cs)
);
}
);
width = 504;
},
{
anchors = (
{
name = bottom;
pos = (208,-9);
},
{
name = ogonek;
pos = (445,20);
},
{
name = top;
pos = (218,507);
}
);
layerId = "49C16FD3-6177-408B-A733-AEB3898BB77C";
shapes = (
{
closed = 1;
nodes = (
(445,20,l),
(421,48,o),
(408,90,o),
(408,141,cs),
(408,353,ls),
(408,460,o),
(357,510,o),
(251,510,cs),
(183,510,o),
(121,489,o),
(72,450,c),
(92,419,l),
(136,451,o),
(194,470,o),
(250,470,cs),
(333,470,o),
(366,430,o),
(366,342,cs),
(366,298,l),
(249,298,ls),
(116,298,o),
(40,242,o),
(40,143,cs),
(40,46,o),
(101,-9,o),
(208,-9,cs),
(290,-9,o),
(344,24,o),
(368,88,c),
(380,49,o),
(388,22,o),
(420,-5,c)
);
},
{
closed = 1;
nodes = (
(128,29,o),
(82,71,o),
(82,144,cs),
(82,218,o),
(145,260,o),
(254,260,cs),
(366,260,l),
(366,175,ls),
(366,89,o),
(304,29,o),
(209,29,cs)
);
}
);
width = 491;
}
);
userData = {
position = 347;
width = 55;
};
},
{
glyphname = ae;
kernLeft = a;
kernRight = c;
layers = (
{
anchors = (
{
name = bottom;
pos = (395,0);
},
{
name = top;
pos = (394,502);
}
);
layerId = "873CAA12-270D-4223-A88E-AE8E101FDBE8";
shapes = (
{
closed = 1;
nodes = (
(245,-10,o),
(287,3,o),
(317,24,cs),
(360,54,o),
(368,92,o),
(372,114,c),
(386,78,o),
(407,50,o),
(433,30,cs),
(468,3,o),
(513,-10,o),
(569,-10,cs),
(635,-10,o),
(698,11,o),
(753,48,c),
(727,92,l),
(674,65,o),
(627,44,o),
(570,44,cs),
(467,44,o),
(416,96,o),
(404,200,c),
(521,200,ls),
(639,200,o),
(743,244,o),
(743,354,cs),
(743,448,o),
(663,508,o),
(559,508,cs),
(520,508,o),
(485,497,o),
(456,477,cs),
(429,459,o),
(406,432,o),
(388,400,c),
(378,439,o),
(359,467,o),
(333,484,cs),
(308,501,o),
(277,508,o),
(240,508,cs),
(178,508,o),
(112,484,o),
(65,444,c),
(92,400,l),
(135,433,o),
(191,454,o),
(243,454,cs),
(280,454,o),
(304,444,o),
(320,424,cs),
(336,403,o),
(344,374,o),
(344,336,cs),
(344,283,l),
(239,283,ls),
(130,283,o),
(34,243,o),
(34,131,cs),
(34,38,o),
(103,-10,o),
(198,-10,cs)
);
},
{
closed = 1;
nodes = (
(145,44,o),
(94,58,o),
(94,129,cs),
(94,208,o),
(154,229,o),
(247,229,cs),
(344,229,l),
(344,177,ls),
(344,94,o),
(284,44,o),
(192,44,cs)
);
},
{
closed = 1;
nodes = (
(400,303,o),
(415,349,o),
(444,390,cs),
(469,425,o),
(507,454,o),
(565,454,cs),
(625,454,o),
(683,429,o),
(683,355,cs),
(683,276,o),
(612,254,o),
(521,254,cs),
(400,254,l)
);
}
);
width = 791;
},
{
anchors = (
{
name = bottom;
pos = (394,0);
},
{
name = top;
pos = (392,497);
}
);
layerId = "0CAF3BED-C4AC-4024-B3E1-4C69D1EF7EC0";
shapes = (
{
closed = 1;
nodes = (
(254,-10,o),
(295,4,o),
(327,26,cs),
(351,42,o),
(367,66,o),
(375,83,c),
(387,63,o),
(402,46,o),
(419,32,cs),
(455,4,o),
(505,-10,o),
(560,-10,cs),
(631,-10,o),
(697,12,o),
(756,55,c),
(717,118,l),
(661,85,o),
(614,66,o),
(562,66,cs),
(481,66,o),
(430,106,o),
(415,196,c),
(524,196,ls),
(645,196,o),
(740,242,o),
(740,355,cs),
(740,451,o),
(658,517,o),
(550,517,cs),
(515,517,o),
(484,508,o),
(457,493,cs),
(431,478,o),
(409,457,o),
(390,432,c),
(376,463,o),
(354,486,o),
(326,500,cs),
(303,511,o),
(275,517,o),
(244,517,cs),
(179,517,o),
(103,489,o),
(57,444,c),
(97,381,l),
(134,413,o),
(194,440,o),
(247,440,cs),
(278,440,o),
(298,431,o),
(311,415,cs),
(326,396,o),
(331,369,o),
(331,337,cs),
(331,295,l),
(245,295,ls),
(133,295,o),
(33,256,o),
(33,139,cs),
(33,41,o),
(106,-10,o),
(203,-10,cs)
);
},
{
closed = 1;
nodes = (
(154,64,o),
(115,88,o),
(115,137,cs),
(115,212,o),
(184,221,o),
(250,221,cs),
(331,221,l),
(331,184,ls),
(331,113,o),
(279,64,o),
(197,64,cs)
);
},
{
closed = 1;
nodes = (
(414,312,o),
(426,353,o),
(450,386,cs),
(473,418,o),
(504,443,o),
(556,443,cs),
(608,443,o),
(658,416,o),
(658,355,cs),
(658,284,o),
(587,270,o),
(514,270,cs),
(411,270,l)
);
}
);
width = 789;
},
{
anchors = (
{
name = bottom;
pos = (396,0);
},
{
name = top;
pos = (395,506);
}
);
layerId = "49C16FD3-6177-408B-A733-AEB3898BB77C";
shapes = (
{
closed = 1;
nodes = (
(242,-9,o),
(283,4,o),
(312,24,cs),
(370,64,o),
(365,113,o),
(371,132,c),
(386,90,o),
(406,57,o),
(433,34,cs),
(467,5,o),
(512,-9,o),
(572,-9,cs),
(635,-9,o),
(696,10,o),
(750,45,c),
(731,76,l),
(676,49,o),
(633,29,o),
(573,29,cs),
(461,29,o),
(407,91,o),
(395,205,c),
(523,205,ls),
(642,205,o),
(741,250,o),
(741,355,cs),
(741,446,o),
(665,505,o),
(562,505,cs),
(519,505,o),
(491,495,o),
(463,476,cs),
(435,457,o),
(408,428,o),
(386,380,c),
(379,422,o),
(365,453,o),
(336,476,cs),
(311,497,o),
(285,505,o),
(238,505,cs),
(179,505,o),
(112,482,o),
(69,445,c),
(89,414,l),
(131,446,o),
(189,467,o),
(241,467,cs),
(271,467,o),
(302,458,o),
(323,435,cs),
(342,414,o),
(351,383,o),
(351,337,cs),
(351,272,l),
(245,272,ls),
(137,272,o),
(37,237,o),
(37,128,cs),
(37,37,o),
(101,-9,o),
(195,-9,cs)
);
},
{
closed = 1;
nodes = (
(140,29,o),
(79,46,o),
(79,126,cs),
(79,211,o),
(149,235,o),
(245,235,cs),
(351,235,l),
(351,175,ls),
(351,86,o),
(288,29,o),
(189,29,cs)
);
},
{
closed = 1;
nodes = (
(391,297,o),
(407,354,o),
(439,399,cs),
(465,436,o),
(507,467,o),
(568,467,cs),
(631,467,o),
(699,436,o),
(699,356,cs),
(699,268,o),
(616,244,o),
(523,244,cs),
(393,244,l)
);
}
);
width = 791;
}
);
unicode = 230;
userData = {
position = 687;
width = 57;
};
},
{
glyphname = b;
kernRight = o;
layers = (
{
anchors = (
{
name = bottom;
pos = (275,0);
},
{
name = top;
pos = (111,725);
}
);
layerId = "873CAA12-270D-4223-A88E-AE8E101FDBE8";
shapes = (
{
closed = 1;
nodes = (
(432,-10,o),
(504,110,o),
(504,249,cs),
(504,401,o),
(419,508,o),
(291,508,cs),
(233,508,o),
(174,486,o),
(139,433,c),
(139,726,l),
(79,726,l),
(79,10,l),
(98,4,o),
(137,-2,o),
(153,-4,cs),
(184,-8,o),
(226,-10,o),
(250,-10,cs)
);
},
{
closed = 1;
nodes = (
(236,44,o),
(209,45,o),
(192,47,cs),
(139,53,l),
(139,328,l),
(142,366,o),
(157,398,o),
(193,423,cs),
(220,442,o),
(254,454,o),
(288,454,cs),
(374,454,o),
(444,382,o),
(444,248,cs),
(444,140,o),
(399,44,o),
(249,44,cs)
);
}
);
width = 548;
},
{
anchors = (
{
name = bottom;
pos = (276,0);
},
{
name = top;
pos = (117,725);
}
);
layerId = "0CAF3BED-C4AC-4024-B3E1-4C69D1EF7EC0";
shapes = (
{
closed = 1;
nodes = (
(436,-10,o),
(509,116,o),
(509,254,cs),
(509,404,o),
(422,517,o),
(292,517,cs),
(245,517,o),
(196,502,o),
(158,469,c),
(158,727,l),
(76,727,l),
(76,13,l),
(91,7,o),
(131,-1,o),
(157,-4,cs),
(187,-8,o),
(228,-10,o),
(252,-10,cs)
);
},
{
closed = 1;
nodes = (
(239,65,o),
(217,65,o),
(197,67,cs),
(158,71,l),
(158,328,l),
(161,361,o),
(175,391,o),
(205,413,cs),
(230,431,o),
(260,443,o),
(289,443,cs),
(364,443,o),
(427,374,o),
(427,253,cs),
(427,153,o),
(386,65,o),
(251,65,cs)
);
}
);
width = 549;
},
{
anchors = (
{
name = bottom;
pos = (268,0);
},
{
name = top;
pos = (103,726);
}
);
layerId = "49C16FD3-6177-408B-A733-AEB3898BB77C";
shapes = (
{
closed = 1;
nodes = (
(427,-9,o),
(495,108,o),
(495,248,cs),
(495,401,o),
(414,505,o),
(287,505,cs),
(221,505,o),
(157,477,o),
(125,408,c),
(125,727,l),
(83,727,l),
(83,10,l),
(103,4,o),
(133,-1,o),
(147,-3,cs),
(179,-7,o),
(221,-9,o),
(245,-9,cs)
);
},
{
closed = 1;
nodes = (
(229,29,o),
(204,29,o),
(185,32,cs),
(125,40,l),
(125,329,l),
(128,369,o),
(146,405,o),
(183,432,cs),
(211,453,o),
(248,467,o),
(284,467,cs),
(377,467,o),
(453,389,o),
(453,247,cs),
(453,135,o),
(402,29,o),
(244,29,cs)
);
}
);
width = 544;
}
);
unicode = 98;
userData = {
position = 415;
width = 57;
};
},
{
glyphname = c;
kernLeft = o;
kernRight = c;
layers = (
{
anchors = (
{
name = bottom;
pos = (275,0);
},
{
name = top;
pos = (273,500);
}
);
layerId = "873CAA12-270D-4223-A88E-AE8E101FDBE8";
shapes = (
{
closed = 1;
nodes = (
(348,-6,o),
(409,13,o),
(466,52,c),
(440,94,l),
(377,61,o),
(331,48,o),
(282,48,cs),
(167,48,o),
(104,115,o),
(104,237,cs),
(104,372,o),
(171,458,o),
(276,458,cs),
(348,458,o),
(398,418,o),
(398,360,c),
(454,360,l),
(454,447,o),
(377,512,o),
(274,512,cs),
(137,512,o),
(44,401,o),
(44,238,cs),
(44,82,o),
(130,-6,o),
(282,-6,cs)
);
}
);
width = 495;
},
{
anchors = (
{
name = bottom;
pos = (276,13);
},
{
name = top;
pos = (274,495);
}
);
layerId = "0CAF3BED-C4AC-4024-B3E1-4C69D1EF7EC0";
shapes = (
{
closed = 1;
nodes = (
(353,-6,o),
(420,16,o),
(478,59,c),
(440,121,l),
(369,82,o),
(328,68,o),
(283,68,cs),
(180,68,o),
(123,130,o),
(123,242,cs),
(123,362,o),
(186,443,o),
(279,443,cs),
(344,443,o),
(388,402,o),
(382,347,c),
(462,347,l),
(470,442,o),
(387,517,o),
(275,517,cs),
(136,517,o),
(41,405,o),
(41,243,cs),
(41,87,o),
(131,-6,o),
(283,-6,cs)
);
}
);
width = 506;
},
{
anchors = (
{
name = bottom;
pos = (274,-6);
},
{
name = top;
pos = (272,504);
}
);
layerId = "49C16FD3-6177-408B-A733-AEB3898BB77C";
shapes = (
{
closed = 1;
nodes = (
(346,-5,o),
(402,12,o),
(459,49,c),
(440,80,l),
(372,45,o),
(330,33,o),
(281,33,cs),
(162,33,o),
(90,109,o),
(90,236,cs),
(90,372,o),
(168,471,o),
(275,471,cs),
(351,471,o),
(403,430,o),
(407,368,c),
(446,368,l),
(442,452,o),
(372,509,o),
(273,509,cs),
(138,509,o),
(48,400,o),
(48,237,cs),
(48,83,o),
(133,-5,o),
(281,-5,cs)
);
}
);
width = 491;
}
);
unicode = 99;
userData = {
position = 382;
width = 57;
};
},
{
glyphname = c.ss01;
kernLeft = o;
kernRight = c;
layers = (
{
anchors = (
{
name = bottom;
pos = (275,0);
},
{
name = top;
pos = (273,500);
}
);
layerId = "873CAA12-270D-4223-A88E-AE8E101FDBE8";
shapes = (
{
closed = 1;
nodes = (
(342,-7,o),
(412,15,o),
(466,52,c),
(440,94,l),
(382,62,o),
(332,47,o),
(282,47,cs),
(168,47,o),
(103,117,o),
(103,240,cs),
(103,373,o),
(174,459,o),
(285,459,cs),
(330,459,o),
(360,447,o),
(391,416,c),
(431,452,l),
(382,495,o),
(339,513,o),
(285,513,cs),
(140,513,o),
(43,405,o),
(43,243,cs),
(43,88,o),
(132,-7,o),
(277,-7,cs)
);
}
);
width = 484;
},
{
anchors = (
{
name = bottom;
pos = (275,13);
},
{
name = top;
pos = (281,500);
}
);
layerId = "0CAF3BED-C4AC-4024-B3E1-4C69D1EF7EC0";
shapes = (
{
closed = 1;
nodes = (
(346,-7,o),
(417,17,o),
(473,59,c),
(439,122,l),
(375,82,o),
(332,67,o),
(282,67,cs),
(181,67,o),
(119,135,o),
(119,245,cs),
(119,365,o),
(183,440,o),
(285,440,cs),
(329,440,o),
(357,428,o),
(388,395,c),
(437,450,l),
(414,486,o),
(348,514,o),
(285,514,cs),
(139,514,o),
(39,406,o),
(39,248,cs),
(39,95,o),
(134,-7,o),
(277,-7,cs)
);
}
);
width = 491;
},
{
anchors = (
{
name = bottom;
pos = (275,-6);
},
{
name = top;
pos = (273,504);
}
);
layerId = "49C16FD3-6177-408B-A733-AEB3898BB77C";
shapes = (
{
closed = 1;
nodes = (
(340,-6,o),
(407,14,o),
(460,49,c),
(441,80,l),
(381,47,o),
(332,32,o),
(282,32,cs),
(163,32,o),
(90,111,o),
(90,239,cs),
(90,377,o),
(169,472,o),
(285,472,cs),
(330,472,o),
(364,458,o),
(396,428,c),
(423,455,l),
(384,492,o),
(338,510,o),
(285,510,cs),
(141,510,o),
(48,405,o),
(48,242,cs),
(48,86,o),
(133,-6,o),
(277,-6,cs)
);
}
);
width = 481;
}
);
userData = {
position = 382;
width = 57;
};
},
{
glyphname = d;
kernLeft = o;
kernRight = m;
layers = (
{
anchors = (
{
name = bottom;
pos = (260,-10);
},
{
name = center;
pos = (416,601);
},
{
name = top;
pos = (437,727);
},
{
name = topright;
pos = (556,500);
}
);
hints = (
{
name = _corner.right_curved;
options = 1;
origin = (0,3);
type = Corner;
}
);
layerId = "873CAA12-270D-4223-A88E-AE8E101FDBE8";
shapes = (
{
closed = 1;
nodes = (
(323,-10,o),
(377,18,o),
(409,72,c),
(468,84,l),
(469,727,l),
(409,727,l),
(409,499,l),
(373,504,o),
(319,508,o),
(289,508,cs),
(136,508,o),
(43,399,o),
(43,246,cs),
(43,108,o),
(119,-10,o),
(260,-10,cs)
);
},
{
closed = 1;
nodes = (
(159,45,o),
(103,139,o),
(103,253,cs),
(103,369,o),
(155,456,o),
(310,456,cs),
(357,456,o),
(388,448,o),
(409,446,c),
(409,188,ls),
(409,163,o),
(404,142,o),
(395,124,cs),
(370,73,o),
(320,43,o),
(260,44,cs)
);
}
);
width = 586;
},
{
anchors = (
{
name = bottom;
pos = (260,-10);
},
{
name = center;
pos = (392,610);
},
{
name = top;
pos = (431,729);
},
{
name = topright;
pos = (563,500);
}
);
hints = (
{
name = _corner.right_curved;
options = 1;
origin = (0,3);
type = Corner;
}
);
layerId = "0CAF3BED-C4AC-4024-B3E1-4C69D1EF7EC0";
shapes = (
{
closed = 1;
nodes = (
(314,-10,o),
(373,14,o),
(400,61,c),
(473,89,l),
(473,728,l),
(391,728,l),
(391,510,l),
(360,513,o),
(316,517,o),
(289,517,cs),
(136,517,o),
(40,402,o),
(40,251,cs),
(40,114,o),
(111,-10,o),
(261,-10,cs)
);
},
{
closed = 1;
nodes = (
(172,64,o),
(122,152,o),
(122,257,cs),
(122,362,o),
(180,442,o),
(309,442,cs),
(344,442,o),
(371,434,o),
(391,431,c),
(391,194,ls),
(391,172,o),
(387,155,o),
(379,138,cs),
(357,93,o),
(314,64,o),
(261,64,cs)
);
}
);
width = 593;
},
{
anchors = (
{
name = bottom;
pos = (298,0);
},
{
name = center;
pos = (419,602);
},
{
name = top;
pos = (432,741);
},
{
name = topright;
pos = (553,500);
}
);
hints = (
{
name = _corner.right_curved;
options = 1;
origin = (0,3);
type = Corner;
}
);
layerId = "49C16FD3-6177-408B-A733-AEB3898BB77C";
shapes = (
{
closed = 1;
nodes = (
(333,-9,o),
(396,32,o),
(420,76,c),
(461,76,l),
(461,728,l),
(419,728,l),
(419,493,l),
(396,498,o),
(340,505,o),
(290,505,cs),
(137,505,o),
(48,400,o),
(48,247,cs),
(48,108,o),
(120,-9,o),
(260,-9,cs)
);
},
{
closed = 1;
nodes = (
(148,29,o),
(90,129,o),
(90,247,cs),
(90,367,o),
(149,467,o),
(311,467,cs),
(365,467,o),
(399,460,o),
(419,454,c),
(419,186,ls),
(419,158,o),
(414,138,o),
(404,117,cs),
(378,63,o),
(323,29,o),
(260,29,cs)
);
}
);
width = 581;
}
);
unicode = 100;
userData = {
position = 404;
width = 55;
};
},
{
glyphname = d.ss01;
kernLeft = o;
kernRight = a.2;
layers = (
{
anchors = (
{
name = bottom;
pos = (256,-10);
},
{
name = center;
pos = (414,616);
},
{
name = top;
pos = (436,727);
},
{
name = topright;
pos = (551,500);
}
);
layerId = "873CAA12-270D-4223-A88E-AE8E101FDBE8";
shapes = (
{
closed = 1;
nodes = (
(318,-10,o),
(382,15,o),
(414,78,c),
(422,44,o),
(438,13,o),
(467,-8,c),
(501,25,l),
(475,53,o),
(462,93,o),
(462,144,cs),
(462,727,l),
(407,727,l),
(407,499,l),
(371,504,o),
(317,508,o),
(286,508,cs),
(131,508,o),
(43,397,o),
(43,246,cs),
(43,109,o),
(118,-10,o),
(256,-10,cs)
);
},
{
closed = 1;
nodes = (
(154,42,o),
(100,139,o),
(100,249,cs),
(100,365,o),
(165,456,o),
(277,456,cs),
(305,456,o),
(325,456,o),
(407,446,c),
(407,188,ls),
(407,163,o),
(402,142,o),
(393,124,cs),
(369,75,o),
(320,42,o),
(259,42,cs)
);
}
);
width = 546;
},
{
anchors = (
{
name = bottom;
pos = (258,-10);
},
{
name = center;
pos = (389,625);
},
{
name = top;
pos = (435,728);
},
{
name = topright;
pos = (543,500);
}
);
layerId = "0CAF3BED-C4AC-4024-B3E1-4C69D1EF7EC0";
shapes = (
{
closed = 1;
nodes = (
(313,-10,o),
(372,10,o),
(408,59,c),
(419,31,o),
(437,5,o),
(464,-12,c),
(513,35,l),
(484,61,o),
(470,98,o),
(470,151,cs),
(470,728,l),
(393,728,l),
(393,508,l),
(359,512,o),
(314,516,o),
(287,516,cs),
(132,516,o),
(40,400,o),
(40,250,cs),
(40,113,o),
(118,-10,o),
(258,-10,cs)
);
},
{
closed = 1;
nodes = (
(168,64,o),
(119,151,o),
(119,253,cs),
(119,359,o),
(178,442,o),
(279,442,cs),
(305,442,o),
(323,442,o),
(393,433,c),
(393,193,ls),
(393,171,o),
(389,153,o),
(381,137,cs),
(359,92,o),
(317,64,o),
(261,64,cs)
);
}
);
width = 554;
},
{
anchors = (
{
name = bottom;
pos = (258,-9);
},
{
name = center;
pos = (419,619);
},
{
name = top;
pos = (439,728);
},
{
name = topright;
pos = (528,500);
}
);
layerId = "49C16FD3-6177-408B-A733-AEB3898BB77C";
shapes = (
{
closed = 1;
nodes = (
(326,-9,o),
(393,20,o),
(422,94,c),
(429,55,o),
(443,19,o),
(473,-5,c),
(498,20,l),
(474,49,o),
(461,91,o),
(461,141,cs),
(461,728,l),
(419,728,l),
(419,495,l),
(383,500,o),
(322,505,o),
(289,505,cs),
(134,505,o),
(48,396,o),
(48,245,cs),
(48,107,o),
(121,-9,o),
(258,-9,cs)
);
},
{
closed = 1;
nodes = (
(150,30,o),
(92,134,o),
(92,248,cs),
(92,369,o),
(162,466,o),
(280,466,cs),
(309,466,o),
(330,466,o),
(419,455,c),
(419,186,ls),
(419,159,o),
(414,136,o),
(404,117,cs),
(379,66,o),
(326,30,o),
(261,30,cs)
);
}
);
width = 550;
}
);
userData = {
RMXScaler = {
source = d;
};
position = 414;
width = 55;
};
},
{
glyphname = eth;
kernLeft = o;
kernRight = O;
layers = (
{
layerId = "873CAA12-270D-4223-A88E-AE8E101FDBE8";
shapes = (
{
closed = 1;
nodes = (
(402,-9,o),
(476,115,o),
(476,276,cs),
(476,395,o),
(434,525,o),
(379,607,c),
(481,665,l),
(453,713,l),
(345,650,l),
(309,691,o),
(266,723,o),
(219,745,c),
(195,693,l),
(230,677,o),
(264,653,o),
(294,621,c),
(197,565,l),
(224,517,l),
(330,578,l),
(360,535,o),
(393,455,o),
(403,404,c),
(379,440,o),
(325,478,o),
(258,478,cs),
(124,478,o),
(41,369,o),
(41,234,cs),
(41,101,o),
(125,-9,o),
(256,-9,cs)
);
},
{
closed = 1;
nodes = (
(153,45,o),
(101,141,o),
(101,236,cs),
(101,335,o),
(155,424,o),
(258,424,cs),
(297,424,o),
(340,411,o),
(372,383,cs),
(417,344,o),
(417,306,o),
(415,250,cs),
(410,137,o),
(368,45,o),
(253,45,cs)
);
}
);
width = 526;
},
{
layerId = "0CAF3BED-C4AC-4024-B3E1-4C69D1EF7EC0";
shapes = (
{
closed = 1;
nodes = (
(371,-18,o),
(490,40,o),
(490,271,cs),
(490,383,o),
(459,503,o),
(398,596,c),
(493,651,l),
(455,717,l),
(350,656,l),
(314,694,o),
(274,722,o),
(231,742,c),
(198,672,l),
(227,658,o),
(257,642,o),
(279,616,c),
(198,569,l),
(236,503,l),
(330,557,l),
(353,525,o),
(381,468,o),
(389,431,c),
(362,461,o),
(309,480,o),
(269,481,cs),
(118,485,o),
(38,358,o),
(38,231,cs),
(38,93,o),
(129,-18,o),
(264,-18,cs)
);
},
{
closed = 1;
nodes = (
(167,58,o),
(120,145,o),
(120,231,cs),
(120,323,o),
(170,406,o),
(267,406,cs),
(320,406,o),
(373,388,o),
(398,345,cs),
(408,327,o),
(412,307,o),
(410,247,cs),
(406,144,o),
(369,58,o),
(264,58,cs)
);
}
);
width = 542;
},
{
layerId = "49C16FD3-6177-408B-A733-AEB3898BB77C";
shapes = (
{
closed = 1;
nodes = (
(381,-18,o),
(462,88,o),
(462,263,cs),
(462,384,o),
(423,515,o),
(365,596,c),
(474,658,l),
(453,695,l),
(339,629,l),
(303,671,o),
(261,704,o),
(213,726,c),
(194,687,l),
(233,668,o),
(269,642,o),
(301,607,c),
(197,547,l),
(218,510,l),
(328,574,l),
(365,524,o),
(395,446,o),
(409,385,c),
(366,437,o),
(309,460,o),
(255,460,cs),
(126,460,o),
(44,351,o),
(44,221,cs),
(44,100,o),
(115,-12,o),
(251,-15,cs)
);
},
{
closed = 1;
nodes = (
(143,23,o),
(87,126,o),
(87,224,cs),
(87,335,o),
(157,422,o),
(253,422,cs),
(300,422,o),
(343,401,o),
(373,375,cs),
(412,342,o),
(423,305,o),
(420,240,cs),
(414,121,o),
(365,23,o),
(255,23,cs)
);
}
);
width = 521;
},
{
associatedMasterId = "873CAA12-270D-4223-A88E-AE8E101FDBE8";
layerId = "62A47789-74C3-4527-89DE-657603B6AE71";
name = "Sep 25 19, 10:58";
shapes = (
{
closed = 1;
nodes = (
(423,-10,o),
(506,88,o),
(506,256,cs),
(506,323,o),
(493,361,o),
(416,589,c),
(510,619,l),
(495,674,l),
(397,644,l),
(359,748,l),
(301,730,l),
(341,626,l),
(250,596,l),
(265,541,l),
(360,571,l),
(385,497,l),
(351,503,o),
(309,508,o),
(278,508,cs),
(130,508,o),
(40,395,o),
(40,246,cs),
(40,100,o),
(126,-10,o),
(279,-10,cs)
);
},
{
closed = 1;
nodes = (
(162,42,o),
(97,126,o),
(97,252,cs),
(97,377,o),
(162,455,o),
(299,455,cs),
(340,455,o),
(359,448,o),
(404,441,c),
(436,353,o),
(448,298,o),
(448,243,cs),
(448,124,o),
(393,42,o),
(278,42,cs)
);
}
);
width = 553;
},
{
associatedMasterId = "0CAF3BED-C4AC-4024-B3E1-4C69D1EF7EC0";
layerId = "A26C5F93-9204-416E-9A12-5B571F6F37D2";
name = "Sep 25 19, 11:08";
shapes = (
{
closed = 1;
nodes = (
(428,-10,o),
(515,92,o),
(515,259,cs),
(515,325,o),
(502,364,o),
(431,575,c),
(522,604,l),
(501,680,l),
(405,650,l),
(368,751,l),
(289,727,l),
(328,626,l),
(241,597,l),
(262,521,l),
(354,550,l),
(369,508,l),
(340,512,o),
(307,516,o),
(282,516,cs),
(133,516,o),
(40,398,o),
(40,250,cs),
(40,104,o),
(129,-10,o),
(283,-10,cs)
);
},
{
closed = 1;
nodes = (
(177,64,o),
(118,139,o),
(118,256,cs),
(118,371,o),
(177,441,o),
(303,441,cs),
(338,441,o),
(356,435,o),
(396,428,c),
(425,348,o),
(436,298,o),
(436,247,cs),
(436,137,o),
(386,64,o),
(282,64,cs)
);
}
);
width = 561;
},
{
associatedMasterId = "49C16FD3-6177-408B-A733-AEB3898BB77C";
layerId = "6DFC4F9D-ECDD-486E-A928-4E059C9453B0";
name = "Sep 25 19, 11:09";
shapes = (
{
closed = 1;
nodes = (
(417,-9,o),
(498,86,o),
(498,255,cs),
(498,323,o),
(485,361,o),
(404,599,c),
(501,630,l),
(489,672,l),
(390,642,l),
(351,748,l),
(306,734,l),
(346,628,l),
(253,597,l),
(264,555,l),
(361,585,l),
(393,492,l),
(356,499,o),
(308,505,o),
(273,505,cs),
(125,505,o),
(37,394,o),
(37,245,cs),
(37,98,o),
(121,-9,o),
(274,-9,cs)
);
},
{
closed = 1;
nodes = (
(151,30,o),
(81,120,o),
(81,251,cs),
(81,381,o),
(151,465,o),
(294,465,cs),
(339,465,o),
(358,457,o),
(407,450,c),
(440,358,o),
(453,300,o),
(453,242,cs),
(453,118,o),
(394,30,o),
(273,30,cs)
);
}
);
width = 542;
}
);
unicode = 240;
userData = {
position = 465;
width = 58;
};
},
{
glyphname = e;
kernLeft = o;
kernRight = c;
layers = (
{
anchors = (
{
name = bottom;
pos = (271,0);
},
{
name = ogonek;
pos = (463,55);
},
{
name = top;
pos = (268,508);
}
);
layerId = "873CAA12-270D-4223-A88E-AE8E101FDBE8";
shapes = (
{
closed = 1;
nodes = (
(347,-10,o),
(414,16,o),
(463,55,c),
(433,95,l),
(386,62,o),
(337,44,o),
(275,44,cs),
(174,44,o),
(118,100,o),
(106,201,c),
(216,200,ls),
(362,199,o),
(453,254,o),
(453,354,cs),
(453,449,o),
(369,508,o),
(271,508,cs),
(114,508,o),
(43,359,o),
(43,230,cs),
(43,94,o),
(121,-10,o),
(275,-10,cs)
);
},
{
closed = 1;
nodes = (
(103,333,o),
(154,454,o),
(274,454,cs),
(335,454,o),
(393,426,o),
(393,355,cs),
(393,278,o),
(323,252,o),
(229,252,cs),
(103,252,l)
);
}
);
width = 499;
},
{
anchors = (
{
name = bottom;
pos = (272,13);
},
{
name = ogonek;
pos = (475,62);
},
{
name = top;
pos = (269,503);
}
);
layerId = "0CAF3BED-C4AC-4024-B3E1-4C69D1EF7EC0";
shapes = (
{
closed = 1;
nodes = (
(354,-10,o),
(421,21,o),
(475,62,c),
(430,119,l),
(388,88,o),
(338,65,o),
(276,65,cs),
(193,65,o),
(143,112,o),
(128,194,c),
(232,192,ls),
(365,189,o),
(459,252,o),
(459,355,cs),
(459,454,o),
(371,515,o),
(272,515,cs),
(112,515,o),
(40,362,o),
(40,235,cs),
(40,100,o),
(121,-10,o),
(273,-10,cs)
);
},
{
closed = 1;
nodes = (
(129,337,o),
(178,441,o),
(277,441,cs),
(327,441,o),
(377,414,o),
(377,356,cs),
(377,293,o),
(318,264,o),
(232,264,cs),
(124,264,l)
);
}
);
width = 508;
},
{
anchors = (
{
name = bottom;
pos = (269,-6);
},
{
name = ogonek;
pos = (454,51);
},
{
name = top;
pos = (266,512);
}
);
layerId = "49C16FD3-6177-408B-A733-AEB3898BB77C";
shapes = (
{
closed = 1;
nodes = (
(343,-9,o),
(403,15,o),
(454,51,c),
(433,80,l),
(384,49,o),
(336,29,o),
(273,29,cs),
(164,29,o),
(104,95,o),
(93,205,c),
(226,205,ls),
(360,205,o),
(447,257,o),
(447,355,cs),
(447,448,o),
(367,505,o),
(269,505,cs),
(114,505,o),
(48,359,o),
(48,229,cs),
(48,92,o),
(120,-9,o),
(273,-9,cs)
);
},
{
closed = 1;
nodes = (
(88,326,o),
(141,467,o),
(272,467,cs),
(336,467,o),
(405,433,o),
(405,356,cs),
(405,273,o),
(324,243,o),
(226,243,cs),
(91,243,l)
);
}
);
width = 495;
}
);
unicode = 101;
userData = {
position = 382;
width = 57;
};
},
{
glyphname = e.ss01;
kernLeft = o;
kernRight = c;
layers = (
{
anchors = (
{
name = bottom;
pos = (264,0);
},
{
name = ogonek;
pos = (454,48);
},
{
name = top;
pos = (261,508);
}
);
layerId = "873CAA12-270D-4223-A88E-AE8E101FDBE8";
shapes = (
{
closed = 1;
nodes = (
(335,-11,o),
(403,13,o),
(454,48,c),
(428,90,l),
(372,58,o),
(328,43,o),
(269,43,cs),
(112,43,o),
(103,181,o),
(103,233,cs),
(103,377,o),
(176,454,o),
(265,454,cs),
(348,454,o),
(414,389,o),
(414,303,cs),
(414,284,o),
(411,259,o),
(406,229,c),
(469,229,l),
(471,254,o),
(474,277,o),
(474,300,cs),
(474,417,o),
(383,508,o),
(266,508,cs),
(121,508,o),
(43,371,o),
(43,234,cs),
(43,91,o),
(122,-11,o),
(265,-11,cs)
);
},
{
closed = 1;
nodes = (
(446,229,l),
(446,283,l),
(63,283,l),
(63,229,l)
);
}
);
width = 515;
},
{
anchors = (
{
name = bottom;
pos = (266,13);
},
{
name = ogonek;
pos = (467,56);
},
{
name = top;
pos = (263,504);
}
);
layerId = "0CAF3BED-C4AC-4024-B3E1-4C69D1EF7EC0";
shapes = (
{
closed = 1;
nodes = (
(343,-11,o),
(419,18,o),
(467,56,c),
(429,118,l),
(376,81,o),
(329,63,o),
(271,63,cs),
(132,63,o),
(125,189,o),
(125,238,cs),
(125,375,o),
(190,443,o),
(267,443,cs),
(339,443,o),
(397,385,o),
(397,305,cs),
(397,285,o),
(395,257,o),
(389,221,c),
(474,221,l),
(476,249,o),
(478,276,o),
(478,302,cs),
(478,425,o),
(386,517,o),
(268,517,cs),
(120,517,o),
(41,379,o),
(41,239,cs),
(41,96,o),
(123,-11,o),
(267,-11,cs)
);
},
{
closed = 1;
nodes = (
(455,221,l),
(455,295,l),
(59,295,l),
(59,221,l)
);
}
);
width = 521;
},
{
anchors = (
{
name = bottom;
pos = (268,-10);
},
{
name = ogonek;
pos = (451,45);
},
{
name = top;
pos = (269,505);
}
);
layerId = "49C16FD3-6177-408B-A733-AEB3898BB77C";
shapes = (
{
closed = 1;
nodes = (
(336,-10,o),
(401,12,o),
(451,45,c),
(432,76,l),
(377,46,o),
(332,28,o),
(274,28,cs),
(105,28,o),
(91,178,o),
(91,235,cs),
(91,373,o),
(165,469,o),
(269,469,cs),
(355,469,o),
(427,399,o),
(427,301,cs),
(427,285,o),
(425,262,o),
(420,235,c),
(465,235,l),
(467,258,o),
(469,280,o),
(469,299,cs),
(469,421,o),
(386,504,o),
(269,505,cs),
(133,506,o),
(49,392,o),
(49,233,cs),
(49,89,o),
(126,-10,o),
(268,-10,cs)
);
},
{
closed = 1;
nodes = (
(446,235,l),
(446,273,l),
(69,273,l),
(69,235,l)
);
}
);
width = 514;
}
);
userData = {
position = 382;
width = 57;
};
},
{
glyphname = f;
kernRight = f;
layers = (
{
anchors = (
{
name = bottom;
pos = (201,0);
},
{
name = top;
pos = (245,742);
}
);
layerId = "873CAA12-270D-4223-A88E-AE8E101FDBE8";
shapes = (
{
closed = 1;
nodes = (
(140,-260,l),
(140,198,l),
(288,198,l),
(288,252,l),
(140,252,l),
(140,418,l),
(188,415,ls),
(310,407,o),
(391,479,o),
(391,592,cs),
(391,686,o),
(336,742,o),
(245,742,cs),
(130,742,o),
(80,669,o),
(80,502,cs),
(80,-260,l)
);
},
{
closed = 1;
nodes = (
(140,505,ls),
(140,630,o),
(173,688,o),
(243,688,cs),
(299,688,o),
(331,654,o),
(331,593,cs),
(331,514,o),
(278,467,o),
(188,467,cs),
(140,467,l)
);
}
);
width = 387;
},
{
anchors = (
{
name = bottom;
pos = (207,0);
},
{
name = top;
pos = (249,743);
}
);
layerId = "0CAF3BED-C4AC-4024-B3E1-4C69D1EF7EC0";
shapes = (
{
closed = 1;
nodes = (
(160,-252,l),
(160,195,l),
(304,195,l),
(304,269,l),
(160,269,l),
(160,403,l),
(193,400,ls),
(314,389,o),
(400,466,o),
(400,584,cs),
(400,681,o),
(341,743,o),
(249,743,cs),
(134,743,o),
(78,669,o),
(78,517,cs),
(78,-252,l)
);
},
{
closed = 1;
nodes = (
(160,497,ls),
(160,614,o),
(188,669,o),
(247,669,cs),
(291,669,o),
(318,638,o),
(318,585,cs),
(318,516,o),
(271,474,o),
(193,474,cs),
(160,474,l)
);
}
);
width = 401;
},
{
anchors = (
{
name = bottom;
pos = (187,0);
},
{
name = top;
pos = (240,744);
}
);
layerId = "49C16FD3-6177-408B-A733-AEB3898BB77C";
shapes = (
{
closed = 1;
nodes = (
(126,-264,l),
(126,206,l),
(277,206,l),
(277,244,l),
(126,244,l),
(126,426,l),
(182,424,ls),
(305,420,o),
(379,485,o),
(379,598,cs),
(379,692,o),
(329,744,o),
(240,744,cs),
(131,744,o),
(84,672,o),
(84,506,cs),
(84,-264,l)
);
},
{
closed = 1;
nodes = (
(126,509,ls),
(126,641,o),
(163,706,o),
(238,706,cs),
(298,706,o),
(337,664,o),
(337,599,cs),
(337,515,o),
(277,462,o),
(182,462,cs),
(126,462,l)
);
}
);
width = 375;
}
);
unicode = 102;
userData = {
position = 298;
width = 57;
};
},
{
glyphname = f.ss01;
kernLeft = ftext;
kernRight = ftext;
layers = (
{
anchors = (
{
name = bottom;
pos = (120,0);
},
{
name = top;
pos = (250,742);
}
);
layerId = "873CAA12-270D-4223-A88E-AE8E101FDBE8";
shapes = (
{
closed = 1;
nodes = (
(149,0,l),
(149,505,ls),
(149,595,o),
(160,690,o),
(252,690,cs),
(282,690,o),
(304,680,o),
(318,663,c),
(361,700,l),
(349,713,o),
(331,725,o),
(316,731,cs),
(299,738,o),
(273,742,o),
(250,742,cs),
(120,742,o),
(89,641,o),
(89,515,cs),
(89,0,l)
);
},
{
closed = 1;
nodes = (
(297,448,l),
(297,500,l),
(38,500,l),
(38,448,l)
);
}
);
width = 331;
},
{
anchors = (
{
name = bottom;
pos = (132,2);
},
{
name = top;
pos = (254,743);
}
);
layerId = "0CAF3BED-C4AC-4024-B3E1-4C69D1EF7EC0";
shapes = (
{
closed = 1;
nodes = (
(170,-1,l),
(170,497,ls),
(170,575,o),
(176,669,o),
(256,669,cs),
(285,669,o),
(307,660,o),
(319,637,c),
(380,687,l),
(369,704,o),
(341,724,o),
(323,731,cs),
(305,738,o),
(276,743,o),
(254,743,cs),
(118,743,o),
(88,620,o),
(88,497,cs),
(88,-1,l)
);
},
{
closed = 1;
nodes = (
(312,426,l),
(312,500,l),
(37,500,l),
(37,426,l)
);
}
);
width = 348;
},
{
anchors = (
{
name = bottom;
pos = (114,0);
},
{
name = top;
pos = (243,744);
}
);
layerId = "49C16FD3-6177-408B-A733-AEB3898BB77C";
shapes = (
{
closed = 1;
nodes = (
(133,1,l),
(133,509,ls),
(133,601,o),
(144,706,o),
(244,706,cs),
(273,706,o),
(298,696,o),
(313,680,c),
(346,708,l),
(335,719,o),
(320,728,o),
(308,733,cs),
(291,740,o),
(266,744,o),
(243,744,cs),
(116,744,o),
(91,634,o),
(91,506,cs),
(91,1,l)
);
},
{
closed = 1;
nodes = (
(284,462,l),
(284,500,l),
(39,500,l),
(39,462,l)
);
}
);
width = 318;
}
);
userData = {
position = 298;
width = 57;
};
},
{
glyphname = g;
kernLeft = o;
kernRight = j;
layers = (
{
anchors = (
{
name = bottom;
pos = (272,-260);
},
{
name = top;
pos = (280,508);
}
);
layerId = "873CAA12-270D-4223-A88E-AE8E101FDBE8";
shapes = (
{
closed = 1;
nodes = (
(402,-279,o),
(464,-214,o),
(464,-116,cs),
(464,501,l),
(407,501,l),
(347,508,ls),
(338,509,o),
(315,511,o),
(292,511,cs),
(142,511,o),
(43,409,o),
(43,254,cs),
(43,123,o),
(112,19,o),
(215,-5,c),
(177,-36,o),
(158,-77,o),
(158,-128,cs),
(158,-213,o),
(224,-279,o),
(310,-279,cs)
);
},
{
closed = 1;
nodes = (
(261,-221,o),
(220,-180,o),
(220,-127,cs),
(220,-84,o),
(237,-51,o),
(272,-29,cs),
(303,-9,o),
(335,7,o),
(360,28,cs),
(384,48,o),
(401,78,o),
(404,81,c),
(404,-113,l),
(401,-182,o),
(369,-221,o),
(315,-221,cs)
);
},
{
closed = 1;
nodes = (
(169,47,o),
(103,137,o),
(103,249,cs),
(103,367,o),
(178,453,o),
(280,453,cs),
(313,453,l),
(404,448,l),
(404,180,ls),
(404,151,o),
(378,111,o),
(341,82,cs),
(312,59,o),
(282,47,o),
(251,47,cs)
);
}
);
width = 544;
},
{
anchors = (
{
name = bottom;
pos = (276,-260);
},
{
name = top;
pos = (284,504);
}
);
layerId = "0CAF3BED-C4AC-4024-B3E1-4C69D1EF7EC0";
shapes = (
{
closed = 1;
nodes = (
(409,-272,o),
(475,-201,o),
(475,-96,cs),
(475,508,l),
(407,508,l),
(350,515,l),
(316,516,o),
(298,517,o),
(288,517,cs),
(146,517,o),
(44,413,o),
(38,262,cs),
(32,128,o),
(94,33,o),
(209,0,c),
(173,-32,o),
(155,-71,o),
(155,-118,cs),
(155,-203,o),
(226,-272,o),
(313,-272,cs)
);
},
{
closed = 1;
nodes = (
(273,-198,o),
(235,-161,o),
(235,-118,cs),
(235,-76,o),
(251,-45,o),
(283,-26,cs),
(321,-3,o),
(350,17,o),
(366,32,cs),
(379,44,o),
(388,59,o),
(393,65,c),
(393,-99,l),
(393,-159,o),
(363,-198,o),
(317,-198,cs)
);
},
{
closed = 1;
nodes = (
(181,67,o),
(120,151,o),
(120,252,cs),
(120,361,o),
(191,443,o),
(284,443,cs),
(315,443,l),
(393,442,l),
(393,186,ls),
(393,162,o),
(372,128,o),
(342,103,cs),
(314,79,o),
(284,67,o),
(255,67,cs)
);
}
);
width = 553;
},
{
anchors = (
{
name = bottom;
pos = (277,-260);
},
{
name = top;
pos = (284,513);
}
);
layerId = "49C16FD3-6177-408B-A733-AEB3898BB77C";
shapes = (
{
closed = 1;
nodes = (
(402,-285,o),
(463,-223,o),
(463,-132,cs),
(463,496,l),
(413,496,l),
(351,503,ls),
(333,505,o),
(313,506,o),
(289,506,cs),
(149,506,o),
(46,396,o),
(46,247,cs),
(46,113,o),
(125,6,o),
(234,-8,c),
(192,-37,o),
(171,-79,o),
(171,-135,cs),
(171,-221,o),
(232,-285,o),
(314,-285,cs)
);
},
{
closed = 1;
nodes = (
(258,-247,o),
(211,-197,o),
(211,-133,cs),
(211,-89,o),
(229,-58,o),
(271,-29,cs),
(284,-20,o),
(339,8,o),
(362,27,cs),
(388,48,o),
(409,72,o),
(421,94,c),
(421,-124,l),
(416,-202,o),
(379,-247,o),
(319,-247,cs)
);
},
{
closed = 1;
nodes = (
(163,30,o),
(88,128,o),
(88,247,cs),
(88,373,o),
(173,468,o),
(284,468,cs),
(317,468,l),
(421,462,l),
(421,177,ls),
(421,146,o),
(397,105,o),
(359,73,cs),
(327,46,o),
(289,30,o),
(255,30,cs)
);
}
);
width = 547;
}
);
unicode = 103;
userData = {
position = 405;
width = 53;
};
},
